<svg class="animated" id="freepik_stories-world-chocolate-day" xmlns="http://www.w3.org/2000/svg" viewBox="0 0 500 500" version="1.1" xmlns:xlink="http://www.w3.org/1999/xlink" xmlns:svgjs="http://svgjs.com/svgjs"><style>svg#freepik_stories-world-chocolate-day:not(.animated) .animable {opacity: 0;}svg#freepik_stories-world-chocolate-day.animated #freepik--background-complete--inject-35 {animation: 1.5s Infinite  linear floating;animation-delay: 0s;}svg#freepik_stories-world-chocolate-day.animated #freepik--chocolate-bar--inject-35 {animation: 1.5s Infinite  linear floating;animation-delay: 0s;}svg#freepik_stories-world-chocolate-day.animated #freepik--Character--inject-35 {animation: 1.5s Infinite  linear floating;animation-delay: 0s;}            @keyframes floating {                0% {                    opacity: 1;                    transform: translateY(0px);                }                50% {                    transform: translateY(-10px);                }                100% {                    opacity: 1;                    transform: translateY(0px);                }            }        .animator-hidden { display: none; }</style><g id="freepik--background-complete--inject-35" class="animable" style="transform-origin: 330.652px 265.77px;"><path d="M436.5,296.43h3.84a12.59,12.59,0,0,0,5.71,5.24v80H344.22V277.87h67.09a9.38,9.38,0,0,0,5.49,5.72c.24.09.49.17.75.25a9.19,9.19,0,0,0,2.63.38,12.48,12.48,0,0,0,.37,5.81,12.69,12.69,0,0,0,13.93,8.86c2.14-.31.32-1.16,2-2.45" style="fill: rgb(166, 166, 166); transform-origin: 395.135px 329.77px;" id="el903ky0qrdoo" class="animable"></path><path d="M442.21,301.67v80H340.38V277.87h67.09a9.38,9.38,0,0,0,5.49,5.72c.24.09.49.17.75.25a9.19,9.19,0,0,0,2.63.38,12.48,12.48,0,0,0,.37,5.81,12.66,12.66,0,0,0,19.78,6.41v0h0A12.59,12.59,0,0,0,442.21,301.67Z" style="fill: rgb(199, 199, 199); transform-origin: 391.295px 329.77px;" id="elrs80cgt9mji" class="animable"></path><path d="M446.05,302.74v79h-3.84v-80a13.53,13.53,0,0,0,1.72.64A12.27,12.27,0,0,0,446.05,302.74Z" style="fill: rgb(166, 166, 166); transform-origin: 444.13px 341.74px;" id="elqevjdd1z4io" class="animable"></path><g id="elrlkvhm0hlh"><rect x="351.94" y="290.03" width="30.96" height="30.96" style="fill: rgb(235, 235, 235); transform-origin: 367.42px 305.51px; transform: rotate(180deg);" class="animable"></rect></g><polygon points="388.75 327.43 382.9 320.99 351.94 320.99 346.09 327.43 388.75 327.43" style="fill: rgb(219, 219, 219); transform-origin: 367.42px 324.21px;" id="elfstd2dxnd5q" class="animable"></polygon><polygon points="346.09 283.59 351.94 290.03 382.9 290.03 388.75 283.59 346.09 283.59" style="fill: rgb(255, 255, 255); transform-origin: 367.42px 286.81px;" id="elfwq7iyv9beg" class="animable"></polygon><polygon points="346.09 283.59 351.94 290.03 351.94 320.99 346.09 327.43 346.09 283.59" style="fill: rgb(255, 255, 255); transform-origin: 349.015px 305.51px;" id="elhsm3wjc33" class="animable"></polygon><polygon points="388.75 327.43 382.9 320.99 382.9 290.03 388.75 283.59 388.75 327.43" style="fill: rgb(219, 219, 219); transform-origin: 385.825px 305.51px;" id="el384ccu4vszv" class="animable"></polygon><path d="M430.64,298.89V321h-31V290h17a12.69,12.69,0,0,0,13.93,8.86Z" style="fill: rgb(235, 235, 235); transform-origin: 415.14px 305.5px;" id="elcx6z86lgqad" class="animable"></path><polygon points="436.49 327.43 430.64 320.99 399.68 320.99 393.83 327.43 436.49 327.43" style="fill: rgb(219, 219, 219); transform-origin: 415.16px 324.21px;" id="eljx703dyd0l" class="animable"></polygon><path d="M416.71,290h-17l-5.85-6.44H413c.24.09.49.17.75.25a9.19,9.19,0,0,0,2.63.38A12.48,12.48,0,0,0,416.71,290Z" style="fill: rgb(255, 255, 255); transform-origin: 405.285px 286.78px;" id="el8xtp7bntuks" class="animable"></path><polygon points="393.83 283.59 399.68 290.03 399.68 320.99 393.83 327.43 393.83 283.59" style="fill: rgb(255, 255, 255); transform-origin: 396.755px 305.51px;" id="el4vgsspmj0ci" class="animable"></polygon><path d="M436.49,296.44v31L430.64,321v-22.1A12.69,12.69,0,0,0,436.49,296.44Z" style="fill: rgb(219, 219, 219); transform-origin: 433.565px 311.94px;" id="elv469jgkt9fi" class="animable"></path><g id="el012br7vjxxuyp"><rect x="351.94" y="338.58" width="30.96" height="30.96" style="fill: rgb(235, 235, 235); transform-origin: 367.42px 354.06px; transform: rotate(180deg);" class="animable"></rect></g><polygon points="388.75 375.98 382.9 369.54 351.94 369.54 346.09 375.98 388.75 375.98" style="fill: rgb(219, 219, 219); transform-origin: 367.42px 372.76px;" id="elmyp940ozpf" class="animable"></polygon><polygon points="346.09 332.14 351.94 338.58 382.9 338.58 388.75 332.14 346.09 332.14" style="fill: rgb(255, 255, 255); transform-origin: 367.42px 335.36px;" id="elngywx5bayb" class="animable"></polygon><polygon points="346.09 332.14 351.94 338.58 351.94 369.54 346.09 375.98 346.09 332.14" style="fill: rgb(255, 255, 255); transform-origin: 349.015px 354.06px;" id="eldqyy6vywehi" class="animable"></polygon><polygon points="388.75 375.98 382.9 369.54 382.9 338.58 388.75 332.14 388.75 375.98" style="fill: rgb(219, 219, 219); transform-origin: 385.825px 354.06px;" id="elsj527lwjkd9" class="animable"></polygon><g id="elhjhy8xcdsp5"><rect x="399.68" y="338.58" width="30.96" height="30.96" style="fill: rgb(235, 235, 235); transform-origin: 415.16px 354.06px; transform: rotate(180deg);" class="animable"></rect></g><polygon points="436.49 375.98 430.64 369.54 399.68 369.54 393.83 375.98 436.49 375.98" style="fill: rgb(219, 219, 219); transform-origin: 415.16px 372.76px;" id="el4y7rmb7mbqb" class="animable"></polygon><polygon points="393.83 332.14 399.68 338.58 430.64 338.58 436.49 332.14 393.83 332.14" style="fill: rgb(255, 255, 255); transform-origin: 415.16px 335.36px;" id="elxrdz3rm4nzn" class="animable"></polygon><polygon points="393.83 332.14 399.68 338.58 399.68 369.54 393.83 375.98 393.83 332.14" style="fill: rgb(255, 255, 255); transform-origin: 396.755px 354.06px;" id="els6wh4ruf6o" class="animable"></polygon><polygon points="436.49 375.98 430.64 369.54 430.64 338.58 436.49 332.14 436.49 375.98" style="fill: rgb(219, 219, 219); transform-origin: 433.565px 354.06px;" id="eln3z7j22gna" class="animable"></polygon><path d="M436.5,296.43h0v0Z" style="fill: rgb(166, 166, 166); transform-origin: 436.5px 296.43px;" id="eleizt93ioj48" class="animable"></path><g id="elf1sxp8w9y"><rect x="225.65" y="184.64" width="101.83" height="152.28" style="fill: rgb(199, 199, 199); transform-origin: 276.565px 260.78px; transform: rotate(19.3443deg);" class="animable"></rect></g><g id="elrxyglexzrm"><rect x="324.47" y="202.22" width="3.84" height="152.28" style="fill: rgb(166, 166, 166); transform-origin: 326.39px 278.36px; transform: rotate(-160.57deg);" class="animable"></rect></g><g id="elhmp54bdyr2h"><rect x="238.59" y="237.31" width="30.96" height="30.96" style="fill: rgb(235, 235, 235); transform-origin: 254.07px 252.79px; transform: rotate(-160.57deg);" class="animable"></rect></g><polygon points="266.89 280.56 263.52 272.54 234.32 262.24 226.66 266.37 266.89 280.56" style="fill: rgb(219, 219, 219); transform-origin: 246.775px 271.4px;" id="el3fitondtjd9" class="animable"></polygon><polygon points="241.25 225.02 244.62 233.04 273.82 243.34 281.48 239.21 241.25 225.02" style="fill: rgb(255, 255, 255); transform-origin: 261.365px 234.18px;" id="elxaauaqkkaj" class="animable"></polygon><polygon points="241.25 225.02 244.62 233.04 234.32 262.24 226.66 266.37 241.25 225.02" style="fill: rgb(255, 255, 255); transform-origin: 235.64px 245.695px;" id="elia8m9d0jq7" class="animable"></polygon><polygon points="266.89 280.56 263.52 272.54 273.82 243.34 281.48 239.21 266.89 280.56" style="fill: rgb(219, 219, 219); transform-origin: 272.5px 259.885px;" id="elr66rkylokbl" class="animable"></polygon><g id="elt7f0lgjai9e"><rect x="283.61" y="253.19" width="30.96" height="30.96" style="fill: rgb(235, 235, 235); transform-origin: 299.09px 268.67px; transform: rotate(-160.57deg);" class="animable"></rect></g><polygon points="311.91 296.44 308.54 288.42 279.34 278.12 271.68 282.25 311.91 296.44" style="fill: rgb(219, 219, 219); transform-origin: 291.795px 287.28px;" id="ele44cm91zeos" class="animable"></polygon><polygon points="286.26 240.9 289.64 248.93 318.83 259.22 326.5 255.09 286.26 240.9" style="fill: rgb(255, 255, 255); transform-origin: 306.38px 250.06px;" id="elr4rgg16m5ms" class="animable"></polygon><polygon points="286.26 240.9 289.64 248.93 279.34 278.12 271.68 282.25 286.26 240.9" style="fill: rgb(255, 255, 255); transform-origin: 280.66px 261.575px;" id="elwkju04iq1is" class="animable"></polygon><polygon points="311.91 296.44 308.54 288.42 318.83 259.22 326.5 255.09 311.91 296.44" style="fill: rgb(219, 219, 219); transform-origin: 317.52px 275.765px;" id="el5ixzeh7q58f" class="animable"></polygon><g id="el4lqj1cu8j05"><rect x="222.44" y="283.1" width="30.96" height="30.96" style="fill: rgb(235, 235, 235); transform-origin: 237.92px 298.58px; transform: rotate(-160.57deg);" class="animable"></rect></g><polygon points="250.74 326.35 247.37 318.32 218.17 308.03 210.51 312.16 250.74 326.35" style="fill: rgb(219, 219, 219); transform-origin: 230.625px 317.19px;" id="el0n6ywldzk26h" class="animable"></polygon><polygon points="225.09 270.81 228.47 278.83 257.67 289.13 265.33 285 225.09 270.81" style="fill: rgb(255, 255, 255); transform-origin: 245.21px 279.97px;" id="eli0tsjd0le3q" class="animable"></polygon><polygon points="225.09 270.81 228.47 278.83 218.17 308.03 210.51 312.16 225.09 270.81" style="fill: rgb(255, 255, 255); transform-origin: 219.49px 291.485px;" id="eltmprbczrfuh" class="animable"></polygon><polygon points="250.74 326.35 247.37 318.32 257.67 289.13 265.33 285 250.74 326.35" style="fill: rgb(219, 219, 219); transform-origin: 256.35px 305.675px;" id="el9r72dea5scn" class="animable"></polygon><g id="eldrzezhmoqsu"><rect x="267.46" y="298.98" width="30.96" height="30.96" style="fill: rgb(235, 235, 235); transform-origin: 282.94px 314.46px; transform: rotate(-160.57deg);" class="animable"></rect></g><polygon points="295.76 342.23 292.38 334.2 263.19 323.91 255.53 328.04 295.76 342.23" style="fill: rgb(219, 219, 219); transform-origin: 275.645px 333.07px;" id="el90mh6vzuya5" class="animable"></polygon><polygon points="270.11 286.69 273.49 294.71 302.68 305.01 310.34 300.88 270.11 286.69" style="fill: rgb(255, 255, 255); transform-origin: 290.225px 295.85px;" id="eltw9xexelcr" class="animable"></polygon><polygon points="270.11 286.69 273.49 294.71 263.19 323.91 255.53 328.04 270.11 286.69" style="fill: rgb(255, 255, 255); transform-origin: 264.51px 307.365px;" id="el6kechuplp4e" class="animable"></polygon><polygon points="295.76 342.23 292.38 334.2 302.68 305.01 310.34 300.88 295.76 342.23" style="fill: rgb(219, 219, 219); transform-origin: 301.36px 321.555px;" id="elz4pa95rrgz" class="animable"></polygon><g id="elgo863fgm9mt"><rect x="254.74" y="191.53" width="30.96" height="30.96" style="fill: rgb(235, 235, 235); transform-origin: 270.22px 207.01px; transform: rotate(-160.57deg);" class="animable"></rect></g><polygon points="283.04 234.78 279.67 226.75 250.47 216.45 242.81 220.59 283.04 234.78" style="fill: rgb(219, 219, 219); transform-origin: 262.925px 225.615px;" id="elqz9frc91uy9" class="animable"></polygon><polygon points="257.4 179.24 260.77 187.26 289.97 197.56 297.63 193.43 257.4 179.24" style="fill: rgb(255, 255, 255); transform-origin: 277.515px 188.4px;" id="elick70p8md6" class="animable"></polygon><polygon points="257.4 179.24 260.77 187.26 250.47 216.45 242.81 220.59 257.4 179.24" style="fill: rgb(255, 255, 255); transform-origin: 251.79px 199.915px;" id="elw7x3nmxn1yd" class="animable"></polygon><polygon points="283.04 234.78 279.67 226.75 289.97 197.56 297.63 193.43 283.04 234.78" style="fill: rgb(219, 219, 219); transform-origin: 288.65px 214.105px;" id="elzxvrtoexk4" class="animable"></polygon><g id="elf23vwiqq379"><rect x="299.76" y="207.41" width="30.96" height="30.96" style="fill: rgb(235, 235, 235); transform-origin: 315.24px 222.89px; transform: rotate(-160.57deg);" class="animable"></rect></g><polygon points="328.06 250.66 324.69 242.63 295.49 232.34 287.83 236.47 328.06 250.66" style="fill: rgb(219, 219, 219); transform-origin: 307.945px 241.5px;" id="el4q97t57g53c" class="animable"></polygon><polygon points="302.42 195.12 305.79 203.14 334.99 213.44 342.65 209.31 302.42 195.12" style="fill: rgb(255, 255, 255); transform-origin: 322.535px 204.28px;" id="elfn3rxoq9ftn" class="animable"></polygon><polygon points="302.42 195.12 305.79 203.14 295.49 232.34 287.83 236.47 302.42 195.12" style="fill: rgb(255, 255, 255); transform-origin: 296.81px 215.795px;" id="el8yokyo55n74" class="animable"></polygon><polygon points="328.06 250.66 324.69 242.63 334.99 213.44 342.65 209.31 328.06 250.66" style="fill: rgb(219, 219, 219); transform-origin: 333.67px 229.985px;" id="elv3xz5x1xqe" class="animable"></polygon><g id="elsvomdfadh4"><rect x="416.67" y="160.6" width="30.96" height="30.96" style="fill: rgb(219, 219, 219); transform-origin: 432.15px 176.08px; transform: rotate(166.54deg);" class="animable"></rect></g><polygon points="458 192.44 450.81 187.53 420.7 194.74 416.51 202.37 458 192.44" style="fill: rgb(199, 199, 199); transform-origin: 437.255px 194.95px;" id="eljld0rnya47" class="animable"></polygon><polygon points="406.3 159.73 413.49 164.63 443.6 157.43 447.79 149.8 406.3 159.73" style="fill: rgb(235, 235, 235); transform-origin: 427.045px 157.215px;" id="eldmengzxrzy8" class="animable"></polygon><polygon points="406.3 159.73 413.49 164.63 420.7 194.74 416.51 202.37 406.3 159.73" style="fill: rgb(235, 235, 235); transform-origin: 413.5px 181.05px;" id="elzddcj92cyo" class="animable"></polygon><polygon points="458 192.44 450.81 187.53 443.6 157.43 447.79 149.8 458 192.44" style="fill: rgb(199, 199, 199); transform-origin: 450.8px 171.12px;" id="eluxvkfvtzd4" class="animable"></polygon><g id="elxrkxtgzgpsk"><rect x="393.25" y="221.12" width="30.96" height="30.96" style="fill: rgb(219, 219, 219); transform-origin: 408.73px 236.6px; transform: rotate(-161.02deg);" class="animable"></rect></g><polygon points="421.77 264.27 418.33 256.27 389.06 246.2 381.43 250.39 421.77 264.27" style="fill: rgb(199, 199, 199); transform-origin: 401.6px 255.235px;" id="elzgooqaotbh" class="animable"></polygon><polygon points="395.69 208.93 399.13 216.93 428.4 227 436.03 222.81 395.69 208.93" style="fill: rgb(235, 235, 235); transform-origin: 415.86px 217.965px;" id="el1aq23njnc3e" class="animable"></polygon><polygon points="395.69 208.93 399.13 216.93 389.06 246.2 381.43 250.39 395.69 208.93" style="fill: rgb(235, 235, 235); transform-origin: 390.28px 229.66px;" id="eltmfyojf67z" class="animable"></polygon><polygon points="421.77 264.27 418.33 256.27 428.4 227 436.03 222.81 421.77 264.27" style="fill: rgb(199, 199, 199); transform-origin: 427.18px 243.54px;" id="elofg4emfuwn" class="animable"></polygon></g><g id="freepik--Shadow--inject-35" class="animable animator-hidden" style="transform-origin: 249.79px 435.74px;"><ellipse cx="249.79" cy="435.74" rx="201.75" ry="22.53" style="fill: rgb(235, 235, 235); transform-origin: 249.79px 435.74px;" id="elnjsom8ik6rr" class="animable"></ellipse></g><g id="freepik--Text--inject-35" class="animable animator-hidden" style="transform-origin: 324.56px 113.745px;"><path d="M194.24,63.16,203.83,86l6.82-16.14a1.07,1.07,0,0,1,.88-.57,1.09,1.09,0,0,1,1,.57L219.27,86l9.59-22.81a.94.94,0,0,1,1.26-.46.91.91,0,0,1,.46,1.23L220.15,88.69a1,1,0,0,1-.76.61h-.19a.69.69,0,0,1-.46-.15s-.12-.08-.16-.15a1.53,1.53,0,0,1-.15-.23.15.15,0,0,0,0-.12l-6.82-16.21-6.86,16.21a.26.26,0,0,1-.08.19.6.6,0,0,1-.19.27.14.14,0,0,0-.08,0,.82.82,0,0,1-.53.15.92.92,0,0,1-.58-.19l-.08-.07,0,0a1,1,0,0,1-.23-.46L192.56,63.93A.91.91,0,0,1,193,62.7.9.9,0,0,1,194.24,63.16Z" style="fill: rgb(255, 199, 39); transform-origin: 211.568px 75.9515px;" id="eljmpdif2e9u" class="animable"></path><path d="M246.68,62.09c7.17,0,12.8,6.09,12.84,13.61s-5.67,13.6-12.84,13.6-12.92-6.09-13-13.6S239.43,62.09,246.68,62.09Zm0,25.34c5.9,0,10.89-5.18,10.92-11.73s-5-11.7-10.92-11.7c-6.1,0-11.08,5.06-11.08,11.7S240.58,87.43,246.68,87.43Z" style="fill: rgb(255, 199, 39); transform-origin: 246.6px 75.695px;" id="el76m2g38r1fs" class="animable"></path><path d="M280.83,83.25a4.85,4.85,0,0,0-2.18-4.07,8.7,8.7,0,0,0-3.11-1.34.94.94,0,0,0-.19-.07h-6.52V88.38a.94.94,0,0,1-1.87,0v-25a1,1,0,0,1,.84-.92h7.67a7.67,7.67,0,0,1,3.21,14.61c.12.07.23.11.39.19a6.78,6.78,0,0,1,3.6,6,10.25,10.25,0,0,0,.35,3.1,1.3,1.3,0,0,0,.38.65.95.95,0,0,1,.42,1.84,3.91,3.91,0,0,1-.46,0h-.08a2.14,2.14,0,0,1-1.72-1.22A9.52,9.52,0,0,1,280.83,83.25Zm-5.36-18.9h-6.64V75.93h6.79a5.79,5.79,0,0,0-.15-11.58Z" style="fill: rgb(255, 199, 39); transform-origin: 275.707px 75.8416px;" id="el9i419relxdp" class="animable"></path><path d="M292.45,89.3h-.08a.93.93,0,0,1-.92-.92v-25a.94.94,0,0,1,1.88,0v24h12.84a.94.94,0,1,1,0,1.87Z" style="fill: rgb(255, 199, 39); transform-origin: 299.328px 75.87px;" id="elxj5zvghumu" class="animable"></path><path d="M314,89.3h-.15a.91.91,0,0,1-.84-.92v-25a.93.93,0,0,1,.92-.92h5a13.42,13.42,0,1,1,0,26.83Zm5-1.87a11.54,11.54,0,1,0,0-23.08h-4.06V87.43Z" style="fill: rgb(255, 199, 39); transform-origin: 322.863px 75.8775px;" id="elmp7gy111yab" class="animable"></path><g id="elqsrmm78eo5a"><g style="opacity: 0.85; transform-origin: 262.591px 75.6953px;" class="animable"><path d="M194.24,63.16,203.83,86l6.82-16.14a1.07,1.07,0,0,1,.88-.57,1.09,1.09,0,0,1,1,.57L219.27,86l9.59-22.81a.94.94,0,0,1,1.26-.46.91.91,0,0,1,.46,1.23L220.15,88.69a1,1,0,0,1-.76.61h-.19a.69.69,0,0,1-.46-.15s-.12-.08-.16-.15a1.53,1.53,0,0,1-.15-.23.15.15,0,0,0,0-.12l-6.82-16.21-6.86,16.21a.26.26,0,0,1-.08.19.6.6,0,0,1-.19.27.14.14,0,0,0-.08,0,.82.82,0,0,1-.53.15.92.92,0,0,1-.58-.19l-.08-.07,0,0a1,1,0,0,1-.23-.46L192.56,63.93A.91.91,0,0,1,193,62.7.9.9,0,0,1,194.24,63.16Z" id="elvgqdaph42ns" class="animable" style="transform-origin: 211.568px 75.9515px;"></path><path d="M246.68,62.09c7.17,0,12.8,6.09,12.84,13.61s-5.67,13.6-12.84,13.6-12.92-6.09-13-13.6S239.43,62.09,246.68,62.09Zm0,25.34c5.9,0,10.89-5.18,10.92-11.73s-5-11.7-10.92-11.7c-6.1,0-11.08,5.06-11.08,11.7S240.58,87.43,246.68,87.43Z" id="elaj9rtqllxi8" class="animable" style="transform-origin: 246.6px 75.695px;"></path><path d="M280.83,83.25a4.85,4.85,0,0,0-2.18-4.07,8.7,8.7,0,0,0-3.11-1.34.94.94,0,0,0-.19-.07h-6.52V88.38a.94.94,0,0,1-1.87,0v-25a1,1,0,0,1,.84-.92h7.67a7.67,7.67,0,0,1,3.21,14.61c.12.07.23.11.39.19a6.78,6.78,0,0,1,3.6,6,10.25,10.25,0,0,0,.35,3.1,1.3,1.3,0,0,0,.38.65.95.95,0,0,1,.42,1.84,3.91,3.91,0,0,1-.46,0h-.08a2.14,2.14,0,0,1-1.72-1.22A9.52,9.52,0,0,1,280.83,83.25Zm-5.36-18.9h-6.64V75.93h6.79a5.79,5.79,0,0,0-.15-11.58Z" id="el8ct8fwekqs" class="animable" style="transform-origin: 275.707px 75.8416px;"></path><path d="M292.45,89.3h-.08a.93.93,0,0,1-.92-.92v-25a.94.94,0,0,1,1.88,0v24h12.84a.94.94,0,1,1,0,1.87Z" id="eljh765pwqxf" class="animable" style="transform-origin: 299.328px 75.87px;"></path><path d="M314,89.3h-.15a.91.91,0,0,1-.84-.92v-25a.93.93,0,0,1,.92-.92h5a13.42,13.42,0,1,1,0,26.83Zm5-1.87a11.54,11.54,0,1,0,0-23.08h-4.06V87.43Z" id="elq7c23wud3xt" class="animable" style="transform-origin: 322.863px 75.8775px;"></path></g></g><path d="M217.21,113.55a14.07,14.07,0,0,1,14.07-13.8,14.31,14.31,0,0,1,8.85,3,2.2,2.2,0,0,1-2.68,3.49,9.53,9.53,0,0,0-6.17-2.11,10.18,10.18,0,0,0-6.9,2.76,9.48,9.48,0,0,0-2.8,6.67,9.34,9.34,0,0,0,2.8,6.67,10.14,10.14,0,0,0,6.9,2.76,9.61,9.61,0,0,0,6.17-2.11,2.33,2.33,0,0,1,3.07.42,2.26,2.26,0,0,1-.39,3.07,14.31,14.31,0,0,1-8.85,3A14,14,0,0,1,217.21,113.55Z" style="fill: rgb(255, 199, 39); transform-origin: 229.099px 113.56px;" id="elylzkunxpmtf" class="animable"></path><path d="M248,125.24V102.63a2.08,2.08,0,0,1,2.11-2.11,2.11,2.11,0,0,1,2.15,2.11v9.2h9.93v-9.2a2.08,2.08,0,0,1,2.1-2.11,2.11,2.11,0,0,1,2.15,2.11v22.61a2.11,2.11,0,0,1-2.15,2.11,2.08,2.08,0,0,1-2.1-2.11V116h-9.93v9.2a2.11,2.11,0,0,1-2.15,2.11A2.08,2.08,0,0,1,248,125.24Z" style="fill: rgb(255, 199, 39); transform-origin: 257.22px 113.935px;" id="elxb7o8z9plr" class="animable"></path><path d="M295.14,103.85a14.09,14.09,0,0,1,0,19.4,12.55,12.55,0,0,1-9.16,4.1,12.94,12.94,0,0,1-9.39-4.1,14.28,14.28,0,0,1,0-19.4,12.79,12.79,0,0,1,9.39-4.1A12.4,12.4,0,0,1,295.14,103.85Zm-.5,9.7a9.94,9.94,0,0,0-2.6-6.71,8.28,8.28,0,0,0-12.27,0,9.76,9.76,0,0,0-2.61,6.71,9.59,9.59,0,0,0,2.61,6.67,8.2,8.2,0,0,0,12.27,0A9.76,9.76,0,0,0,294.64,113.55Z" style="fill: rgb(255, 199, 39); transform-origin: 285.9px 113.55px;" id="elo5hhag40wwb" class="animable"></path><path d="M304.22,113.55a14.08,14.08,0,0,1,14.07-13.8,14.36,14.36,0,0,1,8.86,3,2.27,2.27,0,0,1,.38,3.07,2.25,2.25,0,0,1-3.07.42,9.53,9.53,0,0,0-6.17-2.11,10.18,10.18,0,0,0-6.9,2.76,9.48,9.48,0,0,0-2.8,6.67,9.34,9.34,0,0,0,2.8,6.67,10.14,10.14,0,0,0,6.9,2.76,9.61,9.61,0,0,0,6.17-2.11,2.33,2.33,0,0,1,3.07.42,2.27,2.27,0,0,1-.38,3.07,14.36,14.36,0,0,1-8.86,3A14,14,0,0,1,304.22,113.55Z" style="fill: rgb(255, 199, 39); transform-origin: 316.091px 113.56px;" id="elao9b3aqymyd" class="animable"></path><path d="M355.36,103.85a14.09,14.09,0,0,1,0,19.4,12.58,12.58,0,0,1-9.16,4.1,13,13,0,0,1-9.4-4.1,14.31,14.31,0,0,1,0-19.4,12.81,12.81,0,0,1,9.4-4.1A12.43,12.43,0,0,1,355.36,103.85Zm-.5,9.7a10,10,0,0,0-2.61-6.71,8.27,8.27,0,0,0-6.05-2.72,8.35,8.35,0,0,0-6.21,2.72,9.76,9.76,0,0,0-2.61,6.71,9.59,9.59,0,0,0,2.61,6.67,8.19,8.19,0,0,0,12.26,0A9.77,9.77,0,0,0,354.86,113.55Z" style="fill: rgb(255, 199, 39); transform-origin: 346.121px 113.55px;" id="elv4ppfdyvceq" class="animable"></path><path d="M366.59,125.24V102.63a2.1,2.1,0,0,1,2.11-2.11,2.14,2.14,0,0,1,2.14,2.11V123.1h10.39a2.13,2.13,0,0,1,0,4.25H368.7A2.1,2.1,0,0,1,366.59,125.24Z" style="fill: rgb(255, 199, 39); transform-origin: 374.902px 113.935px;" id="el5apkb11uvyo" class="animable"></path><path d="M401.85,121h-9.31l-1.88,5a2.16,2.16,0,0,1-2,1.34,2.43,2.43,0,0,1-.73-.11,2.19,2.19,0,0,1-1.27-2.76l8.47-22.58a2.15,2.15,0,0,1,2-1.34,2.12,2.12,0,0,1,2,1.34l8.47,22.58a2.19,2.19,0,0,1-1.27,2.76,2.24,2.24,0,0,1-.73.11,2.07,2.07,0,0,1-1.95-1.34Zm-1.57-4.22-3.11-8.24-3.1,8.24Z" style="fill: rgb(255, 199, 39); transform-origin: 397.13px 113.945px;" id="el01cfcz6r27u4" class="animable"></path><path d="M425.5,104.77h-6.09v20.47a2.08,2.08,0,0,1-2.11,2.11,2.1,2.1,0,0,1-2.11-2.11V104.77h-6.05a2.13,2.13,0,0,1-2.11-2.14,2.08,2.08,0,0,1,2.11-2.11H425.5a2.1,2.1,0,0,1,2.11,2.11A2.16,2.16,0,0,1,425.5,104.77Z" style="fill: rgb(255, 199, 39); transform-origin: 417.32px 113.935px;" id="el5amdfqf0m5" class="animable"></path><path d="M433.93,125.24V102.63a2.08,2.08,0,0,1,2.11-2.11h12.54a2.12,2.12,0,0,1,2.1,2.11,2.15,2.15,0,0,1-2.1,2.14H438.19v7h8.93a2.13,2.13,0,0,1,0,4.25h-8.93v7.06h10.39a2.13,2.13,0,0,1,0,4.25H436.16c-.08,0-.08,0-.08,0l0,0A2.1,2.1,0,0,1,433.93,125.24Z" style="fill: rgb(255, 199, 39); transform-origin: 442.305px 113.925px;" id="eltx9505bvz3p" class="animable"></path><g id="el3zkwieb447a"><g style="opacity: 0.65; transform-origin: 333.945px 113.56px;" class="animable"><path d="M217.21,113.55a14.07,14.07,0,0,1,14.07-13.8,14.31,14.31,0,0,1,8.85,3,2.2,2.2,0,0,1-2.68,3.49,9.53,9.53,0,0,0-6.17-2.11,10.18,10.18,0,0,0-6.9,2.76,9.48,9.48,0,0,0-2.8,6.67,9.34,9.34,0,0,0,2.8,6.67,10.14,10.14,0,0,0,6.9,2.76,9.61,9.61,0,0,0,6.17-2.11,2.33,2.33,0,0,1,3.07.42,2.26,2.26,0,0,1-.39,3.07,14.31,14.31,0,0,1-8.85,3A14,14,0,0,1,217.21,113.55Z" id="eltuojbcecaes" class="animable" style="transform-origin: 229.099px 113.56px;"></path><path d="M248,125.24V102.63a2.08,2.08,0,0,1,2.11-2.11,2.11,2.11,0,0,1,2.15,2.11v9.2h9.93v-9.2a2.08,2.08,0,0,1,2.1-2.11,2.11,2.11,0,0,1,2.15,2.11v22.61a2.11,2.11,0,0,1-2.15,2.11,2.08,2.08,0,0,1-2.1-2.11V116h-9.93v9.2a2.11,2.11,0,0,1-2.15,2.11A2.08,2.08,0,0,1,248,125.24Z" id="elcs1vzienw1a" class="animable" style="transform-origin: 257.22px 113.935px;"></path><path d="M295.14,103.85a14.09,14.09,0,0,1,0,19.4,12.55,12.55,0,0,1-9.16,4.1,12.94,12.94,0,0,1-9.39-4.1,14.28,14.28,0,0,1,0-19.4,12.79,12.79,0,0,1,9.39-4.1A12.4,12.4,0,0,1,295.14,103.85Zm-.5,9.7a9.94,9.94,0,0,0-2.6-6.71,8.28,8.28,0,0,0-12.27,0,9.76,9.76,0,0,0-2.61,6.71,9.59,9.59,0,0,0,2.61,6.67,8.2,8.2,0,0,0,12.27,0A9.76,9.76,0,0,0,294.64,113.55Z" id="elukfi76f5xc" class="animable" style="transform-origin: 285.9px 113.55px;"></path><path d="M304.22,113.55a14.08,14.08,0,0,1,14.07-13.8,14.36,14.36,0,0,1,8.86,3,2.27,2.27,0,0,1,.38,3.07,2.25,2.25,0,0,1-3.07.42,9.53,9.53,0,0,0-6.17-2.11,10.18,10.18,0,0,0-6.9,2.76,9.48,9.48,0,0,0-2.8,6.67,9.34,9.34,0,0,0,2.8,6.67,10.14,10.14,0,0,0,6.9,2.76,9.61,9.61,0,0,0,6.17-2.11,2.33,2.33,0,0,1,3.07.42,2.27,2.27,0,0,1-.38,3.07,14.36,14.36,0,0,1-8.86,3A14,14,0,0,1,304.22,113.55Z" id="elf1g7u3dz3de" class="animable" style="transform-origin: 316.091px 113.56px;"></path><path d="M355.36,103.85a14.09,14.09,0,0,1,0,19.4,12.58,12.58,0,0,1-9.16,4.1,13,13,0,0,1-9.4-4.1,14.31,14.31,0,0,1,0-19.4,12.81,12.81,0,0,1,9.4-4.1A12.43,12.43,0,0,1,355.36,103.85Zm-.5,9.7a10,10,0,0,0-2.61-6.71,8.27,8.27,0,0,0-6.05-2.72,8.35,8.35,0,0,0-6.21,2.72,9.76,9.76,0,0,0-2.61,6.71,9.59,9.59,0,0,0,2.61,6.67,8.19,8.19,0,0,0,12.26,0A9.77,9.77,0,0,0,354.86,113.55Z" id="el6cg5ur17t7p" class="animable" style="transform-origin: 346.121px 113.55px;"></path><path d="M366.59,125.24V102.63a2.1,2.1,0,0,1,2.11-2.11,2.14,2.14,0,0,1,2.14,2.11V123.1h10.39a2.13,2.13,0,0,1,0,4.25H368.7A2.1,2.1,0,0,1,366.59,125.24Z" id="elyj8im33er8" class="animable" style="transform-origin: 374.902px 113.935px;"></path><path d="M401.85,121h-9.31l-1.88,5a2.16,2.16,0,0,1-2,1.34,2.43,2.43,0,0,1-.73-.11,2.19,2.19,0,0,1-1.27-2.76l8.47-22.58a2.15,2.15,0,0,1,2-1.34,2.12,2.12,0,0,1,2,1.34l8.47,22.58a2.19,2.19,0,0,1-1.27,2.76,2.24,2.24,0,0,1-.73.11,2.07,2.07,0,0,1-1.95-1.34Zm-1.57-4.22-3.11-8.24-3.1,8.24Z" id="el9n7xnwgmu85" class="animable" style="transform-origin: 397.13px 113.945px;"></path><path d="M425.5,104.77h-6.09v20.47a2.08,2.08,0,0,1-2.11,2.11,2.1,2.1,0,0,1-2.11-2.11V104.77h-6.05a2.13,2.13,0,0,1-2.11-2.14,2.08,2.08,0,0,1,2.11-2.11H425.5a2.1,2.1,0,0,1,2.11,2.11A2.16,2.16,0,0,1,425.5,104.77Z" id="elu1f0ezsqsz9" class="animable" style="transform-origin: 417.32px 113.935px;"></path><path d="M433.93,125.24V102.63a2.08,2.08,0,0,1,2.11-2.11h12.54a2.12,2.12,0,0,1,2.1,2.11,2.15,2.15,0,0,1-2.1,2.14H438.19v7h8.93a2.13,2.13,0,0,1,0,4.25h-8.93v7.06h10.39a2.13,2.13,0,0,1,0,4.25H436.16c-.08,0-.08,0-.08,0l0,0A2.1,2.1,0,0,1,433.93,125.24Z" id="elc9st5aeu8mt" class="animable" style="transform-origin: 442.305px 113.925px;"></path></g></g><path d="M243.79,165.4h-.16a.92.92,0,0,1-.84-.92v-25a.93.93,0,0,1,.92-.92h5a13.42,13.42,0,1,1,0,26.83Zm4.94-1.88a11.54,11.54,0,1,0,0-23.08h-4.06v23.08Z" style="fill: rgb(255, 199, 39); transform-origin: 252.643px 151.978px;" id="elx3y06jlvyii" class="animable"></path><path d="M282.54,158.46H270.31l-2.37,6.33a1,1,0,0,1-.89.61c-.07,0-.23,0-.34,0a1,1,0,0,1-.54-1.23l9.32-24.87a1,1,0,0,1,.92-.58,1,1,0,0,1,.92.58l9.31,24.87a1,1,0,0,1-.5,1.23c-.15,0-.23,0-.34,0a1,1,0,0,1-.88-.61ZM271,156.58h10.85l-5.41-14.41Z" style="fill: rgb(255, 199, 39); transform-origin: 276.408px 152.06px;" id="elye0ppeeuark" class="animable"></path><path d="M297.11,152.52l-9-12.31a1,1,0,0,1,.19-1.3.88.88,0,0,1,1.3.16L298,150.6l8.43-11.53a.88.88,0,0,1,1.3-.16.91.91,0,0,1,.2,1.3l-9,12.23v12a.91.91,0,0,1-.92.92.93.93,0,0,1-.92-.92Z" style="fill: rgb(255, 199, 39); transform-origin: 298.035px 152.027px;" id="elc0nk2xj1dtg" class="animable"></path><path d="M243.79,165.4h-.16a.92.92,0,0,1-.84-.92v-25a.93.93,0,0,1,.92-.92h5a13.42,13.42,0,1,1,0,26.83Zm4.94-1.88a11.54,11.54,0,1,0,0-23.08h-4.06v23.08Z" id="elwef1n48rty" class="animable" style="transform-origin: 252.643px 151.978px;"></path><path d="M282.54,158.46H270.31l-2.37,6.33a1,1,0,0,1-.89.61c-.07,0-.23,0-.34,0a1,1,0,0,1-.54-1.23l9.32-24.87a1,1,0,0,1,.92-.58,1,1,0,0,1,.92.58l9.31,24.87a1,1,0,0,1-.5,1.23c-.15,0-.23,0-.34,0a1,1,0,0,1-.88-.61ZM271,156.58h10.85l-5.41-14.41Z" id="elbwj168xtz1" class="animable" style="transform-origin: 276.408px 152.06px;"></path><path d="M297.11,152.52l-9-12.31a1,1,0,0,1,.19-1.3.88.88,0,0,1,1.3.16L298,150.6l8.43-11.53a.88.88,0,0,1,1.3-.16.91.91,0,0,1,.2,1.3l-9,12.23v12a.91.91,0,0,1-.92.92.93.93,0,0,1-.92-.92Z" id="elkywy41c0udp" class="animable" style="transform-origin: 298.035px 152.027px;"></path><path d="M399.24,80.89a5.17,5.17,0,1,1-5.17-5.17A5.17,5.17,0,0,1,399.24,80.89Z" style="fill: rgb(255, 199, 39); transform-origin: 394.07px 80.89px;" id="elul01zfyn63" class="animable"></path><g id="elua0yuehc7il"><path d="M399.24,80.89a5.17,5.17,0,1,1-5.17-5.17A5.17,5.17,0,0,1,399.24,80.89Z" style="opacity: 0.65; transform-origin: 394.07px 80.89px;" class="animable"></path></g><path d="M200.64,102a5.18,5.18,0,1,1-5.17-5.17A5.18,5.18,0,0,1,200.64,102Z" style="fill: rgb(255, 199, 39); transform-origin: 195.46px 102.01px;" id="el3tx5f3egjs4" class="animable"></path><g id="elomj7ck1n96r"><path d="M200.64,102a5.18,5.18,0,1,1-5.17-5.17A5.18,5.18,0,0,1,200.64,102Z" style="opacity: 0.65; transform-origin: 195.46px 102.01px;" class="animable"></path></g><path d="M344.63,138.69a5.17,5.17,0,1,1-5.17-5.17A5.17,5.17,0,0,1,344.63,138.69Z" style="fill: rgb(255, 199, 39); transform-origin: 339.46px 138.69px;" id="elvzp650zs1k" class="animable"></path><g id="elmghmk2tknt"><path d="M344.63,138.69a5.17,5.17,0,1,1-5.17-5.17A5.17,5.17,0,0,1,344.63,138.69Z" style="opacity: 0.65; transform-origin: 339.46px 138.69px;" class="animable"></path></g><path d="M381.29,92.8a2.49,2.49,0,1,1-2.49-2.48A2.49,2.49,0,0,1,381.29,92.8Z" style="fill: rgb(255, 199, 39); transform-origin: 378.8px 92.81px;" id="elws7x2tb4mlr" class="animable"></path><g id="el9x2ozf9mra"><path d="M381.29,92.8a2.49,2.49,0,1,1-2.49-2.48A2.49,2.49,0,0,1,381.29,92.8Z" style="opacity: 0.65; transform-origin: 378.8px 92.81px;" class="animable"></path></g><path d="M325.19,133.52a2.49,2.49,0,1,1-2.48-2.48A2.49,2.49,0,0,1,325.19,133.52Z" style="fill: rgb(255, 199, 39); transform-origin: 322.7px 133.53px;" id="elnknc3kxyu8o" class="animable"></path><g id="elbzkzebnox5f"><path d="M325.19,133.52a2.49,2.49,0,1,1-2.48-2.48A2.49,2.49,0,0,1,325.19,133.52Z" style="opacity: 0.65; transform-origin: 322.7px 133.53px;" class="animable"></path></g><circle cx="214.35" cy="99.75" r="2.48" style="fill: rgb(255, 199, 39); transform-origin: 214.35px 99.75px;" id="el55azflkf6sh" class="animable"></circle><g id="elpq7yft668p"><circle cx="214.35" cy="99.75" r="2.48" style="opacity: 0.65; transform-origin: 214.35px 99.75px;" class="animable"></circle></g><circle cx="427.96" cy="132.86" r="2.48" style="fill: rgb(255, 199, 39); transform-origin: 427.96px 132.86px;" id="els5jxes54irp" class="animable"></circle><g id="el63pxmzg4a6f"><circle cx="427.96" cy="132.86" r="2.48" style="opacity: 0.65; transform-origin: 427.96px 132.86px;" class="animable"></circle></g><path d="M458.84,108.57a1.4,1.4,0,1,1-1.4-1.4A1.4,1.4,0,0,1,458.84,108.57Z" style="fill: rgb(255, 199, 39); transform-origin: 457.44px 108.57px;" id="elso48wopz7eo" class="animable"></path><g id="elwethz877u6f"><path d="M458.84,108.57a1.4,1.4,0,1,1-1.4-1.4A1.4,1.4,0,0,1,458.84,108.57Z" style="opacity: 0.65; transform-origin: 457.44px 108.57px;" class="animable"></path></g><path d="M304.91,98.35a1.4,1.4,0,1,1-1.4-1.4A1.4,1.4,0,0,1,304.91,98.35Z" style="fill: rgb(255, 199, 39); transform-origin: 303.51px 98.35px;" id="el2wg5pxuz30u" class="animable"></path><g id="eliytgsanuwmp"><path d="M304.91,98.35a1.4,1.4,0,1,1-1.4-1.4A1.4,1.4,0,0,1,304.91,98.35Z" style="opacity: 0.65; transform-origin: 303.51px 98.35px;" class="animable"></path></g><path d="M235.12,135.35a1.4,1.4,0,1,1-1.4-1.4A1.4,1.4,0,0,1,235.12,135.35Z" style="fill: rgb(255, 199, 39); transform-origin: 233.72px 135.35px;" id="elj0u79jdo8x" class="animable"></path><g id="elt6v51g8b2l"><path d="M235.12,135.35a1.4,1.4,0,1,1-1.4-1.4A1.4,1.4,0,0,1,235.12,135.35Z" style="opacity: 0.65; transform-origin: 233.72px 135.35px;" class="animable"></path></g></g><g id="freepik--Floor--inject-35" class="animable" style="transform-origin: 250px 381.7px;"><polygon points="41.16 381.7 93.37 381.46 145.58 381.37 250 381.2 354.42 381.37 406.63 381.45 458.84 381.7 406.63 381.94 354.42 382.03 250 382.2 145.58 382.03 93.37 381.94 41.16 381.7" style="fill: rgb(38, 50, 56); transform-origin: 250px 381.7px;" id="elpstqw3evlt" class="animable"></polygon></g><g id="freepik--chocolate-bar--inject-35" class="animable" style="transform-origin: 145.415px 240.465px;"><path d="M226.12,141.61l6,8.29V418.81H58.71V62.09h118a8.53,8.53,0,0,0-2.28,7.4,8.42,8.42,0,0,0,3.13,5.23,12.14,12.14,0,0,0-5,12.1,12,12,0,0,0,7.11,9,15.64,15.64,0,0,0-6.3,15.43,15.25,15.25,0,0,0,17.63,12.56,14.08,14.08,0,0,0,2.53-.69,12.29,12.29,0,0,0,3.32,13.34,11.66,11.66,0,0,0,9.83,2.77,11.83,11.83,0,0,0,5.29-2.41c0,.14,0,.29,0,.43a8.47,8.47,0,0,0,1.84,4A8.26,8.26,0,0,0,218,144a8,8,0,0,0,3.51.15A8.13,8.13,0,0,0,226.12,141.61Z" style="fill: rgb(255, 199, 39); transform-origin: 145.415px 240.45px;" id="el37gu2gm7mm9" class="animable"></path><g id="eluvdk85dijj"><path d="M226.12,141.61l6,8.29V418.81H58.71V62.09h118a8.53,8.53,0,0,0-2.28,7.4,8.42,8.42,0,0,0,3.13,5.23,12.14,12.14,0,0,0-5,12.1,12,12,0,0,0,7.11,9,15.64,15.64,0,0,0-6.3,15.43,15.25,15.25,0,0,0,17.63,12.56,14.08,14.08,0,0,0,2.53-.69,12.29,12.29,0,0,0,3.32,13.34,11.66,11.66,0,0,0,9.83,2.77,11.83,11.83,0,0,0,5.29-2.41c0,.14,0,.29,0,.43a8.47,8.47,0,0,0,1.84,4A8.26,8.26,0,0,0,218,144a8,8,0,0,0,3.51.15A8.13,8.13,0,0,0,226.12,141.61Z" style="opacity: 0.85; transform-origin: 145.415px 240.45px;" class="animable"></path></g><path d="M226.12,147.84v271H58.71V62.09H171.83a9.09,9.09,0,0,0,.93,13.62A13,13,0,0,0,175,98.5,16.72,16.72,0,0,0,190.25,128a13,13,0,0,0,20.25,14.77l.06.46a9,9,0,0,0,2,4.29,9.18,9.18,0,0,0,4.66,2.93,9,9,0,0,0,8.89-2.56Z" style="fill: rgb(255, 199, 39); transform-origin: 142.415px 240.465px;" id="elwkdr4ycvulh" class="animable"></path><g id="elu08ezo1y6lj"><path d="M226.12,147.84v271H58.71V62.09H171.83a9.09,9.09,0,0,0,.93,13.62A13,13,0,0,0,175,98.5,16.72,16.72,0,0,0,190.25,128a13,13,0,0,0,20.25,14.77l.06.46a9,9,0,0,0,2,4.29,9.18,9.18,0,0,0,4.66,2.93,9,9,0,0,0,8.89-2.56Z" style="opacity: 0.79; transform-origin: 142.415px 240.465px;" class="animable"></path></g><g id="elvkpzqrbimbc"><rect x="121.09" y="72.41" width="42.66" height="56.42" style="fill: rgb(255, 199, 39); transform-origin: 142.42px 100.62px; transform: rotate(180deg);" class="animable"></rect></g><g id="elf3t064dz2g"><rect x="126.94" y="78.85" width="30.96" height="43.54" style="opacity: 0.65; transform-origin: 142.42px 100.62px; transform: rotate(180deg);" class="animable"></rect></g><g id="els3cfddfw3c"><polygon points="163.75 128.83 157.9 122.39 126.94 122.39 121.09 128.83 163.75 128.83" style="opacity: 0.75; transform-origin: 142.42px 125.61px;" class="animable"></polygon></g><g id="eleoftdzjue77"><polygon points="121.09 72.41 126.94 78.85 157.9 78.85 163.75 72.41 121.09 72.41" style="opacity: 0.6; transform-origin: 142.42px 75.63px;" class="animable"></polygon></g><g id="el24yt8agt7cl"><polygon points="121.09 72.41 126.94 78.85 126.94 122.39 121.09 128.83 121.09 72.41" style="opacity: 0.6; transform-origin: 124.015px 100.62px;" class="animable"></polygon></g><g id="el0wcmd3dqkpq"><polygon points="163.75 128.83 157.9 122.39 157.9 78.85 163.75 72.41 163.75 128.83" style="opacity: 0.75; transform-origin: 160.825px 100.62px;" class="animable"></polygon></g><g id="els5g04qu3jkr"><rect x="67.6" y="72.41" width="42.66" height="56.42" style="fill: rgb(255, 199, 39); transform-origin: 88.93px 100.62px; transform: rotate(180deg);" class="animable"></rect></g><g id="elt3rwk9xumho"><rect x="73.45" y="78.85" width="30.96" height="43.54" style="opacity: 0.65; transform-origin: 88.93px 100.62px; transform: rotate(180deg);" class="animable"></rect></g><g id="el6rn8dwmlybt"><polygon points="110.26 128.83 104.41 122.39 73.45 122.39 67.6 128.83 110.26 128.83" style="opacity: 0.75; transform-origin: 88.93px 125.61px;" class="animable"></polygon></g><g id="elb4y5f0dzvaa"><polygon points="67.6 72.41 73.45 78.85 104.41 78.85 110.26 72.41 67.6 72.41" style="opacity: 0.6; transform-origin: 88.93px 75.63px;" class="animable"></polygon></g><g id="elsio6no0chv"><polygon points="67.6 72.41 73.45 78.85 73.45 122.39 67.6 128.83 67.6 72.41" style="opacity: 0.6; transform-origin: 70.525px 100.62px;" class="animable"></polygon></g><g id="elqu6dj908aw"><polygon points="110.26 128.83 104.41 122.39 104.41 78.85 110.26 72.41 110.26 128.83" style="opacity: 0.75; transform-origin: 107.335px 100.62px;" class="animable"></polygon></g><path d="M217.23,150.4v48.34H174.57V142.33H193.9a13,13,0,0,0,16.6.39l.06.46a9,9,0,0,0,2,4.29A9.18,9.18,0,0,0,217.23,150.4Z" style="fill: rgb(255, 199, 39); transform-origin: 195.9px 170.535px;" id="elkc8qio4432" class="animable"></path><g id="el124sz1pl7tze"><rect x="180.42" y="148.77" width="30.96" height="43.54" style="opacity: 0.65; transform-origin: 195.9px 170.54px; transform: rotate(180deg);" class="animable"></rect></g><g id="el0mintwtpa9re"><polygon points="217.23 198.75 211.38 192.3 180.42 192.3 174.57 198.75 217.23 198.75" style="opacity: 0.75; transform-origin: 195.9px 195.525px;" class="animable"></polygon></g><g id="elv1b3rxn1wdl"><path d="M212.57,147.47l-1.19,1.3h-31l-5.85-6.44H193.9a13,13,0,0,0,16.6.39l.06.46A9,9,0,0,0,212.57,147.47Z" style="opacity: 0.6; transform-origin: 193.55px 145.55px;" class="animable"></path></g><g id="elce9p0wp37jt"><polygon points="174.57 142.32 180.42 148.77 180.42 192.3 174.57 198.75 174.57 142.32" style="opacity: 0.6; transform-origin: 177.495px 170.535px;" class="animable"></polygon></g><g id="elivsphbxe62c"><path d="M217.23,150.4v48.34l-5.85-6.44V148.77l1.19-1.3A9.18,9.18,0,0,0,217.23,150.4Z" style="opacity: 0.75; transform-origin: 214.305px 173.105px;" class="animable"></path></g><g id="el1cm083wdszd"><rect x="121.09" y="142.32" width="42.66" height="56.42" style="fill: rgb(255, 199, 39); transform-origin: 142.42px 170.53px; transform: rotate(180deg);" class="animable"></rect></g><g id="eleflghnzkeql"><rect x="126.94" y="148.77" width="30.96" height="43.54" style="opacity: 0.65; transform-origin: 142.42px 170.54px; transform: rotate(180deg);" class="animable"></rect></g><g id="eliekthtzddw"><polygon points="163.75 198.75 157.9 192.3 126.94 192.3 121.09 198.75 163.75 198.75" style="opacity: 0.75; transform-origin: 142.42px 195.525px;" class="animable"></polygon></g><g id="el4wh24154e07"><polygon points="121.09 142.32 126.94 148.77 157.9 148.77 163.75 142.32 121.09 142.32" style="opacity: 0.6; transform-origin: 142.42px 145.545px;" class="animable"></polygon></g><g id="el1ii563hn3xs"><polygon points="121.09 142.32 126.94 148.77 126.94 192.3 121.09 198.75 121.09 142.32" style="opacity: 0.6; transform-origin: 124.015px 170.535px;" class="animable"></polygon></g><g id="els5rza1rj5gl"><polygon points="163.75 198.75 157.9 192.3 157.9 148.77 163.75 142.32 163.75 198.75" style="opacity: 0.75; transform-origin: 160.825px 170.535px;" class="animable"></polygon></g><g id="elaubfummgjbv"><rect x="67.6" y="142.32" width="42.66" height="56.42" style="fill: rgb(255, 199, 39); transform-origin: 88.93px 170.53px; transform: rotate(180deg);" class="animable"></rect></g><g id="elp942iouiq8"><rect x="73.45" y="148.77" width="30.96" height="43.54" style="opacity: 0.65; transform-origin: 88.93px 170.54px; transform: rotate(180deg);" class="animable"></rect></g><g id="el741jtp1v8om"><polygon points="110.26 198.75 104.41 192.3 73.45 192.3 67.6 198.75 110.26 198.75" style="opacity: 0.75; transform-origin: 88.93px 195.525px;" class="animable"></polygon></g><g id="elt4qq8k2cxub"><polygon points="67.6 142.32 73.45 148.77 104.41 148.77 110.26 142.32 67.6 142.32" style="opacity: 0.6; transform-origin: 88.93px 145.545px;" class="animable"></polygon></g><g id="el77cvvec62tj"><polygon points="67.6 142.32 73.45 148.77 73.45 192.3 67.6 198.75 67.6 142.32" style="opacity: 0.6; transform-origin: 70.525px 170.535px;" class="animable"></polygon></g><g id="elrh8cfren9a"><polygon points="110.26 198.75 104.41 192.3 104.41 148.77 110.26 142.32 110.26 198.75" style="opacity: 0.75; transform-origin: 107.335px 170.535px;" class="animable"></polygon></g><g id="el5zrq625c09y"><rect x="174.57" y="212.24" width="42.66" height="56.42" style="fill: rgb(255, 199, 39); transform-origin: 195.9px 240.45px; transform: rotate(180deg);" class="animable"></rect></g><g id="elxfcckaz60w"><rect x="180.42" y="218.68" width="30.96" height="43.54" style="opacity: 0.65; transform-origin: 195.9px 240.45px; transform: rotate(180deg);" class="animable"></rect></g><g id="elvmhosnxgejm"><polygon points="217.23 268.66 211.38 262.22 180.42 262.22 174.57 268.66 217.23 268.66" style="opacity: 0.75; transform-origin: 195.9px 265.44px;" class="animable"></polygon></g><g id="els6y1xgel9j"><polygon points="174.57 212.24 180.42 218.68 211.38 218.68 217.23 212.24 174.57 212.24" style="opacity: 0.6; transform-origin: 195.9px 215.46px;" class="animable"></polygon></g><g id="elzg770umtym"><polygon points="174.57 212.24 180.42 218.68 180.42 262.22 174.57 268.66 174.57 212.24" style="opacity: 0.6; transform-origin: 177.495px 240.45px;" class="animable"></polygon></g><g id="el57vi1aiht2"><polygon points="217.23 268.66 211.38 262.22 211.38 218.68 217.23 212.24 217.23 268.66" style="opacity: 0.75; transform-origin: 214.305px 240.45px;" class="animable"></polygon></g><g id="elj7ppyndss3e"><rect x="121.09" y="212.24" width="42.66" height="56.42" style="fill: rgb(255, 199, 39); transform-origin: 142.42px 240.45px; transform: rotate(180deg);" class="animable"></rect></g><g id="el35cnmw88thu"><rect x="126.94" y="218.68" width="30.96" height="43.54" style="opacity: 0.65; transform-origin: 142.42px 240.45px; transform: rotate(180deg);" class="animable"></rect></g><g id="ellx4gadw53i"><polygon points="163.75 268.66 157.9 262.22 126.94 262.22 121.09 268.66 163.75 268.66" style="opacity: 0.75; transform-origin: 142.42px 265.44px;" class="animable"></polygon></g><g id="eliv45ow7d8p"><polygon points="121.09 212.24 126.94 218.68 157.9 218.68 163.75 212.24 121.09 212.24" style="opacity: 0.6; transform-origin: 142.42px 215.46px;" class="animable"></polygon></g><g id="el1j8qyv28zwuh"><polygon points="121.09 212.24 126.94 218.68 126.94 262.22 121.09 268.66 121.09 212.24" style="opacity: 0.6; transform-origin: 124.015px 240.45px;" class="animable"></polygon></g><g id="elr43h8wubgk"><polygon points="163.75 268.66 157.9 262.22 157.9 218.68 163.75 212.24 163.75 268.66" style="opacity: 0.75; transform-origin: 160.825px 240.45px;" class="animable"></polygon></g><g id="el75x505e0jz6"><rect x="67.6" y="212.24" width="42.66" height="56.42" style="fill: rgb(255, 199, 39); transform-origin: 88.93px 240.45px; transform: rotate(180deg);" class="animable"></rect></g><g id="el2dsbz2yxmrd"><rect x="73.45" y="218.68" width="30.96" height="43.54" style="opacity: 0.65; transform-origin: 88.93px 240.45px; transform: rotate(180deg);" class="animable"></rect></g><g id="elawyypcwis1"><polygon points="110.26 268.66 104.41 262.22 73.45 262.22 67.6 268.66 110.26 268.66" style="opacity: 0.75; transform-origin: 88.93px 265.44px;" class="animable"></polygon></g><g id="elwhorb7kbecl"><polygon points="67.6 212.24 73.45 218.68 104.41 218.68 110.26 212.24 67.6 212.24" style="opacity: 0.6; transform-origin: 88.93px 215.46px;" class="animable"></polygon></g><g id="elbet5w0pnie8"><polygon points="67.6 212.24 73.45 218.68 73.45 262.22 67.6 268.66 67.6 212.24" style="opacity: 0.6; transform-origin: 70.525px 240.45px;" class="animable"></polygon></g><g id="el7ekacfr868o"><polygon points="110.26 268.66 104.41 262.22 104.41 218.68 110.26 212.24 110.26 268.66" style="opacity: 0.75; transform-origin: 107.335px 240.45px;" class="animable"></polygon></g><g id="elkr73zprpppq"><rect x="174.57" y="282.15" width="42.66" height="56.42" style="fill: rgb(255, 199, 39); transform-origin: 195.9px 310.36px; transform: rotate(180deg);" class="animable"></rect></g><g id="elqnnrl01ufc"><rect x="180.42" y="288.6" width="30.96" height="43.54" style="opacity: 0.65; transform-origin: 195.9px 310.37px; transform: rotate(180deg);" class="animable"></rect></g><g id="elau3cvykealv"><polygon points="217.23 338.58 211.38 332.13 180.42 332.13 174.57 338.58 217.23 338.58" style="opacity: 0.75; transform-origin: 195.9px 335.355px;" class="animable"></polygon></g><g id="elrmo46fe5q7"><polygon points="174.57 282.15 180.42 288.6 211.38 288.6 217.23 282.15 174.57 282.15" style="opacity: 0.6; transform-origin: 195.9px 285.375px;" class="animable"></polygon></g><g id="elm3n3mlu29o"><polygon points="174.57 282.15 180.42 288.6 180.42 332.13 174.57 338.58 174.57 282.15" style="opacity: 0.6; transform-origin: 177.495px 310.365px;" class="animable"></polygon></g><g id="ela2ast3h9pvw"><polygon points="217.23 338.58 211.38 332.13 211.38 288.6 217.23 282.15 217.23 338.58" style="opacity: 0.75; transform-origin: 214.305px 310.365px;" class="animable"></polygon></g><g id="el0qs6bntc8kv"><rect x="121.09" y="282.15" width="42.66" height="56.42" style="fill: rgb(255, 199, 39); transform-origin: 142.42px 310.36px; transform: rotate(180deg);" class="animable"></rect></g><g id="eljdjx6x5kma"><rect x="126.94" y="288.6" width="30.96" height="43.54" style="opacity: 0.65; transform-origin: 142.42px 310.37px; transform: rotate(180deg);" class="animable"></rect></g><g id="eltw817qc6ss"><polygon points="163.75 338.58 157.9 332.13 126.94 332.13 121.09 338.58 163.75 338.58" style="opacity: 0.75; transform-origin: 142.42px 335.355px;" class="animable"></polygon></g><g id="elcbv07oa9eqh"><polygon points="121.09 282.15 126.94 288.6 157.9 288.6 163.75 282.15 121.09 282.15" style="opacity: 0.6; transform-origin: 142.42px 285.375px;" class="animable"></polygon></g><g id="el5x26rotw5z2"><polygon points="121.09 282.15 126.94 288.6 126.94 332.13 121.09 338.58 121.09 282.15" style="opacity: 0.6; transform-origin: 124.015px 310.365px;" class="animable"></polygon></g><g id="elv6j5rfvfc7"><polygon points="163.75 338.58 157.9 332.13 157.9 288.6 163.75 282.15 163.75 338.58" style="opacity: 0.75; transform-origin: 160.825px 310.365px;" class="animable"></polygon></g><g id="elsy04663pgt"><rect x="67.6" y="282.15" width="42.66" height="56.42" style="fill: rgb(255, 199, 39); transform-origin: 88.93px 310.36px; transform: rotate(180deg);" class="animable"></rect></g><g id="eljn8wxbpp1pj"><rect x="73.45" y="288.6" width="30.96" height="43.54" style="opacity: 0.65; transform-origin: 88.93px 310.37px; transform: rotate(180deg);" class="animable"></rect></g><g id="elkvr60wqdpn"><polygon points="110.26 338.58 104.41 332.13 73.45 332.13 67.6 338.58 110.26 338.58" style="opacity: 0.75; transform-origin: 88.93px 335.355px;" class="animable"></polygon></g><g id="elau8pw54swil"><polygon points="67.6 282.15 73.45 288.6 104.41 288.6 110.26 282.15 67.6 282.15" style="opacity: 0.6; transform-origin: 88.93px 285.375px;" class="animable"></polygon></g><g id="elb26fy4qobft"><polygon points="67.6 282.15 73.45 288.6 73.45 332.13 67.6 338.58 67.6 282.15" style="opacity: 0.6; transform-origin: 70.525px 310.365px;" class="animable"></polygon></g><g id="elpgiung7g1q8"><polygon points="110.26 338.58 104.41 332.13 104.41 288.6 110.26 282.15 110.26 338.58" style="opacity: 0.75; transform-origin: 107.335px 310.365px;" class="animable"></polygon></g><g id="el1et69cnov04"><rect x="174.57" y="352.07" width="42.66" height="56.42" style="fill: rgb(255, 199, 39); transform-origin: 195.9px 380.28px; transform: rotate(180deg);" class="animable"></rect></g><g id="eltiodtynmz6p"><rect x="180.42" y="358.51" width="30.96" height="43.54" style="opacity: 0.65; transform-origin: 195.9px 380.28px; transform: rotate(180deg);" class="animable"></rect></g><g id="elycbv0jtg9hs"><polygon points="217.23 408.49 211.38 402.05 180.42 402.05 174.57 408.49 217.23 408.49" style="opacity: 0.75; transform-origin: 195.9px 405.27px;" class="animable"></polygon></g><g id="elr8pb3lfvpx"><polygon points="174.57 352.07 180.42 358.51 211.38 358.51 217.23 352.07 174.57 352.07" style="opacity: 0.6; transform-origin: 195.9px 355.29px;" class="animable"></polygon></g><g id="elfoq3qtl49xb"><polygon points="174.57 352.07 180.42 358.51 180.42 402.05 174.57 408.49 174.57 352.07" style="opacity: 0.6; transform-origin: 177.495px 380.28px;" class="animable"></polygon></g><g id="elg9l9ciao0at"><polygon points="217.23 408.49 211.38 402.05 211.38 358.51 217.23 352.07 217.23 408.49" style="opacity: 0.75; transform-origin: 214.305px 380.28px;" class="animable"></polygon></g><g id="elq71be5rdw9"><rect x="121.09" y="352.07" width="42.66" height="56.42" style="fill: rgb(255, 199, 39); transform-origin: 142.42px 380.28px; transform: rotate(180deg);" class="animable"></rect></g><g id="elkp86zot10sq"><rect x="126.94" y="358.51" width="30.96" height="43.54" style="opacity: 0.65; transform-origin: 142.42px 380.28px; transform: rotate(180deg);" class="animable"></rect></g><g id="ely320e612d79"><polygon points="163.75 408.49 157.9 402.05 126.94 402.05 121.09 408.49 163.75 408.49" style="opacity: 0.75; transform-origin: 142.42px 405.27px;" class="animable"></polygon></g><g id="el0soj7bnvtsc"><polygon points="121.09 352.07 126.94 358.51 157.9 358.51 163.75 352.07 121.09 352.07" style="opacity: 0.6; transform-origin: 142.42px 355.29px;" class="animable"></polygon></g><g id="elvgnjnwssa4"><polygon points="121.09 352.07 126.94 358.51 126.94 402.05 121.09 408.49 121.09 352.07" style="opacity: 0.6; transform-origin: 124.015px 380.28px;" class="animable"></polygon></g><g id="el0u1wi5btgm1"><polygon points="163.75 408.49 157.9 402.05 157.9 358.51 163.75 352.07 163.75 408.49" style="opacity: 0.75; transform-origin: 160.825px 380.28px;" class="animable"></polygon></g><g id="el0om3yb6k4ayh"><rect x="67.6" y="352.07" width="42.66" height="56.42" style="fill: rgb(255, 199, 39); transform-origin: 88.93px 380.28px; transform: rotate(180deg);" class="animable"></rect></g><g id="elawbk4jx64z"><rect x="73.45" y="358.51" width="30.96" height="43.54" style="opacity: 0.65; transform-origin: 88.93px 380.28px; transform: rotate(180deg);" class="animable"></rect></g><g id="elbhritvxaw5q"><polygon points="110.26 408.49 104.41 402.05 73.45 402.05 67.6 408.49 110.26 408.49" style="opacity: 0.75; transform-origin: 88.93px 405.27px;" class="animable"></polygon></g><g id="el40y12jx22s1"><polygon points="67.6 352.07 73.45 358.51 104.41 358.51 110.26 352.07 67.6 352.07" style="opacity: 0.6; transform-origin: 88.93px 355.29px;" class="animable"></polygon></g><g id="eliyx3eguprjd"><polygon points="67.6 352.07 73.45 358.51 73.45 402.05 67.6 408.49 67.6 352.07" style="opacity: 0.6; transform-origin: 70.525px 380.28px;" class="animable"></polygon></g><g id="el02etugia2eof"><polygon points="110.26 408.49 104.41 402.05 104.41 358.51 110.26 352.07 110.26 408.49" style="opacity: 0.75; transform-origin: 107.335px 380.28px;" class="animable"></polygon></g></g><g id="freepik--Character--inject-35" class="animable animator-active" style="transform-origin: 290.183px 339.261px;"><path d="M451.39,435.17c-2.73,1-83.64,2.59-86.68.73C364.35,435.71,363,409,363,409c.1-.38-1.25-3-3.31-6.55-5.77-10.06-17.05-28.09-17.05-28.09l48-14.52,19.72,39.51,5,10.08s11,4.31,20.65,8.61c0,0,0,0,0,0,5.93,2.63,11.08,5.05,12.29,6C451.49,426.35,454.12,434.21,451.39,435.17Z" style="fill: rgb(247, 169, 160); transform-origin: 397.585px 398.3px;" id="elxxvmcitz37n" class="animable"></path><path d="M451.39,435.17c-2.73,1-83.64,2.59-86.68.73C364.35,435.71,363,409,363,409c.1-.38-1.25-3-3.31-6.55l50.69-3.1,5,10.08s11,4.31,20.65,8.61c0,0,0,0,0,0,5.93,2.63,11.08,5.05,12.29,6C451.49,426.35,454.12,434.21,451.39,435.17Z" style="fill: rgb(255, 255, 255); transform-origin: 406.11px 418.055px;" id="elw4e0xznwi6" class="animable"></path><path d="M451.73,435.48c-2.82,1-83.83,2.38-87,.48-1.19-.71-2.62-13.18-1.74-27l52.22-.84s30.25,13.37,33.45,15.82S454.54,434.48,451.73,435.48Z" style="fill: rgb(255, 199, 39); transform-origin: 407.814px 422.514px;" id="elgam8zbe6tbr" class="animable"></path><g id="el5im162keocd"><path d="M386,436.88c-11.53-.05-20.2-.33-21.19-.91-1.19-.72-2.62-13.19-1.75-27l1.28,0Z" style="opacity: 0.1; transform-origin: 374.396px 422.925px;" class="animable"></path></g><path d="M450.51,432.26c-13.59-.11-68.39.77-81.83,1.7-.11,0-.1.09,0,.09,13.46.39,68.25-.93,81.82-1.57C450.8,432.46,450.8,432.26,450.51,432.26Z" style="fill: rgb(38, 50, 56); transform-origin: 409.664px 433.186px;" id="ell3l8nzse7d" class="animable"></path><path d="M443.45,421.11a10.94,10.94,0,0,0-8.07,3.45,10.64,10.64,0,0,0-2.91,7.31c0,.08.16.08.17,0a12.61,12.61,0,0,1,10.81-10.58A.09.09,0,0,0,443.45,421.11Z" style="fill: rgb(38, 50, 56); transform-origin: 438.005px 426.52px;" id="el002ygi8l817p8" class="animable"></path><path d="M419.55,409.4c-5.44,0-11.71,2.05-15,6.55-.13.17.12.35.28.27a74.83,74.83,0,0,1,14.83-6.15A.34.34,0,0,0,419.55,409.4Z" style="fill: rgb(38, 50, 56); transform-origin: 412.22px 412.819px;" id="elcmktfk8hce8" class="animable"></path><path d="M423.77,411c-5.44,0-11.7,2-15,6.54-.12.18.13.36.29.27a75.18,75.18,0,0,1,14.83-6.15A.34.34,0,0,0,423.77,411Z" style="fill: rgb(38, 50, 56); transform-origin: 416.427px 414.417px;" id="ell06lw7nvgqp" class="animable"></path><path d="M428,412.53c-5.43,0-11.7,2-15,6.55-.13.17.12.35.28.26a75.39,75.39,0,0,1,14.83-6.14A.34.34,0,0,0,428,412.53Z" style="fill: rgb(38, 50, 56); transform-origin: 420.67px 415.946px;" id="elykb2on9dlyo" class="animable"></path><path d="M432.22,414.09c-5.44,0-11.71,2.05-15,6.55-.13.18.12.35.28.27a74.83,74.83,0,0,1,14.83-6.15A.34.34,0,0,0,432.22,414.09Z" style="fill: rgb(38, 50, 56); transform-origin: 424.89px 417.509px;" id="ellmrzyfbvr18" class="animable"></path><path d="M371.92,421c-6.1.12-5.92,9.6.19,9.47S378,420.88,371.92,421Z" style="fill: rgb(38, 50, 56); transform-origin: 372.011px 425.735px;" id="elrr4ddjtoubo" class="animable"></path><path d="M425.17,394.8c-2.79-2.24-6.22.05-7.87,2.45a28.48,28.48,0,0,0-4.7,14c0,.12.08.16.17.16a.67.67,0,0,0,1,.42c3.83-2.74,8.26-5.2,11.12-9C426.55,400.53,427.81,396.91,425.17,394.8Zm-6.47,11.66c-1.85,1.4-3.75,2.69-5.55,4.16a86.14,86.14,0,0,1,2.93-8.11,30.89,30.89,0,0,1,1.92-3.7c1.15-1.81,6.41-6.45,7.05-.54C425.4,401.52,420.9,404.8,418.7,406.46Z" style="fill: rgb(38, 50, 56); transform-origin: 419.646px 402.907px;" id="el54ugosm2x0q" class="animable"></path><path d="M399.13,413.48c4.74.65,9.6-.78,14.24-1.59a.66.66,0,0,0,.39-1,.14.14,0,0,0,0-.23,28.49,28.49,0,0,0-13.26-6.46c-2.87-.5-6.91.33-7.27,3.89C392.89,411.46,396.36,413.1,399.13,413.48Zm-3.34-3c-3.75-4.6,3.24-5.09,5.34-4.64a30.53,30.53,0,0,1,4,1.23,85.26,85.26,0,0,1,7.83,3.6c-2.3.25-4.56.7-6.85,1C403.36,412.07,397.87,413,395.79,410.44Z" style="fill: rgb(38, 50, 56); transform-origin: 403.537px 408.856px;" id="elbi7pem4p2th" class="animable"></path><path d="M356.06,401.88l57-8.63s-27.38-54.57-44.33-84.19c-9.43-16.46-35.21-17.27-47.75,2.46-16.75,26.35-29.75,51.05-37.2,64.74l-12.92,1.11,2.79,21.11,42.94,9.61c16.45,2,28-27.31,28.26-26.82C346.91,385.12,356.06,401.88,356.06,401.88Z" style="fill: rgb(55, 71, 79); transform-origin: 341.96px 352.45px;" id="elp7pql5f3i4r" class="animable"></path><path d="M345.13,381.4c-1.62-3.32-2.89-6.84-4.33-10.24s-2.79-6.57-4.17-9.86c-2.8-6.66-5.69-13.28-8.4-20-1.52-3.75-2.92-7.56-4.34-11.35,0-.09-.18-.05-.15,0q1.65,5.39,3.45,10.71c-.32-.61-.64-1.22-1-1.82q-1.38-2.45-2.81-4.87a.05.05,0,0,0-.09.06c.87,1.63,1.74,3.25,2.65,4.85.45.8.95,1.59,1.42,2.38a249.24,249.24,0,0,0,11.82,29.19c1.81,3.72,3.93,7.28,5.74,11C345,381.63,345.18,381.52,345.13,381.4Z" style="fill: rgb(38, 50, 56); transform-origin: 334.21px 355.721px;" id="elf4rx7yh3bn5" class="animable"></path><path d="M357.34,391.75c-2.75-4.23-9.29-17.06-11.63-21.5-4.74-9-9.08-18.12-13.18-27.39-2.31-5.25-4.48-10.53-6.62-15.85,0,0-.08,0-.06,0a299.32,299.32,0,0,0,11.24,28.14c4.17,9.21,17.65,34,20.07,36.69C357.25,392,357.41,391.86,357.34,391.75Z" style="fill: rgb(38, 50, 56); transform-origin: 341.602px 359.461px;" id="elofftzs1izy" class="animable"></path><path d="M322,334.1c-4.91,8.76-9.93,17.47-14.86,26.22q-3.74,6.63-7.44,13.29c-1.16,2.08-2.29,4.2-3.49,6.26a11.82,11.82,0,0,1-4.5,4.67,35.22,35.22,0,0,1-7.15,2.49c-2.77.81-5.52,1.69-8.3,2.45-.13,0-.07.23.06.2,2.48-.67,5-1.24,7.48-1.85a64.24,64.24,0,0,0,6.79-1.84,11,11,0,0,0,5-3.47,41.17,41.17,0,0,0,3.53-5.89q7.38-13.5,14.63-27.08c2.75-5.14,5.48-10.3,8.26-15.43C322,334.09,322,334.07,322,334.1Z" style="fill: rgb(38, 50, 56); transform-origin: 299.099px 361.884px;" id="elvmpcwna6qsf" class="animable"></path><path d="M354.77,393.89c3.41-.62,6.91-.92,10.35-1.36l10.35-1.34c6.89-.9,30.32-4.64,32.09-5.22a.12.12,0,0,0,0-.22c-1.68-.06-17,2-20.47,2.49-6.88,1-13.72,2.24-20.57,3.39-2,.33-3.91.71-5.87,1.05s-3.91.77-5.87,1A.1.1,0,0,0,354.77,393.89Z" style="fill: rgb(38, 50, 56); transform-origin: 381.152px 389.819px;" id="el2rhb365ojas" class="animable"></path><path d="M388.93,453c-.91-2.76-49.75-67.28-53.08-68.52-.38-.17-22.21,15.37-22.21,15.37-.9,1.2-42.39-7.57-42.39-7.57l-.42,50.06,75.59-1.61s10.2,6,19.54,10.89h0c5.74,3,10.83,5.58,12.28,5.95C382.06,458.59,389.86,455.78,388.93,453Z" style="fill: rgb(247, 169, 160); transform-origin: 329.918px 421.131px;" id="elxvslt7h3seg" class="animable"></path><path d="M378.28,457.62c-1.46-.37-6.54-2.92-12.28-6,0,0,0,0,0,0-9.33-4.89-19.54-10.89-19.54-10.89l-16.82.36-26.34-42.5c5.78,1,10.09,1.64,10.38,1.26,0,0,21.82-15.54,22.21-15.37,3.33,1.24,52.16,65.76,53.08,68.52S382.06,458.6,378.28,457.62Z" style="fill: rgb(255, 255, 255); transform-origin: 346.172px 421.148px;" id="ela2cssl6y2tv" class="animable"></path><path d="M389.37,453.12c-1-2.82-50-67.3-53.43-68.58-1.3-.49-12,6.1-22.3,15.35l31.67,41.53s29.22,15.48,33.13,16.48S390.33,456,389.37,453.12Z" style="fill: rgb(255, 199, 39); transform-origin: 351.545px 421.308px;" id="elbwau8kgepuk" class="animable"></path><path d="M386.09,454.16c-8.49-10.61-41.72-54.19-49.31-65.32-.06-.09,0-.14.07,0,8.64,10.33,41.52,54.18,49.42,65.24C386.43,454.26,386.27,454.39,386.09,454.16Z" style="fill: rgb(38, 50, 56); transform-origin: 361.546px 421.518px;" id="elbefw7ejgoe" class="animable"></path><path d="M373,455.52a10.88,10.88,0,0,1-2.28-8.48,10.53,10.53,0,0,1,3.93-6.8c.07-.05.16.07.1.13a12.61,12.61,0,0,0-1.62,15.05A.08.08,0,0,1,373,455.52Z" style="fill: rgb(38, 50, 56); transform-origin: 372.681px 447.89px;" id="elcu69naktbil" class="animable"></path><path d="M349,444c-3.36-4.28-5.64-10.46-4.15-15.84.06-.21.35-.12.38.06a75.11,75.11,0,0,0,4.36,15.45A.34.34,0,0,1,349,444Z" style="fill: rgb(38, 50, 56); transform-origin: 347.001px 436.091px;" id="elgq2srrywrw" class="animable"></path><path d="M352.82,446.34c-3.35-4.28-5.64-10.46-4.15-15.84.06-.21.36-.12.39.06A75.08,75.08,0,0,0,353.41,446,.34.34,0,0,1,352.82,446.34Z" style="fill: rgb(38, 50, 56); transform-origin: 350.831px 438.444px;" id="elnq7yxz035v" class="animable"></path><path d="M356.66,448.69c-3.35-4.28-5.64-10.46-4.15-15.84.06-.21.36-.12.39.06a75.08,75.08,0,0,0,4.35,15.45A.34.34,0,0,1,356.66,448.69Z" style="fill: rgb(38, 50, 56); transform-origin: 354.662px 440.781px;" id="eld7gn3l3hf7i" class="animable"></path><path d="M360.5,451c-3.35-4.28-5.64-10.46-4.14-15.84.06-.21.35-.12.38.06a75.71,75.71,0,0,0,4.35,15.45A.34.34,0,0,1,360.5,451Z" style="fill: rgb(38, 50, 56); transform-origin: 358.504px 443.091px;" id="elpnyynbof1w" class="animable"></path><path d="M328.61,399.4c-3.68-4.86,3.88-10.59,7.56-5.71S332.3,404.28,328.61,399.4Z" style="fill: rgb(38, 50, 56); transform-origin: 332.39px 396.547px;" id="elmq9hqk1utqi" class="animable"></path><path d="M347.07,452.28c1.23-4.63.42-9.63.21-14.33a.66.66,0,0,0-.94-.51.14.14,0,0,0-.23,0A28.58,28.58,0,0,0,338,449.75c-.86,2.78-.53,6.89,2.95,7.7C344.28,458.21,346.34,455,347.07,452.28Zm-3.44,2.93c-5,3.15-4.64-3.85-3.93-5.88a30.11,30.11,0,0,1,1.72-3.8,83.32,83.32,0,0,1,4.55-7.31c0,2.31.13,4.61.18,6.92C346.2,447.9,346.41,453.47,343.63,455.21Z" style="fill: rgb(38, 50, 56); transform-origin: 342.668px 447.469px;" id="elyppk42jzcs" class="animable"></path><path d="M331.67,424.13c-2.57,2.49-.73,6.18,1.44,8.12a28.54,28.54,0,0,0,13.28,6.42c.12,0,.17-.06.18-.15a.66.66,0,0,0,.54-.92c-2.24-4.14-4.13-8.84-7.57-12.17C337.53,423.49,334.09,421.78,331.67,424.13ZM342.43,432c1.15,2,2.2,4.06,3.42,6a85.14,85.14,0,0,1-7.67-3.92,29,29,0,0,1-3.43-2.37c-1.66-1.37-5.6-7.16.34-7.06C338.36,424.75,341.06,429.62,342.43,432Z" style="fill: rgb(38, 50, 56); transform-origin: 338.791px 430.83px;" id="els0ja48purc" class="animable"></path><path d="M292.94,380.76S210.12,366.22,186.56,371c-32.86,6.67-38.9,45.52-14.53,60,30.88,18.34,155.23,14.79,155.23,14.79l-29.7-50.34s-45.69-9.61-87.12-8.22l82.86,12.65Z" style="fill: rgb(55, 71, 79); transform-origin: 242.202px 408.051px;" id="el04atxazn5jps" class="animable"></path><path d="M299.54,398.69a.76.76,0,0,1-.06-.26l-.06-.21c0-.16-.08-.32-.13-.48a8.9,8.9,0,0,0-.34-1q-.19-.48-.42-1a8.2,8.2,0,0,0-.55-.89s-.06,0-.08,0l-.06,0a.15.15,0,0,0-.07,0s0,0-.07,0c-5-.94-39.17-5.82-44.24-6.4s-10.26-1.06-15.39-1.49a304.51,304.51,0,0,0-30.81-1.11l-2.88.09c-.21-.07-.43-.11-.64-.16-.49-.12-1-.24-1.48-.33-.92-.18-1.86-.32-2.79-.46-1.95-.3-3.9-.5-5.83-.86a.09.09,0,0,0,0,.18c1.95.43,3.86,1,5.81,1.42l1.68.35c-3.77.2-7.53.49-11.29.83-.12,0-.12.2,0,.19,5.12-.3,10.27-.34,15.4-.25s10.17.19,15.26.49c10.27.59,20.55,1.51,30.78,2.58,5.75.6,40.56,5.68,46.33,5.92h.07a3.2,3.2,0,0,0,.16.39c.16.32.32.63.49.93a9.42,9.42,0,0,0,.51.87l.29.42c0,.07.09.14.14.21a1.07,1.07,0,0,1,.15.22C299.41,398.9,299.61,398.81,299.54,398.69Z" style="fill: rgb(38, 50, 56); transform-origin: 244.652px 391.506px;" id="el724f90x15ya" class="animable"></path><path d="M316.55,442.72c-1.84-2.94-3.41-6.08-5.09-9.11l-5.07-9.13C303,418.42,290.88,398,289.68,396.6a.12.12,0,0,0-.19.12c.57,1.58,8.14,15.08,9.88,18.09,3.49,6,7.15,11.92,10.76,17.87,1,1.7,2.1,3.37,3.14,5.06s2.16,3.35,3.12,5.08C316.45,442.92,316.61,442.82,316.55,442.72Z" style="fill: rgb(38, 50, 56); transform-origin: 303.025px 419.719px;" id="elidvh7uzzn1m" class="animable"></path><path d="M289.34,401.67c-3-.72-6.14-1.2-9.2-1.78l-9.22-1.72q-9.21-1.73-18.46-3.28c-12.29-2.07-24.64-3.78-37.05-5-7-.68-14-1.12-21-1.63-.14,0-.14.22,0,.23,12.5.56,25,2.26,37.36,4s24.49,3.7,36.7,5.76q5.18.87,10.34,1.77c3.49.6,7,1.35,10.52,1.8A.11.11,0,0,0,289.34,401.67Z" style="fill: rgb(38, 50, 56); transform-origin: 241.835px 395.04px;" id="elqe1ubpu3xe" class="animable"></path><path d="M276.65,305.12c18.88,17.66,48.56,33.54,58.53,31.74,4.78-.86,47-32.07,44.3-45.33-1-4.72-28.3-10.13-31.5-6.09-5.73,7.23-23.58,18.34-24.74,19.15s-21.32-6.44-39.28-11.38C262.75,287.38,269.12,298.08,276.65,305.12Z" style="fill: rgb(247, 169, 160); transform-origin: 324.564px 310.511px;" id="elm2rv9uhzmhg" class="animable"></path><path d="M380.9,270.31c-2.06-9.71-4.07-11.89-1.45-21,1.72-6-1.36-9.66-5.84-5-7.33,7.65-7.32,20.74-6,25.28Z" style="fill: rgb(247, 169, 160); transform-origin: 373.919px 256.253px;" id="elm8abcgrxwz" class="animable"></path><path d="M391.15,234.11l.17,2.44-28.75,26.11L347,252l-1.36-6.12,3.16-3.28,2.91-9.31L363.4,221c.51.21,2.15-.59,2.68-.58a2.3,2.3,0,0,1-.27,1.22,3.2,3.2,0,0,0-.15,3.42v0a4.75,4.75,0,0,0,1.9,2.1,4.69,4.69,0,0,0,2.18.66,5.19,5.19,0,0,0,2.12-.34,6.09,6.09,0,0,0,2.75,6.66,6.2,6.2,0,0,0,8.45-2.34c.12-.2.22-.39.32-.59a5.69,5.69,0,0,0,2.35,2.7A5.74,5.74,0,0,0,391.15,234.11Z" style="fill: rgb(255, 199, 39); transform-origin: 368.48px 241.54px;" id="elo6815tum4a" class="animable"></path><g id="eldjqbear8fvj"><path d="M391.15,234.11l.17,2.44-28.75,26.11L347,252l-1.36-6.12,3.16-3.28,2.91-9.31L363.4,221c.51.21,2.15-.59,2.68-.58a2.3,2.3,0,0,1-.27,1.22,3.2,3.2,0,0,0-.15,3.42v0a4.75,4.75,0,0,0,1.9,2.1,4.69,4.69,0,0,0,2.18.66,5.19,5.19,0,0,0,2.12-.34,6.09,6.09,0,0,0,2.75,6.66,6.2,6.2,0,0,0,8.45-2.34c.12-.2.22-.39.32-.59a5.69,5.69,0,0,0,2.35,2.7A5.74,5.74,0,0,0,391.15,234.11Z" style="opacity: 0.85; transform-origin: 368.48px 241.54px;" class="animable"></path></g><path d="M391.32,236.55l-51.44,51.12-16.46-11.22-1.53-6.3,3.24-3.3,2.87-9.5L363.4,221a4.63,4.63,0,0,0,1.66.36,4.46,4.46,0,0,0-.35.5,5.21,5.21,0,0,0-.21,4.93l0,0a5.1,5.1,0,0,0,2,2.19,5,5,0,0,0,2.3.71,5.39,5.39,0,0,0,2.21-.3A6.42,6.42,0,0,0,382.83,234a5.7,5.7,0,0,0,.32-.6,6.21,6.21,0,0,0,8.17,3.16Z" style="fill: rgb(255, 199, 39); transform-origin: 356.605px 254.335px;" id="elfjrhy9fk1g4" class="animable"></path><g id="elk4hehz9g9zm"><path d="M391.32,236.55l-51.44,51.12-16.46-11.22,45.41-46.79a5.39,5.39,0,0,0,2.21-.3A6.42,6.42,0,0,0,382.83,234a5.7,5.7,0,0,0,.32-.6,6.21,6.21,0,0,0,8.17,3.16Z" style="opacity: 0.79; transform-origin: 357.37px 258.515px;" class="animable"></path></g><g id="elnzepq72qprs"><path d="M368.83,229.66l-45.41,46.79-1.53-6.3,3.24-3.3,39.37-40.11,0,0a5.1,5.1,0,0,0,2,2.19A5,5,0,0,0,368.83,229.66Z" style="opacity: 0.6; transform-origin: 345.36px 251.595px;" class="animable"></path></g><g id="elkfutk9qsylq"><path d="M364.52,226.76l-39.4,40.13v0l2.87-9.5L363.4,221a4.63,4.63,0,0,0,1.66.36,4.46,4.46,0,0,0-.35.5,5.21,5.21,0,0,0-.21,4.93Z" style="opacity: 0.65; transform-origin: 345.09px 243.945px;" class="animable"></path></g><path d="M377.82,298.81s5.34-11.82,3.9-23.76c-.88-7.3-4.32-23-24.33-32-4.75-2.15-13-1.83-6.55,4.48,4.6,4.49,8.88,5.94,11.08,9,0,0-10.49,1.66-12.44,6.49a96.05,96.05,0,0,0-4.22,13,19.3,19.3,0,0,0,2.36,1s-1.69,4.59,1.49,11.32Z" style="fill: rgb(247, 169, 160); transform-origin: 363.613px 270.331px;" id="el3l4xznqdbow" class="animable"></path><path d="M379.84,268.2c-2.84-2.61-8.94-8-15.48-10.75-7.27-3-22.07-6.84-24.23-1.45-1.59,3.95,3.93,5.91,3.93,5.91s-6.45-.3-7.1,3.58c-.6,3.54,3.77,4.8,3.77,4.8s-4,.49-3.86,4c.09,4.23,8.35,2.5,12.15,6.69C349.87,281.94,379.84,268.2,379.84,268.2Z" style="fill: rgb(247, 169, 160); transform-origin: 358.353px 267.163px;" id="elqpvgu8x7bgp" class="animable"></path><path d="M362.46,265.66c-3.07-2-11.22-4.81-18.27-3.86-.16,0-.23.16-.08.17a77.08,77.08,0,0,1,18.32,3.75A0,0,0,0,0,362.46,265.66Z" style="fill: rgb(38, 50, 56); transform-origin: 353.244px 263.665px;" id="elqf73ezqsuir" class="animable"></path><path d="M359.21,272.9c-2.82-1.47-11.35-4-18.46-2.76-.16,0-.22.17-.07.17A82.76,82.76,0,0,1,359.19,273S359.25,272.92,359.21,272.9Z" style="fill: rgb(38, 50, 56); transform-origin: 349.909px 271.404px;" id="el9zklg44fgx" class="animable"></path><path d="M299.47,323.86,323,302.74s-30.85-9.74-44.4-11.41c-14.12-1.74-17.53,2.34-3,14.34S299.47,323.86,299.47,323.86Z" style="fill: rgb(255, 199, 39); transform-origin: 294.612px 307.403px;" id="el74ilbgttz3h" class="animable"></path><path d="M297.42,318.39c.5-.56,1.08-1.06,1.63-1.58l1.69-1.6c1.15-1.08,2.31-2.14,3.48-3.2,2.33-2.11,4.65-4.22,7-6.29.65-.57,1.3-1.14,2-1.69s1.44-1.11,2.13-1.69c.05,0,.1,0,.06.06-.56.54-1.08,1.13-1.64,1.67s-1.16,1.11-1.74,1.65c-1.16,1.07-2.33,2.12-3.5,3.17-2.31,2.06-4.62,4.13-7,6.14l-2,1.68a26.76,26.76,0,0,1-2.09,1.74S297.38,318.43,297.42,318.39Z" style="fill: rgb(38, 50, 56); transform-origin: 306.415px 310.395px;" id="elo995mpktml" class="animable"></path><g id="elc2jk557dato"><path d="M275.56,305.67c14.61,12.08,23.91,18.2,23.91,18.2l10.42-9.38-42.58-22.37C264.54,294,266.75,298.4,275.56,305.67Z" style="opacity: 0.1; transform-origin: 288.039px 307.995px;" class="animable"></path></g><path d="M305.74,360c-.32.44-6.53,19.19-16.33,22.15-22.12,6.68-58.61.3-58.92,0-1.23-1.2,9.51-65.06,21.75-86.36,4.13-7.18,18.64-9.57,24.18-3.24C292.34,310.66,306.66,358.69,305.74,360Z" style="fill: rgb(255, 199, 39); transform-origin: 268.088px 337.037px;" id="elhlzvu1qffq" class="animable"></path><path d="M239.9,308c-20.6,28.55-60,85.73-64.85,95.86-3.28,6.88,32.88,25.59,34.41,20.59,1.95-6.41,36.07-81,43.6-113.9C256.88,293.88,246.57,298.72,239.9,308Z" style="fill: rgb(247, 169, 160); transform-origin: 214.362px 362.407px;" id="el0kmgkxvku7ge" class="animable"></path><path d="M210.43,421c-.84,6.24-5.07,18.79-8.23,20.71s-19.69,1.5-28,1.5-10-2.32-9.85-5.19S182,434.57,182,434.57s-23.37,6.7-29.25,7.79-19.42,4.51-21.38-.36c-.89-2.2,2.82-4.42,2.82-4.42s-5.68,1.66-6.59-1.17c-1-3.22,3.49-5,3.49-5s-3.55.72-3.63-1.9c-.18-5.86,22-8.74,22-8.74s-17,8.29-17.56,3.51c-.76-6.61,34.12-13.87,37.75-16.75a67.77,67.77,0,0,0,7.39-7.18Z" style="fill: rgb(247, 169, 160); transform-origin: 168.942px 422.448px;" id="el3b9j7w4r2qa" class="animable"></path><path d="M164.45,439.44a2.54,2.54,0,0,1,.79-2.23,7.18,7.18,0,0,1,2-1.32,28.4,28.4,0,0,1,4.78-1.55c3.29-.83,6.66-1.42,10-2.29a40.75,40.75,0,0,0-10.3,1.16,18.58,18.58,0,0,0-4.91,1.88,6.52,6.52,0,0,0-2,1.76A2.65,2.65,0,0,0,164.45,439.44Z" style="fill: rgb(38, 50, 56); transform-origin: 173.142px 435.743px;" id="el1c4rkrn492u" class="animable"></path><path d="M134.15,437.58c2.41-.59,4.78-1.27,7.14-1.95s4.72-1.41,7.08-2.12l7-2.21c2.34-.73,4.69-1.46,7.06-2.17a56.05,56.05,0,0,0-7.3,1.3c-2.42.55-4.79,1.24-7.15,2s-4.7,1.51-7,2.39S136.4,436.53,134.15,437.58Z" style="fill: rgb(38, 50, 56); transform-origin: 148.29px 433.355px;" id="el14pkq3chnoj" class="animable"></path><path d="M156.83,423.29a47.85,47.85,0,0,0-6.75.93,65,65,0,0,0-6.59,1.7,58.44,58.44,0,0,0-6.39,2.39,48,48,0,0,0-6,3.11c2.15-.74,4.25-1.56,6.38-2.28s4.26-1.44,6.41-2.1,4.3-1.31,6.46-2S154.64,423.89,156.83,423.29Z" style="fill: rgb(38, 50, 56); transform-origin: 143.965px 427.355px;" id="elib4lyvz31n" class="animable"></path><path d="M153.39,417.71a45.32,45.32,0,0,0-20.61,7.05c3.46-1.23,6.82-2.53,10.25-3.67S149.9,418.83,153.39,417.71Z" style="fill: rgb(38, 50, 56); transform-origin: 143.085px 421.235px;" id="elwfj8pbcui1" class="animable"></path><path d="M245.06,338.64l-31.24-4.78S234.29,308.8,244.7,300c10.86-9.2,15.95-7.65,10.38,10.35S245.06,338.64,245.06,338.64Z" style="fill: rgb(255, 199, 39); transform-origin: 235.589px 316.56px;" id="eld2twve3dae5" class="animable"></path><path d="M243.78,332.94c-.73-.2-1.49-.29-2.24-.43l-2.29-.4c-1.55-.28-3.1-.53-4.66-.78-3.1-.48-6.21-1-9.32-1.41-.86-.12-1.72-.24-2.57-.34s-1.82-.14-2.72-.24c-.06,0-.06.08,0,.09.77.14,1.52.35,2.29.49s1.57.3,2.36.43c1.55.25,3.1.5,4.66.73,3.06.46,6.12.93,9.2,1.32l2.57.32c.9.11,1.81.27,2.71.31A0,0,0,0,0,243.78,332.94Z" style="fill: rgb(38, 50, 56); transform-origin: 231.857px 331.185px;" id="el8rns44g6kz" class="animable"></path><path d="M253.69,319c0-.06-.06-.11-.1-.06a23.37,23.37,0,0,0-1.91,3.15c.18-.53.37-1.06.55-1.6.56-1.73,1.09-3.46,1.66-5.19a0,0,0,1,0-.09,0c-1.2,2.93-2.52,5.83-3.62,8.8s-2.21,6-3.27,8.94c-.58,1.64-1.18,3.73-1.76,5.38-.92,0-2.07-.23-3.06-.26-.09,0-.08.14,0,.15,1,.16,2.23.55,3.33.62.14,0,4.13-10.58,5.88-15.67C252.13,321.86,252.94,320.45,253.69,319Z" style="fill: rgb(38, 50, 56); transform-origin: 247.958px 327.115px;" id="el4wi5upazkgs" class="animable"></path><path d="M272.31,303c-4.15,1.91-13-3.22-17-8-.28-.33-.51-4.34-1-9.2-.32-2.95-.74-6.23-1.34-9.19-.13-.61,19.5.73,19.5.73a48.1,48.1,0,0,0,.51,11.74,6.64,6.64,0,0,0,.38,1.19c0,.06.05.12.07.2C274.24,292.7,276.32,301.16,272.31,303Z" style="fill: rgb(247, 169, 160); transform-origin: 263.832px 289.93px;" id="elxrzdtkupkz7" class="animable"></path><path d="M254.09,276.45c1.88,4.84,7.46,16.3,17.42,14.51a10.28,10.28,0,0,0,1.88-.49,1,1,0,0,0-.06-.2,7.77,7.77,0,0,1-.38-1.18,48.43,48.43,0,0,1-.52-11.75S258.28,276.37,254.09,276.45Z" style="fill: rgb(38, 50, 56); transform-origin: 263.74px 283.797px;" id="elr7wxl1j6e3" class="animable"></path><path d="M245.5,258c.12,7,9.5,24.4,15.39,27,8.53,3.83,19.51.9,22-8.68,2.42-9.28-10.2-31.71-16.5-33.8C257.13,239.46,245.31,247.59,245.5,258Z" style="fill: rgb(247, 169, 160); transform-origin: 264.346px 264.249px;" id="eljuiwdztl2j" class="animable"></path><path d="M245.5,258c.12,7,9.5,24.4,15.39,27,8.53,3.83,19.51.9,22-8.68,2.42-9.28-10.2-31.71-16.5-33.8C257.13,239.46,245.31,247.59,245.5,258Z" style="fill: rgb(247, 169, 160); transform-origin: 264.346px 264.249px;" id="elc6y21g2c1rj" class="animable"></path><path d="M277.45,274.06a1.31,1.31,0,0,1-1.3,1.3,1.25,1.25,0,0,1-1-.47,1.32,1.32,0,0,1-1.21.81,1.34,1.34,0,0,1-.49-.1,2.28,2.28,0,0,1-2.28,2.14,2.22,2.22,0,0,1-1.68-.75,1.38,1.38,0,0,1-.49.1,1.29,1.29,0,0,1-.54-.12,1.8,1.8,0,1,1-1.5-2.81,2.22,2.22,0,0,1,.45.07.86.86,0,0,1,0-.17,1.36,1.36,0,0,1,.46-1,1.74,1.74,0,0,1-.88-1.5,1.73,1.73,0,0,1,3.31-.68,1.82,1.82,0,0,1,.9-.26,1.67,1.67,0,0,1,1,.36,2.38,2.38,0,0,1,4.68.63,2.29,2.29,0,0,1-.37,1.24A1.29,1.29,0,0,1,277.45,274.06Z" style="fill: rgb(255, 199, 39); transform-origin: 271.31px 273.486px;" id="elg0wptez61h" class="animable"></path><path d="M270,278.72a1,1,0,1,1-1-1A1,1,0,0,1,270,278.72Z" style="fill: rgb(255, 199, 39); transform-origin: 269px 278.72px;" id="elq0hi7ojdzy" class="animable"></path><path d="M265.17,272.78a1,1,0,1,1-1-1A1,1,0,0,1,265.17,272.78Z" style="fill: rgb(255, 199, 39); transform-origin: 264.17px 272.78px;" id="elsue1uiqqodj" class="animable"></path><path d="M269,280.88a.54.54,0,1,1-.54-.54A.54.54,0,0,1,269,280.88Z" style="fill: rgb(255, 199, 39); transform-origin: 268.46px 280.88px;" id="eloubw5cnoeb" class="animable"></path><path d="M265.51,272.91a.58.58,0,1,1,1.15,0,.58.58,0,0,1-1.15,0Z" style="fill: rgb(255, 199, 39); transform-origin: 266.085px 272.834px;" id="el0ul6wthkn35e" class="animable"></path><g id="el3rnp8ak18na"><g style="opacity: 0.6; transform-origin: 270.31px 275.316px;" class="animable"><path d="M277.45,274.06a1.31,1.31,0,0,1-1.3,1.3,1.25,1.25,0,0,1-1-.47,1.32,1.32,0,0,1-1.21.81,1.34,1.34,0,0,1-.49-.1,2.28,2.28,0,0,1-2.28,2.14,2.22,2.22,0,0,1-1.68-.75,1.38,1.38,0,0,1-.49.1,1.29,1.29,0,0,1-.54-.12,1.8,1.8,0,1,1-1.5-2.81,2.22,2.22,0,0,1,.45.07.86.86,0,0,1,0-.17,1.36,1.36,0,0,1,.46-1,1.74,1.74,0,0,1-.88-1.5,1.73,1.73,0,0,1,3.31-.68,1.82,1.82,0,0,1,.9-.26,1.67,1.67,0,0,1,1,.36,2.38,2.38,0,0,1,4.68.63,2.29,2.29,0,0,1-.37,1.24A1.29,1.29,0,0,1,277.45,274.06Z" id="el99csciczurf" class="animable" style="transform-origin: 271.31px 273.486px;"></path><path d="M270,278.72a1,1,0,1,1-1-1A1,1,0,0,1,270,278.72Z" id="elkkcpjvpg59n" class="animable" style="transform-origin: 269px 278.72px;"></path><path d="M265.17,272.78a1,1,0,1,1-1-1A1,1,0,0,1,265.17,272.78Z" id="el33wu518742h" class="animable" style="transform-origin: 264.17px 272.78px;"></path><path d="M269,280.88a.54.54,0,1,1-.54-.54A.54.54,0,0,1,269,280.88Z" id="elix3f6erfmr8" class="animable" style="transform-origin: 268.46px 280.88px;"></path><path d="M265.51,272.91a.58.58,0,1,1,1.15,0,.58.58,0,0,1-1.15,0Z" id="elto016g5981" class="animable" style="transform-origin: 266.085px 272.834px;"></path></g></g><path d="M267.35,263.87s-.06.1,0,.15c.66,1.15,1.23,2.58.37,3.54,0,0,0,.09.05.06C268.93,266.75,268.17,264.85,267.35,263.87Z" style="fill: rgb(38, 50, 56); transform-origin: 267.843px 265.748px;" id="elzbib4xt5q6i" class="animable"></path><path d="M265.65,263.2c-2,.86-.09,4.73,1.73,3.93S267.3,262.48,265.65,263.2Z" style="fill: rgb(38, 50, 56); transform-origin: 266.46px 265.174px;" id="els01mvi785e" class="animable"></path><path d="M274.22,260.54c0-.05.12,0,.14.06.49,1.24,1.26,2.58,2.54,2.5a0,0,0,0,1,0,.08C275.49,263.57,274.48,261.79,274.22,260.54Z" style="fill: rgb(38, 50, 56); transform-origin: 275.56px 261.877px;" id="el3udoayoyn4v" class="animable"></path><path d="M274.76,258.79c1.9-1,3.75,2.87,2,3.8S273.17,259.63,274.76,258.79Z" style="fill: rgb(38, 50, 56); transform-origin: 275.807px 260.679px;" id="eld8k4i29np8n" class="animable"></path><path d="M262.31,260.66a16.15,16.15,0,0,0,1.44-1c.55-.4,1-.66,1.28-1.32a.92.92,0,0,0-.44-1,2.28,2.28,0,0,0-2.25.39,3.33,3.33,0,0,0-1.45,1.9A1,1,0,0,0,262.31,260.66Z" style="fill: rgb(38, 50, 56); transform-origin: 262.967px 258.978px;" id="el6i62dhctx08" class="animable"></path><path d="M275.27,256.16a17.05,17.05,0,0,1-1.73.34,2.87,2.87,0,0,1-1.83,0,.91.91,0,0,1-.44-1,2.26,2.26,0,0,1,1.84-1.36,3.27,3.27,0,0,1,2.36.26A1,1,0,0,1,275.27,256.16Z" style="fill: rgb(38, 50, 56); transform-origin: 273.577px 255.339px;" id="eltmm00ts8bz" class="animable"></path><path d="M271,275.62a2.05,2.05,0,0,0,1.35.22,3.51,3.51,0,0,0,1.14-.93,0,0,0,0,1,.08,0,1.8,1.8,0,0,1-1.21,1.39,1.42,1.42,0,0,1-1.45-.61C270.85,275.67,270.93,275.6,271,275.62Z" style="fill: rgb(38, 50, 56); transform-origin: 272.229px 275.618px;" id="elouwpkmg8sk" class="animable"></path><path d="M270.51,271.43a4.54,4.54,0,0,0,3.6.5,5.68,5.68,0,0,0,1.5-.65,1.13,1.13,0,0,0,.26-.16l.25-.17a.34.34,0,0,0,.11-.39h0a.47.47,0,0,0-.07-.12h0l-.06-.1c-.42-.94-1.19-2.3-1.19-2.3.42,0,2.51,0,2.25-.52a68.21,68.21,0,0,0-7.55-11.57.12.12,0,0,0-.2.14c1.93,3.8,4.52,7.24,6.53,11a7.82,7.82,0,0,0-2.21.34c-.11.11,1.54,2.6,1.69,3a.12.12,0,0,1,0,.05,6.31,6.31,0,0,1-4.85.73C270.45,271.24,270.39,271.37,270.51,271.43Z" style="fill: rgb(38, 50, 56); transform-origin: 273.285px 263.999px;" id="elz0lze3t6t9j" class="animable"></path><path d="M274.84,271.08a5.34,5.34,0,0,1-1.21,2.44,2.41,2.41,0,0,1-1.28.72c-1.08.21-1.53-.65-1.72-1.49a6,6,0,0,1-.12-1.36A7,7,0,0,0,274.84,271.08Z" style="fill: rgb(38, 50, 56); transform-origin: 272.674px 272.676px;" id="el7vnubqo9tsv" class="animable"></path><path d="M273.63,273.52a2.41,2.41,0,0,1-1.28.72c-1.08.21-1.53-.65-1.72-1.49A2.5,2.5,0,0,1,273.63,273.52Z" style="fill: rgb(255, 151, 184); transform-origin: 272.13px 273.404px;" id="elutzx4w0wdyk" class="animable"></path><path d="M247.7,273.41c5.24-1.32,5.91-8.31,3.09-12.83,0,0,14.21-2.67,11.27-13.81a11.33,11.33,0,0,0,10.47,2l2.84,3.53c1.27-.87,1.45-5.32-3-7.31,0,0-2-5.38-7.12-7.33a7.83,7.83,0,0,0-8.37,1.51,11.89,11.89,0,0,0-8.88.68,10.13,10.13,0,0,0-5.37,7.54s-6.32,3.51-5.89,8.67a10.44,10.44,0,0,0,4,7.57s-1.08,2.44,1.12,6.25C243.25,272.32,246.13,273.81,247.7,273.41Z" style="fill: rgb(38, 50, 56); transform-origin: 256.436px 255.265px;" id="elio9oyevl2vj" class="animable"></path><path d="M261.44,245.9a12.67,12.67,0,0,1,.91,2.66,11.57,11.57,0,0,1,.36,2.74,7.29,7.29,0,0,1-1.87,5,11.63,11.63,0,0,1-4.6,2.91c-.89.26-1.77.59-2.69.81s-1.83.38-2.76.6c.94-.07,1.88-.19,2.83-.28s1.85-.44,2.78-.65a11.55,11.55,0,0,0,4.94-2.95,7.54,7.54,0,0,0,1.87-5.41A11.34,11.34,0,0,0,261.44,245.9Z" style="fill: rgb(38, 50, 56); transform-origin: 257.006px 253.26px;" id="eljy17j8mhuu" class="animable"></path><path d="M270.54,249.91a15,15,0,0,1-4.86-.87,8.81,8.81,0,0,1-2.14-1.14,11.16,11.16,0,0,1-1.83-1.69,6.08,6.08,0,0,0,1.51,2.09,6.58,6.58,0,0,0,2.22,1.36,8.27,8.27,0,0,0,2.55.52A7.55,7.55,0,0,0,270.54,249.91Z" style="fill: rgb(38, 50, 56); transform-origin: 266.125px 248.203px;" id="elpic33rmnvr" class="animable"></path><path d="M254.34,271.75s-6.21-4.49-8.39-2.08,3.93,9.93,7.49,10a3.4,3.4,0,0,0,3.71-3.22Z" style="fill: rgb(247, 169, 160); transform-origin: 251.321px 274.322px;" id="eljckx5fhimvl" class="animable"></path><path d="M247.75,271.78a0,0,0,0,0,0,.09c2.53.13,4.41,1.78,6,3.63a1.88,1.88,0,0,0-2.82.43c0,.07,0,.14.1.1a2.07,2.07,0,0,1,2.41-.06,9.62,9.62,0,0,1,1.66,1.4c.17.16.49-.07.34-.27l0-.05C254.45,274.21,250.88,271,247.75,271.78Z" style="fill: rgb(38, 50, 56); transform-origin: 251.614px 274.542px;" id="el0msz6fndjtxd" class="animable"></path><path d="M254.78,298.29a85.47,85.47,0,0,0,8,5.76c2.66,1.58,5.72,2.86,8.81,2.5s5.81-1.56,6.14-5.38c.26-3-.49-5.94-1.76-9.49a.11.11,0,1,1,.21-.08c1.65,4.57,3.88,11.71-.05,14.23-4.4,2.82-9.61,1.34-13.67-1.26a45,45,0,0,1-7.8-6.19S254.73,298.25,254.78,298.29Z" style="fill: rgb(38, 50, 56); transform-origin: 266.491px 299.442px;" id="elgsn6mcs5ce8" class="animable"></path></g><g id="freepik--Hearts--inject-35" class="animable animator-hidden" style="transform-origin: 293.819px 208.946px;"><path d="M288.74,227.45c1.18,6.64,7,12.08,7,12.08s7.85-1.44,12.41-6.4c3.8-4.14,3.81-9.81.37-12-4.94-3.22-9.08,5.8-9.08,5.8s1.36-9.83-4.54-9.78C290.8,217.14,287.76,221.92,288.74,227.45Z" style="fill: rgb(255, 199, 39); transform-origin: 299.803px 228.34px;" id="elipw81lpjvjm" class="animable"></path><path d="M280,211.34c4.1,2.79,10,2.51,10,2.51s3.27-4.87,3-9.82c-.22-4.13-3.2-7.05-6.15-6.39-4.24,1-1.61,7.77-1.61,7.77s-4.48-5.77-7.49-2.64C275.57,205,276.53,209,280,211.34Z" style="fill: rgb(255, 199, 39); transform-origin: 284.801px 205.702px;" id="elywcc8n14j7" class="animable"></path><path d="M298.31,184.64a12.44,12.44,0,0,0,5.24,4.34,12.35,12.35,0,0,0,4.59-5c1-2.53.1-5.12-1.86-5.56-2.79-.64-3.17,4.18-3.17,4.18s-1-4.73-3.72-3.71C297.52,179.58,296.93,182.28,298.31,184.64Z" style="fill: rgb(255, 199, 39); transform-origin: 303.052px 183.671px;" id="elxpiyczd8hm9" class="animable"></path></g><defs>     <filter id="active" height="200%">         <feMorphology in="SourceAlpha" result="DILATED" operator="dilate" radius="2"></feMorphology>                <feFlood flood-color="#32DFEC" flood-opacity="1" result="PINK"></feFlood>        <feComposite in="PINK" in2="DILATED" operator="in" result="OUTLINE"></feComposite>        <feMerge>            <feMergeNode in="OUTLINE"></feMergeNode>            <feMergeNode in="SourceGraphic"></feMergeNode>        </feMerge>    </filter>    <filter id="hover" height="200%">        <feMorphology in="SourceAlpha" result="DILATED" operator="dilate" radius="2"></feMorphology>                <feFlood flood-color="#ff0000" flood-opacity="0.5" result="PINK"></feFlood>        <feComposite in="PINK" in2="DILATED" operator="in" result="OUTLINE"></feComposite>        <feMerge>            <feMergeNode in="OUTLINE"></feMergeNode>            <feMergeNode in="SourceGraphic"></feMergeNode>        </feMerge>            <feColorMatrix type="matrix" values="0   0   0   0   0                0   1   0   0   0                0   0   0   0   0                0   0   0   1   0 "></feColorMatrix>    </filter></defs></svg>