<svg class="animated" id="freepik_stories-world-chocolate-day" xmlns="http://www.w3.org/2000/svg" viewBox="0 0 500 500" version="1.1" xmlns:xlink="http://www.w3.org/1999/xlink" xmlns:svgjs="http://svgjs.com/svgjs"><style>svg#freepik_stories-world-chocolate-day:not(.animated) .animable {opacity: 0;}svg#freepik_stories-world-chocolate-day.animated #freepik--chocolate-pieces--inject-32 {animation: 1.5s Infinite  linear floating;animation-delay: 0s;}svg#freepik_stories-world-chocolate-day.animated #freepik--character-2--inject-32 {animation: 1.5s Infinite  linear floating;animation-delay: 0s;}svg#freepik_stories-world-chocolate-day.animated #freepik--character-1--inject-32 {animation: 1.5s Infinite  linear floating;animation-delay: 0s;}            @keyframes floating {                0% {                    opacity: 1;                    transform: translateY(0px);                }                50% {                    transform: translateY(-10px);                }                100% {                    opacity: 1;                    transform: translateY(0px);                }            }        .animator-hidden { display: none; }</style><g id="freepik--background-complete--inject-32" class="animable animator-hidden" style="transform-origin: 250px 228.23px;"><rect y="382.4" width="500" height="0.25" style="fill: rgb(235, 235, 235); transform-origin: 250px 382.525px;" id="elvre00ogb25i" class="animable"></rect><rect x="416.78" y="398.49" width="33.12" height="0.25" style="fill: rgb(235, 235, 235); transform-origin: 433.34px 398.615px;" id="el92o6l0esnh4" class="animable"></rect><rect x="322.53" y="401.21" width="8.69" height="0.25" style="fill: rgb(235, 235, 235); transform-origin: 326.875px 401.335px;" id="eltxisjb3pjvc" class="animable"></rect><rect x="396.59" y="389.21" width="19.19" height="0.25" style="fill: rgb(235, 235, 235); transform-origin: 406.185px 389.335px;" id="elrp090l9whj" class="animable"></rect><rect x="52.46" y="390.89" width="43.19" height="0.25" style="fill: rgb(235, 235, 235); transform-origin: 74.055px 391.015px;" id="elg88uvx0o3l6" class="animable"></rect><rect x="104.56" y="390.89" width="6.33" height="0.25" style="fill: rgb(235, 235, 235); transform-origin: 107.725px 391.015px;" id="el2wlxu65sdi7" class="animable"></rect><rect x="131.47" y="395.11" width="93.68" height="0.25" style="fill: rgb(235, 235, 235); transform-origin: 178.31px 395.235px;" id="els8yfnfqz9jr" class="animable"></rect><path d="M237,337.8H43.91a5.71,5.71,0,0,1-5.7-5.71V60.66A5.71,5.71,0,0,1,43.91,55H237a5.71,5.71,0,0,1,5.71,5.71V332.09A5.71,5.71,0,0,1,237,337.8ZM43.91,55.2a5.46,5.46,0,0,0-5.45,5.46V332.09a5.46,5.46,0,0,0,5.45,5.46H237a5.47,5.47,0,0,0,5.46-5.46V60.66A5.47,5.47,0,0,0,237,55.2Z" style="fill: rgb(235, 235, 235); transform-origin: 140.46px 196.4px;" id="el9rzq1cdbabj" class="animable"></path><path d="M453.31,337.8H260.21a5.72,5.72,0,0,1-5.71-5.71V60.66A5.72,5.72,0,0,1,260.21,55h193.1A5.71,5.71,0,0,1,459,60.66V332.09A5.71,5.71,0,0,1,453.31,337.8ZM260.21,55.2a5.47,5.47,0,0,0-5.46,5.46V332.09a5.47,5.47,0,0,0,5.46,5.46h193.1a5.47,5.47,0,0,0,5.46-5.46V60.66a5.47,5.47,0,0,0-5.46-5.46Z" style="fill: rgb(235, 235, 235); transform-origin: 356.75px 196.4px;" id="el567a3y304ql" class="animable"></path><path d="M429.18,278.25c-4.74-10.26-53.1-2.75-53.56-12.89S398.41,243.5,391,235.67s-33.31-.19-43.62-9.71,1.63-24.45,12.29-41.48-2.69-22.23-28.41-18.29-29-.87-24.56-25.26,36.77-37.34,30.22-46.08-19.57-9.39-23.58,7.17-31.39,41.22-36.67,34,7.41-30-7.35-33.76c-3-.76-8.17,3.2-9.85,13s-10.54,13.44-20.44,3-16.74,0-24,3.71-11.26-15.21-13.61-28-8.09-14.47-11.55-6.41,14.73,31.92,8,37.24-26.43-5.93-18.83,12.27,9.36,38.42-2.43,26.64-23.37,3.4-28.15,9-14.28,6.33-24.49-1.86-18-33.73-36.29-35.46-22.07,14.55-10.92,21.45S129,185.3,121.82,195.31s-.44,13.9,10.36,24.89,6.65,18-4.29,31.86-7.36,14.2-.53,27.89-1.65,26.68-28.88,32.53-31.2-4.57-32.94,7.83,8.65,23.27,18.32,15.51,64.45-26.09,68.87-19.91-4.06,22.8,5,29.09,40.52-25.54,48.14-3.15,10.08,22,37.62,26.62c14,2.35,20.67-3.59,26.86-15,3.18-5.86,4.66-8.2,12-6.49,9,2.07,16.64,8.34,22.16,15.51,7.1,9.23,11.47,20.21,17,30.46,1.35,2.5,2.89,5.08,5.36,6.48s6.14,1.09,7.55-1.37c1.15-2,.46-4.51-.26-6.7-4.38-13.3-11.87-24.74-16-38.22-1.72-5.67-7-23.16,3.25-24.43,16.58-2.32,17.94-6.73,24-16.36s-3.5-13.27,1.84-23.2,52.37-2.5,68,2.59S433.92,288.51,429.18,278.25Z" style="fill: rgb(224, 224, 224); transform-origin: 248.287px 241.456px;" id="elusp2k3vgpn" class="animable"></path><polygon points="276.46 166.83 271.6 173.14 281.31 177.51 276.46 166.83" style="fill: rgb(240, 240, 240); transform-origin: 276.455px 172.17px;" id="elhghol41th6" class="animable"></polygon><polygon points="307.93 298.51 314.18 293.57 305.83 286.96 307.93 298.51" style="fill: rgb(240, 240, 240); transform-origin: 310.005px 292.735px;" id="elk9ulooiit4" class="animable"></polygon><polygon points="244.7 154.05 244.23 146.1 234.03 149.17 244.7 154.05" style="fill: rgb(240, 240, 240); transform-origin: 239.365px 150.075px;" id="elgvvi2auwahv" class="animable"></polygon><polygon points="244.09 296.07 239.24 302.38 248.95 306.75 244.09 296.07" style="fill: rgb(240, 240, 240); transform-origin: 244.095px 301.41px;" id="el9aaye80oll8" class="animable"></polygon><polygon points="252.18 204.71 259.94 205.19 258.97 213.93 249.75 211.5 252.18 204.71" style="fill: rgb(240, 240, 240); transform-origin: 254.845px 209.32px;" id="eliapm78qdinb" class="animable"></polygon><polygon points="312.17 253.33 308.48 260.19 300.94 255.66 307 248.29 312.17 253.33" style="fill: rgb(240, 240, 240); transform-origin: 306.555px 254.24px;" id="eli1w1ev2o24a" class="animable"></polygon><polygon points="224.27 337.41 232.04 337.9 231.07 346.64 221.84 344.21 224.27 337.41" style="fill: rgb(240, 240, 240); transform-origin: 226.94px 342.025px;" id="el6m5cjkw9u8m" class="animable"></polygon><path d="M278.63,237.3l4.86,1s-7.29,4.85-3.89,8.74-2.42,7.28-2.42,7.28l-4.37-2.91s3.88-2.91,1.94-6.8S278.63,237.3,278.63,237.3Z" style="fill: rgb(240, 240, 240); transform-origin: 278.15px 245.81px;" id="elo6lnl4a0y7j" class="animable"></path><polygon points="319.64 179.56 315.19 186.16 325.15 189.92 319.64 179.56" style="fill: rgb(240, 240, 240); transform-origin: 320.17px 184.74px;" id="elh4tbqbcp3yi" class="animable"></polygon><polygon points="340.11 136.54 342.82 129.05 332.24 127.83 340.11 136.54" style="fill: rgb(240, 240, 240); transform-origin: 337.53px 132.185px;" id="el3bs19odh3j9" class="animable"></polygon><polygon points="369.15 198.38 370.57 190.73 379.13 192.75 375.6 201.62 369.15 198.38" style="fill: rgb(240, 240, 240); transform-origin: 374.14px 196.175px;" id="el91k0idk73lt" class="animable"></polygon><path d="M340.59,225.12l-4.92.55s5.47-6.84,1.05-9.51.1-7.67.1-7.67l5.05,1.45s-2.82,3.95.21,7.06S340.59,225.12,340.59,225.12Z" style="fill: rgb(240, 240, 240); transform-origin: 338.953px 217.08px;" id="el8c9il8e7oz2" class="animable"></path><path d="M265.2,331.47l4.86,1s-7.29,4.86-3.89,8.74-2.42,7.29-2.42,7.29l-4.37-2.92s3.88-2.91,1.94-6.8S265.2,331.47,265.2,331.47Z" style="fill: rgb(240, 240, 240); transform-origin: 264.72px 339.985px;" id="elt0ogkusbal" class="animable"></path><polygon points="335.17 314.87 330.31 321.18 340.02 325.55 335.17 314.87" style="fill: rgb(240, 240, 240); transform-origin: 335.165px 320.21px;" id="elnoep9g9elhh" class="animable"></polygon><polygon points="374.71 264.71 382.48 265.19 381.51 273.93 372.28 271.51 374.71 264.71" style="fill: rgb(240, 240, 240); transform-origin: 377.38px 269.32px;" id="el0xci0q3eclia" class="animable"></polygon><path d="M301.7,328.73l4.86,1s-7.29,4.86-3.89,8.74-2.43,7.29-2.43,7.29l-4.37-2.91s3.89-2.92,1.94-6.8S301.7,328.73,301.7,328.73Z" style="fill: rgb(240, 240, 240); transform-origin: 301.215px 337.245px;" id="el0bbovzrvygx8" class="animable"></path><path d="M239.57,117.44l-3,.72s1.31-6.47-2.49-8.71-2.5-7-2.5-7l3.8,1.1a7.72,7.72,0,0,0,2.51,6.43C240.87,112.68,239.57,117.44,239.57,117.44Z" style="fill: rgb(240, 240, 240); transform-origin: 235.609px 110.305px;" id="elt3dyjymuy9o" class="animable"></path><path d="M232.71,262.81l-4.59,1.85s3.42-8.06-1.56-9.43-2-7.42-2-7.42l5.26,0s-1.65,4.57,2.11,6.75S232.71,262.81,232.71,262.81Z" style="fill: rgb(240, 240, 240); transform-origin: 228.753px 256.235px;" id="elway1qr985o" class="animable"></path><path d="M212.84,215.63A3.64,3.64,0,1,1,209.2,212,3.64,3.64,0,0,1,212.84,215.63Z" style="fill: rgb(240, 240, 240); transform-origin: 209.2px 215.64px;" id="el7kdhrfgeh8o" class="animable"></path><path d="M197.76,110.3a3.64,3.64,0,1,1-3.64-3.64A3.65,3.65,0,0,1,197.76,110.3Z" style="fill: rgb(240, 240, 240); transform-origin: 194.12px 110.3px;" id="elkahpficinoa" class="animable"></path><path d="M288.73,119.26a3.65,3.65,0,1,1-3.65-3.64A3.64,3.64,0,0,1,288.73,119.26Z" style="fill: rgb(240, 240, 240); transform-origin: 285.08px 119.27px;" id="elldfpjo6nluc" class="animable"></path><polygon points="186.41 165.73 180.62 171.19 189.52 177.05 186.41 165.73" style="fill: rgb(240, 240, 240); transform-origin: 185.07px 171.39px;" id="el60dvxkd629p" class="animable"></polygon><polygon points="157.56 278.85 161.42 271.89 151.17 269.01 157.56 278.85" style="fill: rgb(240, 240, 240); transform-origin: 156.295px 273.93px;" id="el6qju23gpnm8" class="animable"></polygon><polygon points="124.66 301.41 122.62 309.11 133.27 309.39 124.66 301.41" style="fill: rgb(240, 240, 240); transform-origin: 127.945px 305.4px;" id="elr7frfb9cb8n" class="animable"></polygon><polygon points="110.87 259.99 110.12 267.74 101.42 266.48 104.15 257.34 110.87 259.99" style="fill: rgb(240, 240, 240); transform-origin: 106.145px 262.54px;" id="ellayylj3xlng" class="animable"></polygon><polygon points="199.12 298.86 198.38 306.61 189.67 305.35 192.41 296.21 199.12 298.86" style="fill: rgb(240, 240, 240); transform-origin: 194.395px 301.41px;" id="eldos3ydzddc" class="animable"></polygon><path d="M165.56,222.91l4.85-1s-4.84,7.3-.2,9.57.57,7.65.57,7.65l-5.15-1s2.45-4.18-.84-7S165.56,222.91,165.56,222.91Z" style="fill: rgb(240, 240, 240); transform-origin: 167.967px 230.52px;" id="el8z9wap6dba9" class="animable"></path><polygon points="95.27 190.49 99.55 183.77 89.49 180.27 95.27 190.49" style="fill: rgb(240, 240, 240); transform-origin: 94.52px 185.38px;" id="elsfoy2s4xou" class="animable"></polygon><polygon points="145 184.54 137.22 184.74 137.42 175.95 146.82 177.55 145 184.54" style="fill: rgb(240, 240, 240); transform-origin: 142.02px 180.345px;" id="elry10docq56d" class="animable"></polygon><path d="M148.08,137.54l-4.93-.54s6.83-5.48,3.1-9,1.78-7.47,1.78-7.47l4.61,2.52s-3.61,3.24-1.33,6.94S148.08,137.54,148.08,137.54Z" style="fill: rgb(240, 240, 240); transform-origin: 147.895px 129.035px;" id="eltgu1tp3uj1a" class="animable"></path><path d="M178.55,343.75a3.64,3.64,0,1,1,3.95,3.31A3.64,3.64,0,0,1,178.55,343.75Z" style="fill: rgb(240, 240, 240); transform-origin: 182.176px 343.434px;" id="els93chl6koz" class="animable"></path></g><g id="freepik--Shadow--inject-32" class="animable animator-hidden" style="transform-origin: 250px 416.24px;"><ellipse id="freepik--path--inject-32" cx="250" cy="416.24" rx="193.89" ry="11.32" style="fill: rgb(245, 245, 245); transform-origin: 250px 416.24px;" class="animable"></ellipse></g><g id="freepik--chocolate-pieces--inject-32" class="animable" style="transform-origin: 254.65px 259.02px;"><path d="M259.08,342.11s3.19,1.29,3.57.8,1.56-.41,1.56-.41,6.52,4,6.88,4,3.88-1,3.88-1l3-.73,3.75-1.94,2.26-3.43,4.68.49,4.17-1.47s5.36,2.61,5,2.54-24.4,16.84-25.23,17.06-15.75-2.69-15.75-2.69Z" style="fill: rgb(38, 50, 56); transform-origin: 277.349px 348.226px;" id="elbhmeuzj9z4r" class="animable"></path><path d="M314.89,348.71l-4.7,7.38-2.11,5.05s-4.7,5.41-4.79,5.79-1.32,3.8-1.32,3.8l-2.37,2.84s-.48.71-1.12,1.75-4.21,7.48-4.21,7.48l-1.68,3.85-4,2.86-.29.2-1.55-1.17,0,0h0l-2.89-.34-9-5.54L268,377.15l-12.6-6.44L252.48,368l-4.57-2.63-.74-1.13.67-1,1.45-2.28v0l11.09-17.4c.54.46,1.13.82,1.59.7a7.42,7.42,0,0,1,2.69.05s4,4.77,4.64,5.23,3.77-.57,4.48-.26,2-3.47,2.83-3.68,4.05.06,5.79-.58,2.26-2.94,2.26-2.94l2.87-.36s0,0,0,0a24.26,24.26,0,0,1,2.34-1c.52-.12,2.83-.74,3-.79h0l1.63-1.54,3.27-.46h0l13.36,8.52Z" style="fill: rgb(38, 50, 56); transform-origin: 281.03px 363.82px;" id="elchwtee0lh8j" class="animable"></path><g id="elo2v11kcv6lh"><path d="M311.2,346.36s-4.29,7.35-4,7.82l-2.88,3s-4.12,7.43-4.83,8.38c-.5.64-14.27,20.64-15.57,22.51l-.09.14-9-5.54L268,377.15l-12.6-6.44L252.48,368l-4.57-2.63-.74-1.13.67-1,1.45-2.28v0l11.09-17.4c.54.46,1.13.82,1.59.7a7.42,7.42,0,0,1,2.69.05s4,4.77,4.64,5.23,3.77-.57,4.48-.26,2-3.47,2.83-3.68,4.05.06,5.79-.58,2.26-2.94,2.26-2.94l2.87-.36s0,0,0,0a24.26,24.26,0,0,1,2.34-1c.52-.12,2.83-.74,3-.79h0l1.63-1.54,3.27-.46h0Z" style="fill: rgb(255, 255, 255); opacity: 0.2; transform-origin: 279.185px 363.07px;" class="animable" id="el5zwohlnrgl5"></path></g><g id="eltw30ru3wryr"><path d="M288.33,389.71l-1.56-1.17,1.84,1Z" style="fill: rgb(255, 255, 255); opacity: 0.2; transform-origin: 287.69px 389.125px;" class="animable" id="elpaeq6aa8n4"></path></g><path d="M308.35,349.67h0L283.91,388l-.09.14-9-5.54L268,377.15l-12.6-6.44L252.48,368l-4.57-2.63-.07-2.17-.11-3.28h0l11.35-17.8a11.51,11.51,0,0,0,1.31,1.39c.54.46,1.13.82,1.59.7a7.42,7.42,0,0,1,2.69.05s4,4.77,4.64,5.23,3.77-.57,4.48-.26,2-3.47,2.83-3.68,4.05.06,5.79-.58,2.26-2.94,2.26-2.94l2.87-.36s0,0,0,0a24.26,24.26,0,0,1,2.34-1c.52-.12,2.83-.74,3-.79h0Z" style="fill: rgb(38, 50, 56); transform-origin: 278.04px 364.01px;" id="elkb7pmgo1se8" class="animable"></path><g id="ela8db9kugcnf"><polygon points="308.35 349.68 298.57 348.6 278.79 379.62 283.81 388.17 308.35 349.68" style="fill: rgb(255, 255, 255); opacity: 0.1; transform-origin: 293.57px 368.385px;" class="animable" id="el94d95l2um5d"></polygon></g><g id="el2h3bdvty602"><path d="M308.35,349.67h0l-9.76-1.08-11-7a24.26,24.26,0,0,1,2.34-1c.52-.12,2.83-.74,3-.79h0Z" style="fill: rgb(255, 255, 255); opacity: 0.3; transform-origin: 297.97px 344.735px;" class="animable" id="eln8jgv26114"></path></g><g id="elgbxitxasujc"><path d="M298.52,348.66l-15.16,23.79-4.57,7.17,0,.07L249.3,360.9l-1.57-1,11.35-17.8a11.51,11.51,0,0,0,1.31,1.39c.54.46,1.13.82,1.59.7a7.42,7.42,0,0,1,2.69.05s4,4.77,4.64,5.23,3.77-.57,4.48-.26,2-3.47,2.83-3.68,4.05.06,5.79-.58,2.26-2.94,2.26-2.94l2.87-.36Z" style="fill: rgb(255, 255, 255); opacity: 0.2; transform-origin: 273.125px 360.67px;" class="animable" id="elk2v0ie5683"></path></g><g id="elgiq9jnw9hq9"><polygon points="292.44 380.39 291.88 382.87 290.21 383.9 290.31 382.37 292.44 380.39" style="fill: rgb(255, 255, 255); opacity: 0.1; transform-origin: 291.325px 382.145px;" class="animable" id="el36q9juoabl7"></polygon></g><g id="elontbh9fbjm"><path d="M296.67,373.88l1.76-.83s-.43,2.26-1.25,2A.86.86,0,0,1,296.67,373.88Z" style="fill: rgb(255, 255, 255); opacity: 0.1; transform-origin: 297.512px 374.06px;" class="animable" id="elpwicatws4f"></path></g><g id="elp5epccupvt"><path d="M309.4,356s-1.95,3.4-2.91,3.37a10,10,0,0,1,0-2.38C306.71,356.42,308.32,354.69,309.4,356Z" style="fill: rgb(255, 255, 255); opacity: 0.1; transform-origin: 307.909px 357.446px;" class="animable" id="elf6c2jqayscw"></path></g><path d="M286.77,388.54l0,0h0Z" style="fill: rgb(255, 255, 255); transform-origin: 286.77px 388.54px;" id="elt8jy41y6zv" class="animable"></path><path d="M177.74,128.33l2.52,8.39,2.44,4.89s1,7.09,1.25,7.41,2,3.48,2,3.48l.61,3.64s.22.83.59,2c.18.55.85,2.43,1.5,4.21L184,164.83h0l-.53-.12h0l-9.91-2.31L171.9,162l-3.19-.16-2.12-3.41-4.93-1.08-8-6.89c.66-1.72-.75-3.64-.75-3.64l1.6-2.4a.15.15,0,0,0,0-.06c.1-.32.56-2,.78-2.42s1.28-2.62,1.37-2.79h0l-.1-2.23,1.78-2.78h0l15.18-4.54Z" style="fill: rgb(38, 50, 56); transform-origin: 170.78px 146.58px;" id="ela0hrdzr81za" class="animable"></path><g id="ela5juhjpk53"><path d="M176.85,137.74l.36,4.1s2.94,8,3.19,9.14c.09.42,1.85,7.22,3.58,13.85h0l-.53-.12h0l-9.91-2.31L171.9,162l-3.19-.16-2.12-3.41-4.93-1.08-8-6.89c.66-1.72-.75-3.64-.75-3.64l1.6-2.4a.15.15,0,0,0,0-.06c.1-.32.56-2,.78-2.42s1.28-2.62,1.37-2.79h0l-.1-2.23,1.78-2.78h0l15.18-4.54S176.31,137.65,176.85,137.74Z" style="fill: rgb(255, 255, 255); opacity: 0.2; transform-origin: 168.445px 147.215px;" class="animable" id="el4qw0zeh4vu4"></path></g><path d="M174.19,133.91h0l5.37,17.87,3.89,12.92h0l-9.91-2.31L171.9,162l-3.19-.16-2.12-3.41-4.93-1.08-8-6.89c.66-1.72-.75-3.64-.75-3.64l1.6-2.4a.15.15,0,0,0,0-.06c.1-.32.56-2,.78-2.42s1.28-2.62,1.37-2.79h0Z" style="fill: rgb(38, 50, 56); transform-origin: 168.18px 149.305px;" id="ellidb1bome38" class="animable"></path><g id="eltj4plzisc4"><polygon points="174.2 133.91 179.56 151.79 183.44 164.71 173.53 162.4 167 140.62 174.19 133.92 174.2 133.91" style="fill: rgb(255, 255, 255); opacity: 0.1; transform-origin: 175.22px 149.31px;" class="animable" id="elam9oo4ld4bm"></polygon></g><g id="eltl7sdjkcbe"><path d="M174.19,133.91h0l-7.2,6.69-12.46,3.77c.1-.32.56-2,.78-2.42s1.29-2.62,1.37-2.79h0Z" style="fill: rgb(255, 255, 255); opacity: 0.3; transform-origin: 164.36px 139.14px;" class="animable" id="elasulzrgp1n6"></path></g><g id="elsdyqe4rr1a8"><path d="M167,140.69l6.52,21.71L171.9,162l-3.19-.16-2.12-3.41-4.93-1.08-8-6.89c.66-1.72-.75-3.64-.75-3.64l1.6-2.4Z" style="fill: rgb(255, 255, 255); opacity: 0.2; transform-origin: 163.215px 151.545px;" class="animable" id="elr7yy7fpne8"></path></g><g id="elxn5lkkn3jun"><path d="M184.9,158.57l.52-1.88s1.43,1.8.66,2.22A.85.85,0,0,1,184.9,158.57Z" style="fill: rgb(255, 255, 255); opacity: 0.1; transform-origin: 185.604px 157.858px;" class="animable" id="eleyxdjn6i8q"></path></g><g id="elrtzkt8hx957"><path d="M179.64,137.22s1.3,3.7.65,4.4a9.33,9.33,0,0,1-1.78-1.57C178.23,139.56,178,137.21,179.64,137.22Z" style="fill: rgb(255, 255, 255); opacity: 0.1; transform-origin: 179.392px 139.42px;" class="animable" id="elptjzza1senk"></path></g><path d="M224.72,141.27l-.05,0h0Z" style="fill: rgb(255, 255, 255); transform-origin: 224.695px 141.27px;" id="elgobm6iafavl" class="animable"></path><path d="M399.69,175v-6.35h5.66s-.91,5.14-1.49,5.14A37.89,37.89,0,0,0,399.69,175Z" style="fill: rgb(38, 50, 56); transform-origin: 402.52px 171.825px;" id="elddb0x9647vl" class="animable"></path><g id="el9ateambx1p5"><path d="M399.69,168.66l2.83,2.32s-1,3.28-2.83,4Z" style="fill: rgb(255, 255, 255); opacity: 0.2; transform-origin: 401.105px 171.82px;" class="animable" id="el4z0lh0hbqyg"></path></g><path d="M145.53,385.32V379h5.66s-.9,5.13-1.49,5.13A37.89,37.89,0,0,0,145.53,385.32Z" style="fill: rgb(38, 50, 56); transform-origin: 148.36px 382.16px;" id="eliwreeqadta9" class="animable"></path><g id="elvyxue4gffki"><path d="M145.53,379l2.83,2.31s-1,3.28-2.83,4Z" style="fill: rgb(255, 255, 255); opacity: 0.2; transform-origin: 146.945px 382.155px;" class="animable" id="eljuqad0s9rxo"></path></g><path d="M287.38,294.32V288H293s-.91,5.13-1.49,5.13A37.89,37.89,0,0,0,287.38,294.32Z" style="fill: rgb(38, 50, 56); transform-origin: 290.19px 291.16px;" id="el1m255iwdwlc" class="animable"></path><g id="el6d4c2dmbd3m"><path d="M287.38,288l2.83,2.31s-1,3.28-2.83,4Z" style="fill: rgb(255, 255, 255); opacity: 0.2; transform-origin: 288.795px 291.155px;" class="animable" id="elh8vcb6dq5sj"></path></g><path d="M416.57,258.44l6.06-1.87,1.68,5.41s-5.18.65-5.35.09A37.61,37.61,0,0,0,416.57,258.44Z" style="fill: rgb(38, 50, 56); transform-origin: 420.44px 259.434px;" id="elrpuq6250px" class="animable"></path><g id="el2k5twt6voof"><path d="M422.63,256.57,421.26,260s-3.44,0-4.69-1.52Z" style="fill: rgb(255, 255, 255); opacity: 0.2; transform-origin: 419.6px 258.285px;" class="animable" id="elelz3cfb3pr9"></path></g><path d="M179.16,196.37l6.07-1.87,1.67,5.41s-5.18.65-5.35.09A37.61,37.61,0,0,0,179.16,196.37Z" style="fill: rgb(38, 50, 56); transform-origin: 183.03px 197.364px;" id="elv8at1176r" class="animable"></path><g id="el3surt96agsb"><path d="M185.23,194.5l-1.38,3.39s-3.44,0-4.69-1.52Z" style="fill: rgb(255, 255, 255); opacity: 0.2; transform-origin: 182.195px 196.195px;" class="animable" id="el482jadk9idj"></path></g><path d="M294.32,185.06l7.45,1.71s-2.26,6.36-4.45,6.61a44,44,0,0,1-5.86,0v-4.11Z" style="fill: rgb(38, 50, 56); transform-origin: 296.615px 189.269px;" id="elfhji3wgtbih" class="animable"></path><g id="elu7zf2bzyvt"><polygon points="291.46 189.27 295.31 190.38 296.61 191.85 301.76 186.77 294.32 185.06 291.46 189.27" style="fill: rgb(255, 255, 255); opacity: 0.2; transform-origin: 296.61px 188.455px;" class="animable" id="elx0rjd6zoiwm"></polygon></g><path d="M224.09,368.42,223,376s-6.53-1.69-7-3.85a42.21,42.21,0,0,1-.51-5.84l4.08-.35Z" style="fill: rgb(38, 50, 56); transform-origin: 219.79px 370.98px;" id="elrjeknsd6rdc" class="animable"></path><g id="ellsxg9io9uur"><polygon points="219.65 365.94 218.88 369.87 217.53 371.29 223.03 375.98 224.09 368.42 219.65 365.94" style="fill: rgb(255, 255, 255); opacity: 0.2; transform-origin: 220.81px 370.96px;" class="animable" id="elh4gi7duhc36"></polygon></g><path d="M85.88,276.63,93.33,275s.7,6.71-1.17,7.88a43.46,43.46,0,0,1-5.29,2.52l-1.76-3.71Z" style="fill: rgb(38, 50, 56); transform-origin: 89.2842px 280.2px;" id="el9twi4rz2qk" class="animable"></path><g id="elltiy2whsmnr"><polygon points="85.11 281.67 89.06 281.01 90.86 281.77 93.33 274.97 85.88 276.63 85.11 281.67" style="fill: rgb(255, 255, 255); opacity: 0.2; transform-origin: 89.22px 278.37px;" class="animable" id="el8wbvyxni037"></polygon></g><path d="M124.42,184.89a44.6,44.6,0,0,0-3.09,3.8c-.09.38-1.32,3.8-1.32,3.8l-2.36,2.84s-.49.71-1.12,1.75-4.22,7.49-4.22,7.49l-1.67,3.84-4,2.86h0l-.28.21-1.56-1.17,0,0h0l-2.9-.33-9-5.55-5-4h0L86,198.91l-1-5,11.1-9.36L99,182.26l0,0,7.58-1,3.83-1.49s4.64,1,6,0c.81-.61,2.53.39,3.78,1.29a18.75,18.75,0,0,1,1.48,1.16Z" style="fill: rgb(38, 50, 56); transform-origin: 104.71px 195.531px;" id="elw246uowgmzi" class="animable"></path><g id="elh7k6fiz5e9m"><path d="M120.23,182.69c-1.13,2-2.35,4.12-2.71,4.59-.49.64-14.27,20.63-15.56,22.51l-.1.14h0l-9-5.55-5-4h0L86,198.91l-1-5,11.1-9.36L99,182.26l4.12,2.31,6.31-3h0l1-.49,9,1.13h0Z" style="fill: rgb(255, 255, 255); opacity: 0.2; transform-origin: 102.615px 195.505px;" class="animable" id="elrvla2tcm8w"></path></g><g id="elw0fkfsknaoe"><path d="M106.37,211.47l-1.55-1.17,1.83,1Z" style="fill: rgb(255, 255, 255); opacity: 0.2; transform-origin: 105.735px 210.885px;" class="animable" id="elmnbu9b1hfgl"></path></g><path d="M120.26,181.06l-.74,1.16L102,209.79l-.1.14h0l-9-5.55-5-4h0L86,198.91l-1-5,11.1-9.36L99,182.26l0,0,7.58-1,3.83-1.49s4.64,1,6,0C117.29,179.16,119,180.16,120.26,181.06Z" style="fill: rgb(38, 50, 56); transform-origin: 102.63px 194.756px;" id="elywanfu1bpkt" class="animable"></path><g id="elijmez1my33i"><polygon points="119.52 182.22 119.53 182.22 101.96 209.79 101.86 209.93 96.84 201.38 101.41 194.21 109.46 181.59 109.47 181.58 110.49 181.09 119.52 182.22" style="fill: rgb(255, 255, 255); opacity: 0.1; transform-origin: 108.185px 195.51px;" class="animable" id="elvqn3qj699tr"></polygon></g><g id="elvk2moho46p9"><polygon points="109.46 181.59 101.41 194.21 96.84 201.38 96.8 201.45 84.99 193.93 96.08 184.57 99.03 182.26 103.15 184.57 109.46 181.59" style="fill: rgb(255, 255, 255); opacity: 0.2; transform-origin: 97.225px 191.52px;" class="animable" id="elrgreeinxslq"></polygon></g><g id="elnxgidjddmi"><polygon points="110.49 202.16 109.93 204.63 108.25 205.66 108.36 204.13 110.49 202.16" style="fill: rgb(255, 255, 255); opacity: 0.1; transform-origin: 109.37px 203.91px;" class="animable" id="elntpxv36qgo"></polygon></g><g id="elunwxc3ji3ys"><path d="M114.71,195.64l1.77-.83s-.43,2.26-1.25,2A.87.87,0,0,1,114.71,195.64Z" style="fill: rgb(255, 255, 255); opacity: 0.1; transform-origin: 115.559px 195.82px;" class="animable" id="eltmotr64fe"></path></g><path d="M104.82,210.3l-.06,0h0Z" style="fill: rgb(255, 255, 255); transform-origin: 104.79px 210.3px;" id="el2goe3jzm3le" class="animable"></path><polygon points="86 198.91 84.99 193.93 87.82 200.37 87.81 200.37 86 198.91" style="fill: rgb(255, 255, 255); transform-origin: 86.405px 197.15px;" id="elywexz7gsul" class="animable"></polygon><path d="M394,294.13c-1.56-1.36-3.55-3.06-3.77-3.12-.38-.09-3.8-1.35-3.8-1.35l-2.81-2.39s-.71-.48-1.75-1.13-7.44-4.28-7.44-4.28l-3.84-1.71-2.82-4h0l-.2-.28,1.18-1.55,0,0v0l.36-2.89,5.62-9,4.07-5h0l1.47-1.8,5-1,9.27,11.17,2.28,3,.05.06.89,7.59,1.46,3.84s-1,4.64-.05,6c.59.81-.41,2.53-1.32,3.77-.61.84-1.17,1.47-1.17,1.47Z" style="fill: rgb(38, 50, 56); transform-origin: 383.458px 274.38px;" id="el90pkdc6trkr" class="animable"></path><g id="el9tq9gde6btn"><path d="M396.22,290c-2-1.15-4.1-2.39-4.57-2.76-.64-.49-20.51-14.43-22.38-15.75l-.14-.09h0l5.62-9,4.07-5h0l1.47-1.8,5-1,9.27,11.17,2.28,3-2.34,4.11,2.93,6.33h0l.47,1-1.2,9h0Z" style="fill: rgb(255, 255, 255); opacity: 0.2; transform-origin: 383.515px 272.3px;" class="animable" id="elgp4bhg19mn"></path></g><g id="elj5d5rxqvir"><path d="M367.55,275.86l1.18-1.54c-.28.54-.62,1.17-1,1.83Z" style="fill: rgb(255, 255, 255); opacity: 0.2; transform-origin: 368.14px 275.235px;" class="animable" id="elqo00vov4vet"></path></g><path d="M397.85,290l-1.16-.75-27.42-17.8-.14-.09h0l5.62-9,4.07-5h0l1.47-1.8,5-1,9.27,11.17,2.28,3,.05.06.89,7.59,1.46,3.84s-1,4.64-.05,6C399.76,287.05,398.76,288.77,397.85,290Z" style="fill: rgb(38, 50, 56); transform-origin: 384.243px 272.28px;" id="elav7o5bk2uyg" class="animable"></path><g id="elhhgb8fivndk"><polygon points="396.69 289.26 396.69 289.27 369.27 271.46 369.13 271.37 377.72 266.41 384.86 271.05 397.41 279.2 397.42 279.21 397.89 280.24 396.69 289.26" style="fill: rgb(255, 255, 255); opacity: 0.1; transform-origin: 383.51px 277.84px;" class="animable" id="elvxy0qld70w"></polygon></g><g id="el9hw8g4abaui"><polygon points="397.41 279.2 384.86 271.05 377.72 266.41 377.65 266.38 385.27 254.63 394.54 265.81 396.82 268.76 394.48 272.87 397.41 279.2" style="fill: rgb(255, 255, 255); opacity: 0.2; transform-origin: 387.53px 266.915px;" class="animable" id="elg6jijxwgihj"></polygon></g><g id="el3liaxp5j1v8"><polygon points="376.83 280.06 374.36 279.48 373.34 277.79 374.87 277.91 376.83 280.06" style="fill: rgb(255, 255, 255); opacity: 0.1; transform-origin: 375.085px 278.925px;" class="animable" id="elp8hds6fi9e"></polygon></g><g id="el5i2z8ocxub5"><path d="M383.31,284.34l.82,1.77s-2.26-.45-1.95-1.27A.86.86,0,0,1,383.31,284.34Z" style="fill: rgb(255, 255, 255); opacity: 0.1; transform-origin: 383.14px 285.194px;" class="animable" id="el34307b4705u"></path></g><path d="M368.73,274.32s0,0,0-.06v0Z" style="fill: rgb(255, 255, 255); transform-origin: 368.73px 274.29px;" id="elv1f655lceq9" class="animable"></path><polygon points="380.29 255.6 385.27 254.63 378.81 257.41 378.81 257.4 380.29 255.6" style="fill: rgb(255, 255, 255); transform-origin: 382.04px 256.02px;" id="elwdpqs5qc1lb" class="animable"></polygon></g><g id="freepik--character-2--inject-32" class="animable" style="transform-origin: 349.281px 273.695px;"><path d="M324.78,235.52s-7.29-14.35-7.5-16.94,12.64-18.22,12.64-18.22,2.09-.13,2.52-1.48c.39-1.2-5.56-10.75-5.56-10.75a3.16,3.16,0,0,0-2.18,2.37c-.29,1.83.81,7.76.81,7.76S311,213.83,311.57,218.58s11.19,29.28,11.19,29.28Z" style="fill: rgb(238, 193, 187); transform-origin: 322.006px 217.995px;" id="el639bidycja5" class="animable"></path><path d="M322.08,280.31s-4.27-25.82,2.7-44.79c0,0,8,8.08,14.11,9.14s16.6-3.44,16.6-3.44c-1.08,20.85-8.86,41.9-8.86,41.9Z" style="fill: rgb(38, 50, 56); transform-origin: 338.138px 259.32px;" id="elcrgdbebk2w6" class="animable"></path><g id="el8725r8s54ns"><path d="M327.8,350.54c2.22-7.66,4-14.47,5.29-20.51a189.83,189.83,0,0,0-1.56-21.39S328,336.23,327.8,350.54Z" style="opacity: 0.2; isolation: isolate; transform-origin: 330.445px 329.59px;" class="animable" id="el9up3uk3pu5n"></path></g><path d="M334.19,243.67a6,6,0,0,1,.83-.19c.67-.36,1.57-1.35,2-4.06a21.47,21.47,0,0,0,.25-3.21l7.76-.1s-3.44,4.61-2,8.74c.67.46,1.1,1,.85,1.59-1.14,2.55-9.67,4.38-9.67,4.38S329.23,245.38,334.19,243.67Z" style="fill: rgb(238, 193, 187); transform-origin: 338.51px 243.465px;" id="elnny9vnno12" class="animable"></path><g id="elbg506rmy90f"><path d="M337.28,236.21a21.47,21.47,0,0,1-.25,3.21c5.07.89,8-3.31,8-3.31Z" style="opacity: 0.2; isolation: isolate; transform-origin: 341.03px 237.827px;" class="animable" id="eldi9emb0m5jv"></path></g><path d="M350.93,215.84s-6.79-5.94-12.17-.89a11.1,11.1,0,0,0-3,11.49Z" style="fill: rgb(38, 50, 56); transform-origin: 343.082px 219.678px;" id="el690vw3eok22" class="animable"></path><path d="M349.46,219.48c-5.29-4-9.14-2.46-13.66,2.7-5.64,6.46-7.8,12.45-.07,16C346.22,243,358.26,226.13,349.46,219.48Z" style="fill: rgb(238, 193, 187); transform-origin: 341.611px 228.124px;" id="elgj1cznhub7t" class="animable"></path><path d="M339.45,224.48a13.89,13.89,0,0,1-3.21,1,1.82,1.82,0,0,0,.95,1.65Z" style="fill: rgb(212, 130, 125); transform-origin: 337.845px 225.805px;" id="ela33xe2463md" class="animable"></path><path d="M343,226.5c-.34.42-.38.95-.1,1.18s.79.06,1.13-.37.38-.95.1-1.18S343.36,226.07,343,226.5Z" style="fill: rgb(38, 50, 56); transform-origin: 343.515px 226.905px;" id="eldt4dpwcmt" class="animable"></path><path d="M344.25,226.25l-.64-1.11S343.45,226.29,344.25,226.25Z" style="fill: rgb(38, 50, 56); transform-origin: 343.923px 225.696px;" id="el4wppwwx0xh6" class="animable"></path><path d="M337.77,222.19c-.34.43-.38,1-.09,1.18s.79.07,1.13-.36.38-1,.09-1.19S338.11,221.76,337.77,222.19Z" style="fill: rgb(38, 50, 56); transform-origin: 338.29px 222.594px;" id="elwxkfwtlmww" class="animable"></path><path d="M339,221.94l-.64-1.1S338.21,222,339,221.94Z" style="fill: rgb(38, 50, 56); transform-origin: 338.674px 221.391px;" id="el8mgf700lghb" class="animable"></path><path d="M347.53,225.76a.34.34,0,0,1-.34-.33,3.12,3.12,0,0,0-1.52-2.25.35.35,0,0,1-.13-.47.34.34,0,0,1,.47-.13,3.77,3.77,0,0,1,1.86,2.82.35.35,0,0,1-.33.36Z" style="fill: rgb(38, 50, 56); transform-origin: 346.684px 224.147px;" id="elsiaqzr0r2tq" class="animable"></path><path d="M342.16,220.08a.33.33,0,0,1-.29-.15,2.79,2.79,0,0,0-2.18-1,.34.34,0,1,1,.05-.68,3.37,3.37,0,0,1,2.7,1.32.33.33,0,0,1-.1.47A.31.31,0,0,1,342.16,220.08Z" style="fill: rgb(38, 50, 56); transform-origin: 340.936px 219.165px;" id="elqaaihctrjan" class="animable"></path><path d="M348.5,232.78s.82-6.22,3.73-9.3c0,0-7.25-12.23-15.83-2,0,0,6.13-10.24,15.4-3.56s-.85,20-8.56,20.38C343.24,238.34,348,236.66,348.5,232.78Z" style="fill: rgb(38, 50, 56); transform-origin: 345.953px 226.979px;" id="elb7rfu94nt2f" class="animable"></path><path d="M350.28,214.78s-2.95-2.35-5-2,.53,13.12,4.73,17.19c0,0-1.94,6.38-4.88,8,0,0,6.64,1.74,12.41-6.28S356.73,214.78,350.28,214.78Z" style="fill: rgb(38, 50, 56); transform-origin: 352.16px 225.437px;" id="elduwkkxx7b4e" class="animable"></path><path d="M346.79,233.25a2.91,2.91,0,0,1,4.11-.23c1.5,1.42-.26,5.38-5,3.1C345.27,235.79,345.37,235,346.79,233.25Z" style="fill: rgb(238, 193, 187); transform-origin: 348.476px 234.546px;" id="elrrwwzgn5cda" class="animable"></path><path d="M346.63,227.91a.35.35,0,0,1-.28-.14c-4.9-6.68-2-14.79-1.93-14.87a.34.34,0,0,1,.44-.2.34.34,0,0,1,.2.44c0,.08-2.83,7.85,1.85,14.23a.35.35,0,0,1-.08.48A.36.36,0,0,1,346.63,227.91Z" style="fill: rgb(38, 50, 56); transform-origin: 345.238px 220.294px;" id="eln56raovyxfa" class="animable"></path><path d="M335.6,229.11a21.36,21.36,0,0,1,0,3.08,4.94,4.94,0,0,0,.52.13c2.4.57,3.7,0,4.42-.72a3.37,3.37,0,0,0,.71-1.32,3.06,3.06,0,0,0,.13-.85,11.81,11.81,0,0,1-4.94-.14Z" style="fill: rgb(38, 50, 56); transform-origin: 338.49px 230.831px;" id="el00dcm8roc1jq9" class="animable"></path><path d="M336.42,229.29l0,.91c2.26.53,3.92.59,4.79.08a3.06,3.06,0,0,0,.13-.85A11.81,11.81,0,0,1,336.42,229.29Z" style="fill: rgb(255, 255, 255); transform-origin: 338.88px 229.961px;" id="elbixsx443mil" class="animable"></path><path d="M336.1,232.32c2.4.57,3.7,0,4.42-.72a8.07,8.07,0,0,0-2.79-.1A3,3,0,0,0,336.1,232.32Z" style="fill: rgb(222, 87, 83); transform-origin: 338.31px 231.988px;" id="elft6474mkpf6" class="animable"></path><path d="M355.22,220.62S361,213.2,369.9,219l-2.71,1.11s5.66,1.51,6.32,6.93l-2.27-.7s2.75,5.23-1.55,9l-.9-1.58s-2.34,4.06-5.65,4.61l.73-2.55s-3.21,3.44-7.23,1l2-2.38S350.8,229.76,355.22,220.62Z" style="fill: rgb(38, 50, 56); transform-origin: 363.689px 227.577px;" id="ela3ih8k0b3zs" class="animable"></path><path d="M352.26,320.62l.85,6.28,1.24,9.23.25,1.81.84,6.29.63,4.66a214.1,214.1,0,0,1,26.82-23.49l2.84,3.09C375.65,342.21,368,356,357.87,361.9c-3.48,2-7.2,3.67-9.9-2.13a84.28,84.28,0,0,1-4.82-14.17c-.78-2.87-1.5-5.55-2.15-8l-.09-.36c-1.27-4.82-2.25-8.67-2.87-11.11-.46-1.91-.72-2.95-.72-2.95Z" style="fill: rgb(238, 193, 187); transform-origin: 361.525px 342.191px;" id="eltntffrzhi9g" class="animable"></path><path d="M334.35,411.51l-4.2.06c-4.26-20-7.28-44.81-9.15-63.51-.3-2.93-.56-5.7-.8-8.29-.11-1.23-.22-2.42-.32-3.56-.5-5.62-.84-10.07-1.05-12.83-.15-2-.23-3.11-.23-3.11h15.16l-.14,3.86-.47,12.75,0,1.45-.32,8.42-.52,14.34C337.46,381.27,334.35,411.51,334.35,411.51Z" style="fill: rgb(238, 193, 187); transform-origin: 326.94px 365.92px;" id="el4mij538ak74" class="animable"></path><g id="eled6hoxz8vx8"><path d="M354.35,336.13,341,337.62l-.09-.36c-1.27-4.82-2.25-8.67-2.87-11.11l15.07.75Z" style="opacity: 0.2; isolation: isolate; transform-origin: 346.195px 331.885px;" class="animable" id="elbe1pgy823hm"></path></g><g id="elwtgux885iue"><path d="M333.62,324.13l-.47,12.75,0,1.45-12.9,1.44c-.11-1.23-.22-2.42-.32-3.56-.5-5.62-.84-10.07-1.05-12.83Z" style="opacity: 0.2; isolation: isolate; transform-origin: 326.25px 331.575px;" class="animable" id="elossuqf0jtk"></path></g><path d="M320.9,283.15h0l.5-4.89,26.26,2.64-.55,3.83h0c9.89,17.5,7.49,37.47,7.49,37.47L355.8,332s-2.49,1.54-19.12,2.62c-14.63.95-18.35-.56-18.35-.56C313.16,303.7,317.6,289.23,320.9,283.15Z" style="fill: #F4A460; transform-origin: 335.882px 306.597px;" id="elvdrqa306bx" class="animable"></path><g id="elovxi41sii1d"><path d="M320.9,283.15h0l.5-4.89,26.26,2.64-.55,3.83h0c9.89,17.5,7.49,37.47,7.49,37.47L355.8,332s-2.49,1.54-19.12,2.62c-14.63.95-18.35-.56-18.35-.56C313.16,303.7,317.6,289.23,320.9,283.15Z" style="fill: rgb(255, 255, 255); opacity: 0.2; isolation: isolate; transform-origin: 335.882px 306.597px;" class="animable" id="el747lh3slc04"></path></g><polygon points="332.26 283.48 320.45 282.55 320.61 278.97 332.52 280.22 332.26 283.48" style="fill: rgb(38, 50, 56); transform-origin: 326.485px 281.225px;" id="elcw7gsaqcecn" class="animable"></polygon><polygon points="344.09 284.42 333.11 283.55 333.38 280.31 344.33 281.46 344.09 284.42" style="fill: rgb(38, 50, 56); transform-origin: 338.72px 282.365px;" id="elg1xehretyl8" class="animable"></polygon><polygon points="345.18 281.55 347.96 281.84 347.61 284.7 344.94 284.49 345.18 281.55" style="fill: rgb(38, 50, 56); transform-origin: 346.45px 283.125px;" id="elso48gajsd4" class="animable"></polygon><path d="M329,409.14h6a.54.54,0,0,1,.53.43l1.23,5.55a.91.91,0,0,1-.71,1.09l-.2,0c-2.45,0-2.65-.19-5.73-.19-1.89,0-7.61.2-10.23.2s-3-2.59-1.89-2.83c4.81-1,8.43-2.5,10-3.88A1.48,1.48,0,0,1,329,409.14Z" style="fill: rgb(38, 50, 56); transform-origin: 327.098px 412.68px;" id="el7glqc2wamso" class="animable"></path><path d="M326.92,410.23a1.89,1.89,0,0,1-1.2-.31.91.91,0,0,1-.31-.8.45.45,0,0,1,.26-.41c.69-.36,2.7.88,2.93,1a.15.15,0,0,1,.07.15.14.14,0,0,1-.11.12A7,7,0,0,1,326.92,410.23Zm-.93-1.29a.33.33,0,0,0-.19,0s-.08,0-.09.17a.59.59,0,0,0,.2.53,3,3,0,0,0,2.22.12A6.14,6.14,0,0,0,326,408.94Z" style="fill: #F4A460; transform-origin: 327.037px 409.44px;" id="elxa0s72xun3" class="animable"></path><path d="M328.52,410h-.08c-.64-.35-1.88-1.72-1.76-2.38a.49.49,0,0,1,.48-.39.81.81,0,0,1,.63.19c.72.59.87,2.38.88,2.47a.17.17,0,0,1-.07.13A.11.11,0,0,1,328.52,410Zm-1.26-2.53h-.07c-.19,0-.21.11-.21.15-.08.4.71,1.44,1.35,1.93a3.54,3.54,0,0,0-.73-1.95A.53.53,0,0,0,327.26,407.48Z" style="fill: #F4A460; transform-origin: 327.671px 408.622px;" id="el77ggn0xnk54" class="animable"></path><path d="M384.61,330.61l-3.17-5.08a.55.55,0,0,1,.09-.68l4.06-4a.92.92,0,0,1,1.3,0,1,1,0,0,1,.13.16c1.26,2.1,1.23,2.35,2.86,5,1,1.61,4.19,6.37,5.57,8.59s-.63,3.88-1.4,3.09c-3.42-3.52-6.57-5.83-8.55-6.41A1.42,1.42,0,0,1,384.61,330.61Z" style="fill: rgb(38, 50, 56); transform-origin: 388.642px 329.235px;" id="elniysbubwrtp" class="animable"></path><path d="M386.63,331.79A1.85,1.85,0,0,1,387,333a.86.86,0,0,1-.51.68.46.46,0,0,1-.49,0c-.66-.4-.68-2.77-.67-3a.14.14,0,0,1,.08-.14.17.17,0,0,1,.17,0A7.6,7.6,0,0,1,386.63,331.79Zm-.61,1.47a.29.29,0,0,0,.13.14s.1,0,.2,0a.64.64,0,0,0,.35-.45,3.07,3.07,0,0,0-1.08-1.95A6,6,0,0,0,386,333.26Z" style="fill: #F4A460; transform-origin: 386.165px 332.134px;" id="elzc4hsd5i4kb" class="animable"></path><path d="M385.59,330.55l0,.06c.05.73-.46,2.51-1.09,2.75a.48.48,0,0,1-.58-.2.78.78,0,0,1-.17-.63c.12-.92,1.56-2,1.63-2a.16.16,0,0,1,.15,0A.08.08,0,0,1,385.59,330.55Zm-1.48,2.4,0,.06c.1.16.2.12.24.1.38-.14.85-1.36.92-2.17A3.48,3.48,0,0,0,384,332.6.48.48,0,0,0,384.11,333Z" style="fill: #F4A460; transform-origin: 384.666px 331.951px;" id="elbagly1oodom" class="animable"></path><path d="M378,173.1,340.8,205.49l-5-1.79-.25-2.56a5.67,5.67,0,0,0-1.34-.41c-.52,0-2.54-2.91-2.54-2.91l-1.34-1.54s-2.45-3.06-2.42-3.74-3.12-2.59-3.93-3.46-5.24-6-5.24-6l-2-3.29s-2-1.56-3-2.45-4.92-4.59-4.92-4.59a50.6,50.6,0,0,0-2.7-5.19c-.6-.7-3.47-3.43-3.47-3.43l9.12-7.12,2.91-2.94,9.82-8.14,2.07-2.23s8.17-6.69,9-7.41,1.6-2.22,2.21-2.76,3.68-2.36,3.68-2.36Z" style="fill: rgb(38, 50, 56); transform-origin: 340.325px 168.33px;" id="elv3g7tp00gee" class="animable"></path><g id="elokjds6mqq5"><path d="M374.93,169.6l-39.14,34.1-.25-2.56a5.67,5.67,0,0,0-1.34-.41c-.52,0-2.54-2.91-2.54-2.91l-1.34-1.54s-2.45-3.06-2.42-3.74-3.12-2.59-3.93-3.46-5.24-6-5.24-6l-2-3.29s-2-1.56-3-2.45-4.92-4.59-4.92-4.59a50.6,50.6,0,0,0-2.7-5.19c-.6-.7-3.47-3.43-3.47-3.43l9.12-7.12,2.91-2.94,9.82-8.14,2.07-2.23s8.17-6.69,9-7.41,1.6-2.22,2.21-2.76,3.68-2.36,3.68-2.36Z" style="fill: rgb(255, 255, 255); opacity: 0.2; transform-origin: 338.785px 167.435px;" class="animable" id="el2t6h7ljcpu2"></path></g><g id="eljrjqaex1cx9"><rect x="313.26" y="143.32" width="45.72" height="46.23" style="fill: rgb(38, 50, 56); transform-origin: 336.12px 166.435px; transform: rotate(-41.06deg);" class="animable" id="eld25mqm2e9rn"></rect></g><g id="elx1zg6we45xt"><polygon points="368.54 168.85 359.4 165.1 331.66 189.27 334.06 198.88 368.54 168.85" style="fill: rgb(255, 255, 255); opacity: 0.1; transform-origin: 350.1px 181.99px;" class="animable" id="elosgqxvxr4ug"></polygon></g><g id="ely2x756p18ti"><polygon points="338.18 133.99 335.24 137.36 359.4 165.1 368.54 168.85 338.18 133.99" style="fill: rgb(255, 255, 255); opacity: 0.3; transform-origin: 351.89px 151.42px;" class="animable" id="elwypfujeflod"></polygon></g><g id="el8ywntzg1hrd"><rect x="315.06" y="144.92" width="36.79" height="36.79" style="fill: rgb(255, 255, 255); opacity: 0.2; transform-origin: 333.455px 163.315px; transform: rotate(48.94deg);" class="animable" id="el2dcmf1rriwj"></rect></g><g id="ellqn8a6jph2g"><path d="M324.07,239.85l-1.31,8s-.67-1.55-1.68-4a21.41,21.41,0,0,1,2.42-4.37A2.63,2.63,0,0,1,324.07,239.85Z" style="opacity: 0.2; isolation: isolate; transform-origin: 322.575px 243.665px;" class="animable" id="elbw7990kwhl"></path></g><g id="el8bzf0nrxvtc"><path d="M355,247.54c-.47,4.32-1.18,8.56-2,12.52-2.91-3.68-2.11-10.59-1.17-14.36C352.37,243.47,353.68,244.84,355,247.54Z" style="opacity: 0.2; isolation: isolate; transform-origin: 352.984px 252.322px;" class="animable" id="elrgiy28x4q3j"></path></g><path d="M352.51,242.35s11.65-19.32,11.65-22.61-12.27-22.38-12.27-22.38a4.46,4.46,0,0,1-1-1.91c-.1-.92,4-10,4.56-9.72s4.24,2.77,5.15,3.54-2.88,8.09-2.88,8.09,12.2,18,13.09,21.8-14,34.24-18.3,36c0,0-1.13,0-1.13-3.2C351.42,245.34,352.51,242.35,352.51,242.35Z" style="fill: rgb(238, 193, 187); transform-origin: 360.868px 220.442px;" id="elxnwzr5hxyy9" class="animable"></path></g><g id="freepik--character-1--inject-32" class="animable" style="transform-origin: 183.474px 282.302px;"><g id="freepik--group--inject-32" class="animable" style="transform-origin: 183.474px 282.302px;"><path d="M170.35,239.64s10.32,6.25,12.71,7.78,21.28,7.43,21.28,7.43,3.12-1.28,4.31-1,7.21,2.88,7.21,2.88-4.26,6.35-5.42,6.19-7.2-2.29-7.2-2.7a4.62,4.62,0,0,0-.61-1.4s-19.39-4.65-22.51-6.25-13.75-7.25-13.75-7.25Z" style="fill: rgb(228, 137, 123); transform-origin: 191.115px 251.281px;" id="eleqj7uds28rp" class="animable"></path><path d="M174.41,240.33,167,249.1l-5.9-3.3L156,243l4.06-4.87,3.73-4.49C167.75,235.37,174.41,240.33,174.41,240.33Z" style="fill: #F4A460; transform-origin: 165.205px 241.37px;" id="eliezjwtwipfa" class="animable"></path><g id="elgn3hkb6rl2v"><path d="M161.11,245.8,156,243l4.06-4.87A17.92,17.92,0,0,1,161.11,245.8Z" style="opacity: 0.2; isolation: isolate; transform-origin: 158.585px 241.965px;" class="animable" id="elfjz3xcq2qdv"></path></g><path d="M113.43,268.64l34.46,4.81s.65-13.9,15.93-39.85l-36.65-8.73C117.24,239.39,113.43,268.64,113.43,268.64Z" style="fill: #F4A460; transform-origin: 138.625px 249.16px;" id="elhihuuiintkq" class="animable"></path><path d="M136.93,229.76c1.94,3.59,9.25,5.09,9.25,5.09s3.29-.67,2.85-2.36c-2.41-1.32-1.74-1.94-1.72-3.65a8,8,0,0,1,.77-3,16.4,16.4,0,0,1,.8-1.56l-6.38-9.43C142.15,219.45,140.8,227.69,136.93,229.76Z" style="fill: rgb(228, 137, 123); transform-origin: 143px 224.85px;" id="el1kpn3kvhtn6" class="animable"></path><g id="el9mjtlpxzkpp"><path d="M143.06,219.6c-1.48,5.29,2.27,8.21,4.25,9.24a8,8,0,0,1,.77-3Z" style="opacity: 0.2; isolation: isolate; transform-origin: 145.401px 224.22px;" class="animable" id="elngoehxou0v"></path></g><path d="M158,202.59s2.13,8.65-2.22,12.45-5.84-12.53-5.84-12.53Z" style="fill: rgb(38, 50, 56); transform-origin: 154.231px 209.062px;" id="elakzubck8prw" class="animable"></path><path d="M142.86,223.24a8,8,0,0,0,9.42,2.25,8.88,8.88,0,0,0,4.69-4.58,7.65,7.65,0,0,0,.34-.88c1.8-5.57,1.68-15-4.31-18a8.67,8.67,0,0,0-12.59,7.71C140.29,216.06,139.92,219.77,142.86,223.24Z" style="fill: rgb(228, 137, 123); transform-origin: 149.327px 213.632px;" id="elahcouaec79q" class="animable"></path><path d="M149.85,212.24c-.07.51.2.95.54,1s.64-.37.68-.89-.2-1-.53-1S149.9,211.72,149.85,212.24Z" style="fill: rgb(38, 50, 56); transform-origin: 150.457px 212.297px;" id="el6appfgpcc1u" class="animable"></path><path d="M155.66,212.7c-.07.5.21,1,.54,1s.64-.37.68-.88-.2-.95-.54-1S155.7,212.21,155.66,212.7Z" style="fill: rgb(38, 50, 56); transform-origin: 156.267px 212.758px;" id="el6amcpsil7vq" class="animable"></path><path d="M153.8,212.81a17.84,17.84,0,0,0,2.11,4.59,3,3,0,0,1-2.51.26Z" style="fill: rgb(222, 87, 83); transform-origin: 154.655px 215.316px;" id="el2rwp1y3jfbh" class="animable"></path><path d="M158,210.48a.32.32,0,0,1-.31,0,2.43,2.43,0,0,0-2.11-.58.3.3,0,1,1-.17-.57h0a3,3,0,0,1,2.67.69.29.29,0,0,1,0,.42h0A.27.27,0,0,1,158,210.48Z" style="fill: rgb(38, 50, 56); transform-origin: 156.664px 209.887px;" id="el7kiiclmlwaq" class="animable"></path><path d="M148.89,209.84a.24.24,0,0,1-.16-.07.3.3,0,0,1,.05-.42h0a3,3,0,0,1,2.72-.51.3.3,0,0,1,.17.39h0a.31.31,0,0,1-.38.18h0a2.47,2.47,0,0,0-2.15.43A.3.3,0,0,1,148.89,209.84Z" style="fill: rgb(38, 50, 56); transform-origin: 150.179px 209.289px;" id="elp4in9xg42dq" class="animable"></path><path d="M145.66,202.22l.51,1.21c-2.11.62-1.77,3.06-1.38,4.17.83,2.38-.61,6-2.46,7.37,0,0,0-1-.89-.8s-.79,5.51.81,8.09c0,0-2.46-2.36-3.72-8-1.16-5.18-1.2-9.47-.08-11.43Z" style="fill: rgb(38, 50, 56); transform-origin: 141.902px 212.24px;" id="elj7d3ece2wh" class="animable"></path><path d="M137.25,214.69a6,6,0,0,0,3.2,3.3c2,.83,3.19-.85,2.88-2.83-.29-1.75-1.63-4.35-3.7-4.32A2.69,2.69,0,0,0,137.25,214.69Z" style="fill: rgb(228, 137, 123); transform-origin: 140.183px 214.523px;" id="elapnu84gav9f" class="animable"></path><path d="M153,219.62a19,19,0,0,0-1.66,2.19l-.44-.19c-2-.9-2.63-2-2.72-2.9a2.7,2.7,0,0,1,.22-1.32,2.76,2.76,0,0,1,.37-.67,10.21,10.21,0,0,0,3.55,2.57C152.73,219.51,153,219.62,153,219.62Z" style="fill: rgb(38, 50, 56); transform-origin: 150.585px 219.27px;" id="elad7lfyhmns" class="animable"></path><path d="M152.32,219.3l-.5.64c-1.88-.85-3.09-1.71-3.42-2.54a2.76,2.76,0,0,1,.37-.67A10.21,10.21,0,0,0,152.32,219.3Z" style="fill: rgb(255, 255, 255); transform-origin: 150.36px 218.335px;" id="el6njmdsni2l8" class="animable"></path><path d="M150.9,221.62c-2-.9-2.63-2-2.72-2.9a7,7,0,0,1,2,1.44A2.63,2.63,0,0,1,150.9,221.62Z" style="fill: rgb(222, 87, 83); transform-origin: 149.54px 220.17px;" id="elolelku01n2e" class="animable"></path><path d="M137.42,206.66s-2.07-5.47,4.75-9.41,13.94-.2,15.09,2.29c0,0,4.37,2,1.14,6l-2.52-3S149.46,209.35,137.42,206.66Z" style="fill: rgb(38, 50, 56); transform-origin: 148.357px 201.411px;" id="elf3v15tz2n4s" class="animable"></path><polygon points="89.28 400.74 80.71 408.47 73.35 407.59 83.26 396.71 89.28 400.74" style="fill: rgb(228, 137, 123); transform-origin: 81.315px 402.59px;" id="el2orclqvvq72" class="animable"></polygon><polygon points="211.18 400.89 220.66 407.48 227.84 405.67 216.65 396.14 211.18 400.89" style="fill: rgb(228, 137, 123); transform-origin: 219.51px 401.81px;" id="eltnmris8232l" class="animable"></polygon><path d="M77.64,399.68l6.78,6.57s49.12-39.19,49.93-45.75,0-41.51,0-41.51,6.56,7.68,16.71,19.08c16.29,18.32,41.83,46.24,64.2,67.33l7.88-5.46c-56.73-70.81-74.77-108.69-74.77-108.69l-.48-17.8-34.46-4.81s-7.84,22.39-5.72,37.64,10.17,43.63,9.31,49.35S77.64,399.68,77.64,399.68Z" style="fill: rgb(38, 50, 56); transform-origin: 150.39px 337.445px;" id="elhr7jat3jy6t" class="animable"></path><path d="M81.26,407.13H73.12a.59.59,0,0,0-.57.46l-1.32,6a1,1,0,0,0,.76,1.18l.22,0c2.63-.05,4.55-.21,7.86-.21,2,0,8.18.22,11,.22s3.18-2.78,2-3c-5.17-1.12-9-2.68-10.71-4.17A1.58,1.58,0,0,0,81.26,407.13Z" style="fill: rgb(38, 50, 56); transform-origin: 82.4563px 410.955px;" id="elkmzyiel9xyg" class="animable"></path><path d="M226.44,403.91l-7.36,3.46a.59.59,0,0,0-.32.66l1.34,6a1,1,0,0,0,1.19.74l.21-.07c2.36-1.16,4-2.13,7-3.53,1.84-.87,7.49-3.29,10-4.49s1.69-3.87.54-3.61c-5.15,1.18-9.33,1.42-11.46.79A1.62,1.62,0,0,0,226.44,403.91Z" style="fill: rgb(38, 50, 56); transform-origin: 229.445px 408.923px;" id="eld3di5sv867v" class="animable"></path><g id="elfb2cu2o013o"><path d="M133,303.52,134.35,319s6.56,7.68,16.71,19.08c-10.77-17.39-13.68-29.36-13.68-29.36,3.51-4.69,3.88-12.2,3.88-12.2Z" style="opacity: 0.3; isolation: isolate; transform-origin: 142.03px 317.3px;" class="animable" id="ellq8soypj3ap"></path></g><g id="elqgbly45ihh"><path d="M81.26,407.13H73.12a.59.59,0,0,0-.57.46l-1.32,6a1,1,0,0,0,.76,1.18l.22,0c2.63-.05,4.55-.21,7.86-.21,2,0,8.18.22,11,.22s3.18-2.78,2-3c-5.17-1.12-9-2.68-10.71-4.17A1.58,1.58,0,0,0,81.26,407.13Z" style="fill: rgb(255, 255, 255); opacity: 0.4; transform-origin: 82.4563px 410.955px;" class="animable" id="elzeg4nicfy59"></path></g><g id="elwjwlunh62k"><path d="M226.44,403.91l-7.36,3.46a.59.59,0,0,0-.32.66l1.34,6a1,1,0,0,0,1.19.74l.21-.07c2.36-1.16,4-2.13,7-3.53,1.84-.87,7.49-3.29,10-4.49s1.69-3.87.54-3.61c-5.15,1.18-9.33,1.42-11.46.79A1.62,1.62,0,0,0,226.44,403.91Z" style="fill: rgb(255, 255, 255); opacity: 0.4; transform-origin: 229.445px 408.923px;" class="animable" id="el6z01rbgnvbn"></path></g><polygon points="142.22 276.9 147.2 277.43 147.18 273.65 142.63 273.11 142.22 276.9" id="elcygs93es1dq" class="animable" style="transform-origin: 144.71px 275.27px;"></polygon><polygon points="124.64 270.96 113.96 269.69 113.52 273.85 124.2 274.98 124.64 270.96" id="elrs2x59b7ewe" class="animable" style="transform-origin: 119.08px 272.335px;"></polygon><polygon points="125.39 275.11 141.03 276.77 141.44 272.97 125.83 271.11 125.39 275.11" id="elpvlcd18dan" class="animable" style="transform-origin: 133.415px 273.94px;"></polygon><polygon points="131.61 275.77 137.76 276.5 138.26 271.85 132.12 271.12 131.61 275.77" style="fill: rgb(255, 255, 255); transform-origin: 134.935px 273.81px;" id="elcxxkoyb18bk" class="animable"></polygon><g id="el8n1znc4vn5"><path d="M140.06,268.64s-16.69-3.53-21.59-23.59a89.41,89.41,0,0,1,5.79-15.19,24.66,24.66,0,0,1,5.64,3.74c2.81,3.61,2.21,24.1,3.51,26.71S140.06,268.64,140.06,268.64Z" style="opacity: 0.2; isolation: isolate; transform-origin: 129.265px 249.25px;" class="animable" id="elwjohpp5gar9"></path></g><path d="M295.74,238.69,196.17,385.33l-76.32-51.82,124.72-183.7L282,175.23,277.44,182l-2.08,4.62s-4.52,4.89-4.61,5.25-1.32,3.49-1.32,3.49l-2.28,2.57s-.46.65-1.09,1.6-4.1,6.82-4.1,6.82l-1.66,3.53,4.77,5.7,11.1,8.91,15,10.21Z" style="fill: rgb(38, 50, 56); transform-origin: 207.795px 267.57px;" id="eltt7qvzm5yva" class="animable"></path><g id="elqdea85qvfm"><path d="M291.05,237.93l-98.44,145-72.76-49.4,124.72-183.7,34.07,23.13s-4.17,6.71-3.92,7.16L272,182.76s-4,6.79-4.72,7.64c-.5.62-14.09,20.07-14.09,20.07s8.51,4.82,9,5,13.28,11.35,13.28,11.35l5.62,3.26,5.37,4.2Z" style="fill: rgb(255, 255, 255); opacity: 0.2; transform-origin: 205.45px 266.38px;" class="animable" id="el376lx0pt1em"></path></g><polygon points="251.12 159.11 243.26 153.77 238.58 155.56 219.4 183.81 219.42 188.88 214.47 191.06 195.29 219.31 195.22 224.53 190.37 226.56 171.19 254.82 171.12 260.03 166.27 262.06 147.09 290.32 147.11 295.39 142.16 297.57 122.98 325.82 123.08 330.77 130.95 336.11 191.25 377.05 287.33 235.52 252.12 211 275.92 175.94 251.12 159.11" style="fill: rgb(38, 50, 56); transform-origin: 205.155px 265.41px;" id="elcbrmptvlvfr" class="animable"></polygon><g id="eljpjku2ppuk"><polygon points="275.92 175.94 266.87 174.69 247.69 202.94 252.12 211 275.92 175.94" style="fill: rgb(255, 255, 255); opacity: 0.1; transform-origin: 261.805px 192.845px;" class="animable" id="eltzn1yx00auf"></polygon></g><g id="elgi0xn2zx4ss"><polygon points="287.33 235.52 278.25 234.32 259.07 262.57 263.5 270.63 287.33 235.52" style="fill: rgb(255, 255, 255); opacity: 0.1; transform-origin: 273.2px 252.475px;" class="animable" id="eln2gizijendi"></polygon></g><g id="els9q0gzjcxpm"><polygon points="251.83 211.42 250 215.14 278.25 234.32 287.33 235.52 251.83 211.42" style="fill: rgb(255, 255, 255); opacity: 0.3; transform-origin: 268.665px 223.47px;" class="animable" id="elvkfdnt489si"></polygon></g><g id="el1koje9swjy1"><polygon points="263.25 270.99 254.16 269.79 234.98 298.04 239.41 306.1 263.25 270.99" style="fill: rgb(255, 255, 255); opacity: 0.1; transform-origin: 249.115px 287.945px;" class="animable" id="el4mfccjq8zg"></polygon></g><g id="el5msgt34gfgk"><polygon points="227.75 246.89 225.91 250.61 254.16 269.79 263.25 270.99 227.75 246.89" style="fill: rgb(255, 255, 255); opacity: 0.3; transform-origin: 244.58px 258.94px;" class="animable" id="el0hl1nneaphxs"></polygon></g><g id="elkvw9t89ugc"><polygon points="239.17 306.46 230.08 305.26 210.9 333.51 215.33 341.58 239.17 306.46" style="fill: rgb(255, 255, 255); opacity: 0.1; transform-origin: 225.035px 323.42px;" class="animable" id="el7bc2qreo5jv"></polygon></g><g id="elbengg2wt0uw"><polygon points="203.67 282.36 201.83 286.08 230.08 305.26 239.17 306.46 203.67 282.36" style="fill: rgb(255, 255, 255); opacity: 0.3; transform-origin: 220.5px 294.41px;" class="animable" id="el72uwxs1mteo"></polygon></g><g id="elafuj3lmm9mw"><polygon points="215.09 341.93 206 340.73 186.82 368.99 191.25 377.05 215.09 341.93" style="fill: rgb(255, 255, 255); opacity: 0.1; transform-origin: 200.955px 358.89px;" class="animable" id="el3eih3rrd6rz"></polygon></g><g id="elssgksingd4"><polygon points="179.58 317.83 177.75 321.55 206 340.73 215.09 341.93 179.58 317.83" style="fill: rgb(255, 255, 255); opacity: 0.3; transform-origin: 196.42px 329.88px;" class="animable" id="eln96u986fdhl"></polygon></g><g id="elq05kni3vaal"><polygon points="243.26 153.77 238.58 155.56 266.87 174.69 275.92 175.94 243.26 153.77" style="fill: rgb(255, 255, 255); opacity: 0.3; transform-origin: 257.25px 164.855px;" class="animable" id="ela1qecn6iy"></polygon></g><g id="elnfbrogpm42j"><polygon points="251.81 211.44 242.77 210.19 223.59 238.44 228.01 246.5 251.81 211.44" style="fill: rgb(255, 255, 255); opacity: 0.1; transform-origin: 237.7px 228.345px;" class="animable" id="ellsj52eczsms"></polygon></g><g id="el83hhwkdm7d"><polygon points="219.16 189.27 214.47 191.06 242.77 210.19 251.81 211.44 219.16 189.27" style="fill: rgb(255, 255, 255); opacity: 0.3; transform-origin: 233.14px 200.355px;" class="animable" id="els62zxj3mq2"></polygon></g><g id="elct2zbx0t18o"><polygon points="227.71 246.95 218.66 245.69 199.48 273.94 203.91 282 227.71 246.95" style="fill: rgb(255, 255, 255); opacity: 0.1; transform-origin: 213.595px 263.845px;" class="animable" id="eleatxsc0rza7"></polygon></g><g id="eldt9vhar26i"><polygon points="195.05 224.77 190.37 226.56 218.66 245.69 227.71 246.95 195.05 224.77" style="fill: rgb(255, 255, 255); opacity: 0.3; transform-origin: 209.04px 235.86px;" class="animable" id="el7e6q7ntpovs"></polygon></g><g id="el99gwc3p6xxc"><polygon points="203.61 282.45 194.56 281.19 175.38 309.44 179.81 317.5 203.61 282.45" style="fill: rgb(255, 255, 255); opacity: 0.1; transform-origin: 189.495px 299.345px;" class="animable" id="elt7no5teraal"></polygon></g><g id="els0eedvtuzah"><polygon points="170.95 260.27 166.27 262.06 194.56 281.19 203.61 282.45 170.95 260.27" style="fill: rgb(255, 255, 255); opacity: 0.3; transform-origin: 184.94px 271.36px;" class="animable" id="el9llxc3lzy4a"></polygon></g><g id="el934r4so3q2e"><polygon points="179.5 317.95 170.46 316.69 151.28 344.94 155.71 353 179.5 317.95" style="fill: rgb(255, 255, 255); opacity: 0.1; transform-origin: 165.39px 334.845px;" class="animable" id="el20kql9v85j8"></polygon></g><g id="elk7mweuuouej"><polygon points="146.84 295.77 142.16 297.57 170.46 316.69 179.5 317.95 146.84 295.77" style="fill: rgb(255, 255, 255); opacity: 0.3; transform-origin: 160.83px 306.86px;" class="animable" id="elgr6fbwxcsp4"></polygon></g><g id="elv0azcls4w8f"><rect x="226.04" y="162.2" width="34.15" height="34.15" style="fill: rgb(255, 255, 255); opacity: 0.2; transform-origin: 243.115px 179.275px; transform: rotate(34.17deg);" class="animable" id="elfof01hbochh"></rect></g><g id="elq8ts9hhjo3"><rect x="201.94" y="197.71" width="34.15" height="34.15" style="fill: rgb(255, 255, 255); opacity: 0.2; transform-origin: 219.015px 214.785px; transform: rotate(34.17deg);" class="animable" id="eligp54o2kql"></rect></g><g id="elj6y15s6rxz"><rect x="237.44" y="221.81" width="34.15" height="34.15" style="fill: rgb(255, 255, 255); opacity: 0.2; transform-origin: 254.515px 238.885px; transform: rotate(34.17deg);" class="animable" id="elhu6sb2a37"></rect></g><g id="elc1dryv46d5n"><rect x="177.83" y="233.21" width="34.15" height="34.15" style="fill: rgb(255, 255, 255); opacity: 0.2; transform-origin: 194.905px 250.285px; transform: rotate(34.17deg);" class="animable" id="elmukmqub1djb"></rect></g><g id="elilja5deq5f"><rect x="213.33" y="257.31" width="34.15" height="34.15" style="fill: rgb(255, 255, 255); opacity: 0.2; transform-origin: 230.405px 274.385px; transform: rotate(34.17deg);" class="animable" id="elrdbqavo140o"></rect></g><g id="elzym5m1nuoab"><rect x="153.73" y="268.71" width="34.15" height="34.15" style="fill: rgb(255, 255, 255); opacity: 0.2; transform-origin: 170.805px 285.785px; transform: rotate(34.17deg);" class="animable" id="elccew96tmmxi"></rect></g><g id="elhpkejy87g3"><rect x="189.23" y="292.81" width="34.15" height="34.15" style="fill: rgb(255, 255, 255); opacity: 0.2; transform-origin: 206.305px 309.885px; transform: rotate(34.17deg);" class="animable" id="elmgru0jgvtd"></rect></g><g id="el3ldvg4l06av"><rect x="129.63" y="304.21" width="34.15" height="34.15" style="fill: rgb(255, 255, 255); opacity: 0.2; transform-origin: 146.705px 321.285px; transform: rotate(34.17deg);" class="animable" id="el8knork433t"></rect></g><g id="elz4yscz09hm"><rect x="165.13" y="328.31" width="34.15" height="34.15" style="fill: rgb(255, 255, 255); opacity: 0.2; transform-origin: 182.205px 345.385px; transform: rotate(34.17deg);" class="animable" id="el5qd15kb0co"></rect></g><g id="elm2qzeld3h3l"><path d="M295.74,238.69l-4.69-.76-4.58-3.61-5.37-4.2-5.62-3.26s-12.75-11.12-13.28-11.35-9-5-9-5l7.14-.64,4.77,5.7,11.1,8.91,15,10.21Z" style="fill: rgb(255, 255, 255); opacity: 0.1; transform-origin: 274.47px 224.28px;" class="animable" id="elj0cwglfunp"></path></g><g id="el8hhlet94tsw"><polygon points="260.33 204.02 259.75 206.3 258.16 207.21 258.3 205.8 260.33 204.02" style="fill: rgb(255, 255, 255); opacity: 0.1; transform-origin: 259.245px 205.615px;" class="animable" id="elt3yjb2pp4dm"></polygon></g><g id="eltrkbmjhdoc"><path d="M264.43,198.09l1.66-.73s-.46,2.09-1.22,1.79A.79.79,0,0,1,264.43,198.09Z" style="fill: rgb(255, 255, 255); opacity: 0.1; transform-origin: 265.226px 198.27px;" class="animable" id="el1uwgn9ej0wn"></path></g><path d="M261.1,213.6s1.48,0,1.84.42,1,1.08,1,1.08l-1.68-.34Z" style="fill: rgb(38, 50, 56); transform-origin: 262.52px 214.35px;" id="el508w8cnih28" class="animable"></path><path d="M273.56,224.05l2.5,2.38,1.89.94a6.34,6.34,0,0,0-1.76-2.29A4.15,4.15,0,0,0,273.56,224.05Z" style="fill: rgb(38, 50, 56); transform-origin: 275.755px 225.71px;" id="el2emyu7co33y" class="animable"></path><path d="M289.77,235.33s-.12-1.24.49-.73a19.23,19.23,0,0,1,1.74,1.92A8.07,8.07,0,0,1,289.77,235.33Z" style="fill: rgb(38, 50, 56); transform-origin: 290.88px 235.498px;" id="el6qt19jx0j3t" class="animable"></path><g id="elh2h7nm7juqc"><path d="M276.72,181.8s-1.9,3.11-2.79,3a9.27,9.27,0,0,1,.09-2.2C274.21,182.16,275.75,180.6,276.72,181.8Z" style="fill: rgb(255, 255, 255); opacity: 0.1; transform-origin: 275.311px 183.079px;" class="animable" id="eleeph4yx9ng"></path></g><path d="M166.57,259.66s3.42-5.19,3.52-6.7-2.71-5.1-2.71-5.1l5.08,1.61s-.75,3.53,2.06,5.16c0,0-1.31,1.92,0,3.33s7.32-.48,7.32-.48,4.6,4.15,7.11,3.18a1.87,1.87,0,0,0,1-3l4.82.19s-1.61,3.64-1.48,5.58c0,0-3.41.34-3.4,1.6s2.81,4.42,2.81,4.42a2,2,0,0,0-1.35,2c-.13,1.71,4.51,5.79,4.51,5.79l.4,4.24s6.47,2.74,6.23.13c0,0,10.33,1.27,13-.22,0,0,1.38,6.46,3,6.54,0,0-2,.29-2.28,1.54s3.33,1.08,3.33,1.08a1.47,1.47,0,0,0-.08,2c.88,1.12,4.35.88,4.35.88s.66,2.66,2.92,3,6.71-5.94,6.71-5.94,1.31,1.71,2.21,1.29,2.87-4.22,2.87-4.22l2.56-.74s-4.07,6.3-3.56,7.67c0,0-4.12,1.52-3.25,4.79s6.62-.05,6.62-.05,5.15,2.08,7.4.31l8,1.29a3.05,3.05,0,0,0-.82,2.74c.41,1.51,2.72,2.05,2.72,2.05l.59,3.08S257,305,255,306.74c0,0-3.75-3.57-6.68,2.26s-45.24,16.62-45.57,16.19-40.82-43.56-40.82-43.56Z" style="fill: #F4A460; transform-origin: 210.355px 286.531px;" id="el7qibs40up0e" class="animable"></path><g id="ellqxdlcmu1y"><path d="M258.66,308.6c-.12-.25-1.73-3.52-3.65-1.86,0,0-3.75-3.57-6.68,2.26s-45.25,16.62-45.57,16.2-40.82-43.56-40.82-43.56l4.63-22s3.42-5.19,3.52-6.7-2.71-5.09-2.71-5.09l5.08,1.6s-.75,3.53,2,5.16c0,0-1.3,1.92,0,3.33s7.32-.48,7.32-.48,3.67,3.31,6.24,3.32a2.39,2.39,0,0,0,.86-.14,1.87,1.87,0,0,0,1-3l4.83.19s-1.61,3.64-1.48,5.58c0,0-3.41.35-3.4,1.6s2.81,4.42,2.81,4.42h0s0,0,0,0h0a.84.84,0,0,0-.23.1h0a2.14,2.14,0,0,0-1,1.84c-.13,1.71,4.51,5.78,4.51,5.78l.4,4.26s6.47,2.73,6.23.12A66.16,66.16,0,0,0,212,282l.82-.06h0a7.13,7.13,0,0,0,2.65-.63s1.38,6.43,3,6.55h0a.22.22,0,0,0-.1,0l-.11,0c-.55.12-1.85.51-2,1.49-.23,1.24,3.16,1.09,3.32,1.09a1.47,1.47,0,0,0-.07,2c.88,1.13,4.34.87,4.34.87s.67,2.67,2.93,3,6.71-5.94,6.71-5.94,1.31,1.71,2.21,1.29,2.87-4.22,2.87-4.22l2.56-.73s-4.07,6.29-3.56,7.66c0,0-4.13,1.52-3.25,4.79a1.77,1.77,0,0,0,.75,1.1c1.81,1.19,5.86-1.15,5.86-1.15s5.16,2.08,7.41.31l8,1.3a3.08,3.08,0,0,0-.83,2.73c.42,1.52,2.73,2.05,2.73,2.05Z" style="fill: rgb(255, 255, 255); opacity: 0.4; transform-origin: 210.3px 286.531px;" class="animable" id="elw0kd8tmf36"></path></g><g id="elcb7zgr352wa"><path d="M188.08,260.8a22.62,22.62,0,0,0-3,1,5.68,5.68,0,0,0-2.21-2.2c-1.45-.7-6.75,1.45-6.75,1.45-.58-1-4.36-2.67-4.7-2.77s.79-1.79.29-4.23-4.33-6.19-4.33-6.19l5.08,1.6s-.75,3.53,2,5.16c0,0-1.3,1.92,0,3.33s7.32-.48,7.32-.48S185.51,260.79,188.08,260.8Z" style="fill: rgb(255, 255, 255); opacity: 0.3; transform-origin: 177.73px 254.83px;" class="animable" id="elwx87roos3eo"></path></g><g id="elwjru1p7lc6"><path d="M212,282a23,23,0,0,0-6.9,1.67c-.67-1.23-9.47-.59-9.47-.59-.47-1.36-3.57-2.42-3.57-2.42a6.7,6.7,0,0,0,1.2-2.78c.21-1.52-3.2-3.39-3.34-5.4-.12-1.59,1.69-2.6,2.45-2.94a2.14,2.14,0,0,0-1,1.84c-.13,1.71,4.51,5.78,4.51,5.78l.4,4.26s6.47,2.73,6.23.12A66.16,66.16,0,0,0,212,282Z" style="fill: rgb(255, 255, 255); opacity: 0.3; transform-origin: 200.957px 276.605px;" class="animable" id="elthaeoo2wu9k"></path></g><g id="elgw3qftikiw"><path d="M228.5,298.69c-1,.36-2.41,3.45-2.54,3.74.56-2.07-1.68-3.59-1.68-3.59s.84-1.62,0-2.38-5.19-1-5.19-1a6,6,0,0,0-1.32-2.38,3.89,3.89,0,0,0-2.59-1.76c-2.36-2.21,1.95-3.17,3-3.36-.55.12-1.85.51-2,1.49-.23,1.24,3.16,1.09,3.32,1.09a1.47,1.47,0,0,0-.07,2c.88,1.13,4.34.87,4.34.87s.67,2.67,2.93,3,6.71-5.94,6.71-5.94c-.76,3.25-4.61,7.91-4.61,7.91S229.57,298.33,228.5,298.69Z" style="fill: rgb(255, 255, 255); opacity: 0.3; transform-origin: 223.947px 295.195px;" class="animable" id="el5egq2sobfvg"></path></g><g id="elaqc1a401crh"><path d="M258.66,308.6c-.12-.25-1.73-3.52-3.65-1.86A6.29,6.29,0,0,0,248,303c-.48-1.7-5-1.17-5-1.17-2.63-1.37-9.87,1.31-8-1.51,1.81,1.19,5.86-1.15,5.86-1.15s5.16,2.08,7.41.31l8,1.3a3.08,3.08,0,0,0-.83,2.73c.42,1.52,2.73,2.05,2.73,2.05Z" style="fill: rgb(255, 255, 255); opacity: 0.3; transform-origin: 246.678px 303.885px;" class="animable" id="ellx4jdeq2ven"></path></g><path d="M251.85,307.14l-54.07,79.64a1.55,1.55,0,0,1-1.36.69,1.43,1.43,0,0,1-.84-.27L120.7,336.36a3.75,3.75,0,0,1-1.63-3.58l.61-4.83a3.78,3.78,0,0,1,.63-1.66l48.29-71.14,2,3.58a3.32,3.32,0,0,0,1,4.66,6.26,6.26,0,0,0,3.51,1,9.56,9.56,0,0,0,3.12-.48l-.06,0-.15-.07-.13-.05-.42-.19a1,1,0,0,0-.18-.08c-.62-.31-1.25-.68-.75-.73.88-.08,7.08-1.93,7.08-1.93a11.49,11.49,0,0,0,2.77,10.54c.28.3.46.46.46.46h0c0,.13-.35,1.19-.69,2.58-.64,2.68-1.35,6.56-.26,7.3a6.8,6.8,0,0,0,3.63.73,17.94,17.94,0,0,0,2.13-.11.43.43,0,0,1,.1.09c2.41,2.26,14.5,4.47,14.5,4.47s0,.29.07.76c.19,1.75.74,6,1.85,6.72,1.41,1,8.56.05,8.56.05.42,1.11,5.86,3.57,5.86,3.57h0a16.35,16.35,0,0,0,.84,4.79h0a5.51,5.51,0,0,0,2.68,3.35c3.48,1.54,7.57-3.27,7.57-3.27,2.61,1.61,6.35-.86,6.35-.86,4.3,4.46,10.88,5,11.68,5.1h.08Z" style="fill: #F4A460; transform-origin: 185.445px 321.311px;" id="elaoukfsqostp" class="animable"></path><g id="elwr8gi3xrt4"><path d="M251.85,307.14l-54.07,79.64L189.44,375a6,6,0,0,1-.07-6.78l44.37-65.36c2.61,1.61,6.35-.86,6.35-.86C244.67,306.8,251.85,307.14,251.85,307.14Z" style="opacity: 0.1; transform-origin: 220.103px 344.39px;" class="animable" id="elnr3f4su4t58"></path></g><g id="el2dd54d8noes"><path d="M196.42,387.47a1.43,1.43,0,0,1-.84-.27L120.7,336.37a3.8,3.8,0,0,1-1.63-3.59l.61-4.83a3.78,3.78,0,0,1,.63-1.66l63.28,43a12.47,12.47,0,0,1,3.44,3.54Z" style="opacity: 0.2; transform-origin: 157.732px 356.88px;" class="animable" id="elifa49vipl9"></path></g><g id="elvgrlmmgjry"><path d="M178.22,263.9l-.7-.31Z" style="opacity: 0.2; transform-origin: 177.87px 263.745px;" class="animable" id="elbuu6tl66yxl"></path></g><g id="el1hqjpc5clfo"><path d="M186.21,274.44c-2.1-.7-5.84-1.82-6.9-1.19a17.29,17.29,0,0,0-4.15-8.84,9.56,9.56,0,0,0,3.12-.48,6.44,6.44,0,0,1,2.26,6.18s4.39.31,5.9,1.28a1.19,1.19,0,0,1,.46.46h0C186.86,272,186.55,273.05,186.21,274.44Z" style="opacity: 0.2; transform-origin: 181.03px 269.185px;" class="animable" id="elmqeidj8tm4q"></path></g><g id="eln3wnidjt8vc"><path d="M203,288.09a9.77,9.77,0,0,0-3.31,4.88c-1.92-2.67-8.42-3.66-8.42-3.66.65-2.13-.79-5.26-1.66-6.84a17.94,17.94,0,0,0,2.13-.11.43.43,0,0,1,.1.09c1,1.05,1.88,5.09,1.88,5.09a7.48,7.48,0,0,1,5.8,1.75s1.29-2.68,6.82-2.37A12.49,12.49,0,0,0,203,288.09Z" style="opacity: 0.2; transform-origin: 197.975px 287.665px;" class="animable" id="elv9gjjt4z2y"></path></g><g id="elp1h3j86d5b"><path d="M251.85,307.14s-6.17.41-7.87,2.71a10.27,10.27,0,0,0-4.81-3.39s4.67,2.38,4.4,4.8a8.5,8.5,0,0,1,5.15.49Z" style="opacity: 0.2; transform-origin: 245.51px 309.105px;" class="animable" id="elrnrmvz2zb9h"></path></g><g id="elu8p34ono9z"><path d="M223.49,302.82c-2.6-1.63-6.75-.35-6.75-.35a22.55,22.55,0,0,0-1.67-5.49c1.11.49,2.36,3.32,2.36,3.32,1.72-1.91,5.22-2.28,5.22-2.28h0A16.35,16.35,0,0,0,223.49,302.82Z" style="opacity: 0.2; transform-origin: 219.28px 299.9px;" class="animable" id="elgu8btx07xfp"></path></g><g id="el1ypj1f7rghv"><path d="M167.7,368.28l-29-19.67,0-9.79,46.65-68.72a13.23,13.23,0,0,0,1,1.29c.28.3.46.46.46.46h0c0,.13-.35,1.19-.69,2.58-.64,2.68-1.35,6.56-.26,7.3a6.8,6.8,0,0,0,3.63.73,17.94,17.94,0,0,0,2.13-.11.43.43,0,0,1,.1.09c.87.82,3,1.63,5.37,2.32,2.59.77,5.47,1.42,7.29,1.79,1.12.23,1.84.36,1.84.36s0,.29.07.76c.19,1.75.74,6,1.85,6.72.59.4,2.18.48,3.83.42L168.49,359Z" style="fill: rgb(255, 255, 255); opacity: 0.6; transform-origin: 175.335px 319.19px;" class="animable" id="eln8ws5iwvpg"></path></g><path d="M174.74,330.14l-4,.94a6.46,6.46,0,0,1-.87,5.61A6.54,6.54,0,0,1,159,329.34a6.58,6.58,0,0,1,4.87-2.91l-.62-4.09a10.58,10.58,0,0,0-7.71,4.93c-3.58,5.26-2.59,11.66,2.51,15.12s11.4,2,15-3.22A10.51,10.51,0,0,0,174.74,330.14Z" style="fill: rgb(38, 50, 56); transform-origin: 164.261px 333.304px;" id="elf64107bhhzw" class="animable"></path><path d="M187.13,317.76l2.66-3.91-16.91-11.48-2.66,3.91,6.67,4.53-5.22,7.68L165,314l-2.66,3.91,16.91,11.48,2.65-3.92-6.93-4.7,5.21-7.69Z" style="fill: rgb(38, 50, 56); transform-origin: 176.065px 315.88px;" id="elff3utp0x54d" class="animable"></path><path d="M195.9,286.65c-5.05-3.43-11.42-2-15,3.32s-2.56,11.78,2.46,15.19,11.41,2,15-3.31S201,290.08,195.9,286.65ZM186,301.19a6.39,6.39,0,1,1,9-1.6A6.23,6.23,0,0,1,186,301.19Z" style="fill: rgb(38, 50, 56); transform-origin: 189.644px 295.901px;" id="el5rluav1823" class="animable"></path><path d="M197.18,284.77a10.3,10.3,0,0,0,7.29,1.79C202.65,286.19,199.77,285.54,197.18,284.77Z" style="fill: rgb(38, 50, 56); transform-origin: 200.825px 285.71px;" id="elwkgwyk7s7js" class="animable"></path><path d="M129.67,236.57s1.16,18.91,1.94,23,19.21,11.57,19.21,11.57h4.34l9.12,5.65-7.39,6.91-6.11-4.38-1-2.87c-1.85-.8-22.06-10.43-23.89-13.94s-4-21.7-4-21.7Z" style="fill: rgb(228, 137, 123); transform-origin: 143.085px 260.135px;" id="elqjvqxfz6ksn" class="animable"></path><path d="M127.17,224.87c-10.39.18-6.4,21.71-6.4,21.71l10.84-3S133.19,224.76,127.17,224.87Z" style="fill: #F4A460; transform-origin: 125.907px 235.725px;" id="eljy0o465bewr" class="animable"></path></g></g><g id="freepik--Text--inject-32" class="animable animator-hidden" style="transform-origin: 250px 92.66px;"><polygon points="335.2 114.42 368.6 114.42 360.48 95.55 368.6 76.68 335.2 76.68 335.2 114.42" style="fill: #F4A460; transform-origin: 351.9px 95.55px;" id="el9zmnkm2q1xd" class="animable"></polygon><polygon points="164.8 114.42 131.4 114.42 139.52 95.55 131.4 76.68 164.8 76.68 164.8 114.42" style="fill: #F4A460; transform-origin: 148.1px 95.55px;" id="elfxjbwgra2j" class="animable"></polygon><g id="elexujgkrj5wn"><polygon points="335.2 114.42 368.6 114.42 360.48 95.55 368.6 76.68 335.2 76.68 335.2 114.42" style="fill: rgb(255, 255, 255); opacity: 0.2; transform-origin: 351.9px 95.55px;" class="animable" id="ela7nvjll9n7r"></polygon></g><g id="elklh5y0dx1fs"><polygon points="164.8 114.42 131.4 114.42 139.52 95.55 131.4 76.68 164.8 76.68 164.8 114.42" style="fill: rgb(255, 255, 255); opacity: 0.2; transform-origin: 148.1px 95.55px;" class="animable" id="elow58ldml2g8"></polygon></g><g id="el7hsfipa05xg"><polygon points="351.9 108.64 335.2 114.42 335.2 76.68 351.9 108.64" style="opacity: 0.2; isolation: isolate; transform-origin: 343.55px 95.55px;" class="animable" id="el440wr1s7qta"></polygon></g><g id="elve3fzirebfo"><polygon points="148.1 108.64 164.8 114.42 164.8 76.68 148.1 108.64" style="opacity: 0.2; isolation: isolate; transform-origin: 156.45px 95.55px;" class="animable" id="elqghk39uvtr"></polygon></g><rect x="148.1" y="70.9" width="203.8" height="37.74" style="fill: #F4A460; transform-origin: 250px 89.77px;" id="elj2md50vsjjf" class="animable"></rect><g id="eltcljrlg5m4"><rect x="148.1" y="70.9" width="203.8" height="37.74" style="fill: rgb(255, 255, 255); opacity: 0.4; transform-origin: 250px 89.77px;" class="animable" id="elcocrv2kltb7"></rect></g><path d="M170.06,94.9a6.84,6.84,0,0,1,11.85-4.23l-1.84,1.71a4,4,0,0,0-3.13-1.46,4,4,0,0,0,0,8,4,4,0,0,0,3.13-1.47l1.84,1.7a6.82,6.82,0,0,1-11.85-4.2Z" style="fill: rgb(255, 255, 255); transform-origin: 175.985px 94.9251px;" id="elmla9e8co0z9" class="animable"></path><path d="M195.23,88.69v12.42h-2.87V96h-5.64v5.09h-2.88V88.69h2.88v4.89h5.64V88.69Z" style="fill: rgb(255, 255, 255); transform-origin: 189.535px 94.9px;" id="elgzhq1j7hryi" class="animable"></path><path d="M197.4,94.9c0-3.69,2.87-6.43,6.79-6.43s6.8,2.72,6.8,6.43-2.89,6.42-6.8,6.42S197.4,98.59,197.4,94.9Zm10.68,0a3.89,3.89,0,1,0-3.89,4A3.8,3.8,0,0,0,208.08,94.9Z" style="fill: rgb(255, 255, 255); transform-origin: 204.195px 94.895px;" id="eld4te16v1aig" class="animable"></path><path d="M212.37,94.9a6.84,6.84,0,0,1,11.86-4.23l-1.85,1.71a4,4,0,0,0-3.12-1.46,4,4,0,1,0,0,8,3.93,3.93,0,0,0,3.12-1.47l1.85,1.7a6.83,6.83,0,0,1-11.86-4.2Z" style="fill: rgb(255, 255, 255); transform-origin: 218.3px 94.918px;" id="elrl39ekr98a" class="animable"></path><path d="M225.11,94.9c0-3.69,2.87-6.43,6.8-6.43s6.79,2.72,6.79,6.43-2.89,6.42-6.79,6.42S225.11,98.59,225.11,94.9Zm10.68,0a3.89,3.89,0,1,0-3.88,4A3.79,3.79,0,0,0,235.79,94.9Z" style="fill: rgb(255, 255, 255); transform-origin: 231.905px 94.895px;" id="el778anod9jkq" class="animable"></path><path d="M240.86,88.69h2.88V98.77H250v2.34h-9.11Z" style="fill: rgb(255, 255, 255); transform-origin: 245.43px 94.9px;" id="elmzvmll61r2p" class="animable"></path><path d="M259.87,98.45H254.1l-1.1,2.66h-2.95l5.54-12.42h2.84L264,101.11h-3ZM259,96.26l-2-4.75-2,4.75Z" style="fill: rgb(255, 255, 255); transform-origin: 257.025px 94.9px;" id="el6ehigfjzm8p" class="animable"></path><path d="M267.23,91h-4V88.69h10.83V91h-4v10.08h-2.87Z" style="fill: rgb(255, 255, 255); transform-origin: 268.645px 94.885px;" id="elr7hlepiw6r9" class="animable"></path><path d="M285.24,98.8v2.31h-9.62V88.69H285V91h-6.53v2.7h5.76v2.24h-5.76V98.8Z" style="fill: rgb(255, 255, 255); transform-origin: 280.43px 94.9px;" id="el6o566e5opv5" class="animable"></path><path d="M292.55,88.69h5.64c4.06,0,6.85,2.45,6.85,6.21s-2.79,6.21-6.85,6.21h-5.64Zm5.5,10.06c2.46,0,4.08-1.47,4.08-3.85s-1.62-3.85-4.08-3.85h-2.63v7.7Z" style="fill: rgb(255, 255, 255); transform-origin: 298.795px 94.9px;" id="el862r84i6wbt" class="animable"></path><path d="M315.2,98.45h-5.76l-1.1,2.66h-2.95l5.54-12.42h2.84l5.55,12.42h-3Zm-.9-2.19-2-4.75-2,4.75Z" style="fill: rgb(255, 255, 255); transform-origin: 312.355px 94.9px;" id="elfj151r0px9f" class="animable"></path><path d="M325.81,96.71v4.4h-2.87V96.67l-4.81-8h3.05l3.32,5.52,3.32-5.52h2.82Z" style="fill: rgb(255, 255, 255); transform-origin: 324.385px 94.89px;" id="elvzkr199g53" class="animable"></path><path d="M240.43,76.91l-2.36,7h-.77l-2.05-6-2.06,6h-.76l-2.36-7h.76l2,6,2.08-6h.69l2.06,6,2-6Z" style="fill: rgb(255, 255, 255); transform-origin: 235.25px 80.41px;" id="elpltub5asu6p" class="animable"></path><path d="M241.1,80.41A3.67,3.67,0,1,1,244.77,84,3.52,3.52,0,0,1,241.1,80.41Zm6.6,0a2.94,2.94,0,1,0-2.93,2.89A2.84,2.84,0,0,0,247.7,80.41Z" style="fill: rgb(255, 255, 255); transform-origin: 244.769px 80.3316px;" id="el5m3hwf6pfh" class="animable"></path><path d="M254.86,83.9l-1.59-2.25a5,5,0,0,1-.56,0h-1.88V83.9h-.74v-7h2.62c1.77,0,2.85.9,2.85,2.4A2.16,2.16,0,0,1,254,81.5l1.7,2.4Zm0-4.59c0-1.12-.73-1.76-2.13-1.76h-1.86v3.5h1.86C254.09,81.05,254.82,80.41,254.82,79.31Z" style="fill: rgb(255, 255, 255); transform-origin: 252.895px 80.4px;" id="el8wwjt79rkn8" class="animable"></path><path d="M257.31,76.91h.74v6.35H262v.64h-4.65Z" style="fill: rgb(255, 255, 255); transform-origin: 259.655px 80.405px;" id="eljob7h26v2s" class="animable"></path><path d="M263.19,76.91H266a3.5,3.5,0,1,1,0,7h-2.84Zm2.8,6.35a2.86,2.86,0,1,0,0-5.71h-2.06v5.71Z" style="fill: rgb(255, 255, 255); transform-origin: 266.33px 80.41px;" id="elti508ke6d1f" class="animable"></path><rect x="273.73" y="79.77" width="56.83" height="1" style="fill: rgb(255, 255, 255); transform-origin: 302.145px 80.27px;" id="el15k97ttd0fyi" class="animable"></rect><rect x="169.45" y="79.77" width="56.83" height="1" style="fill: rgb(255, 255, 255); transform-origin: 197.865px 80.27px;" id="el6b5hmkac5d" class="animable"></rect></g><defs>     <filter id="active" height="200%">         <feMorphology in="SourceAlpha" result="DILATED" operator="dilate" radius="2"></feMorphology>                <feFlood flood-color="#32DFEC" flood-opacity="1" result="PINK"></feFlood>        <feComposite in="PINK" in2="DILATED" operator="in" result="OUTLINE"></feComposite>        <feMerge>            <feMergeNode in="OUTLINE"></feMergeNode>            <feMergeNode in="SourceGraphic"></feMergeNode>        </feMerge>    </filter>    <filter id="hover" height="200%">        <feMorphology in="SourceAlpha" result="DILATED" operator="dilate" radius="2"></feMorphology>                <feFlood flood-color="#ff0000" flood-opacity="0.5" result="PINK"></feFlood>        <feComposite in="PINK" in2="DILATED" operator="in" result="OUTLINE"></feComposite>        <feMerge>            <feMergeNode in="OUTLINE"></feMergeNode>            <feMergeNode in="SourceGraphic"></feMergeNode>        </feMerge>            <feColorMatrix type="matrix" values="0   0   0   0   0                0   1   0   0   0                0   0   0   0   0                0   0   0   1   0 "></feColorMatrix>    </filter></defs></svg>